<svg width="65" height="64" viewBox="0 0 65 64" fill="none" xmlns="http://www.w3.org/2000/svg">
<circle cx="32.5" cy="32" r="32" fill="#DDE0FF"/>
<g clip-path="url(#clip0_692_2862)">
<path d="M31.4001 30.9323C31.4001 30.8086 31.3509 30.6899 31.2634 30.6023C31.1759 30.5148 31.0572 30.4656 30.9334 30.4656H29.0666C28.8088 30.4656 28.5999 30.6746 28.5999 30.9323C28.5999 31.1901 28.8088 31.399 29.0666 31.399H30.9334C30.9947 31.399 31.0554 31.387 31.112 31.3635C31.1686 31.3401 31.2201 31.3057 31.2634 31.2624C31.3067 31.219 31.3411 31.1676 31.3646 31.1109C31.388 31.0543 31.4001 30.9936 31.4001 30.9323ZM28.1332 26.2653H27.1997C27.076 26.2653 26.9573 26.3145 26.8697 26.402C26.7822 26.4895 26.733 26.6082 26.733 26.732C26.733 26.8558 26.7822 26.9745 26.8697 27.062C26.9573 27.1495 27.076 27.1987 27.1997 27.1987C27.1997 27.3224 27.2489 27.4411 27.3364 27.5287C27.4239 27.6162 27.5426 27.6654 27.6664 27.6654C27.7902 27.6654 27.9089 27.6162 27.9964 27.5287C28.0839 27.4411 28.1331 27.3224 28.1331 27.1987C28.2569 27.1987 28.3756 27.1495 28.4631 27.062C28.5506 26.9745 28.5998 26.8558 28.5998 26.732C28.5998 26.6707 28.5877 26.61 28.5643 26.5534C28.5409 26.4968 28.5065 26.4453 28.4632 26.402C28.4198 26.3586 28.3684 26.3243 28.3118 26.3008C28.2551 26.2774 28.1944 26.2653 28.1332 26.2653ZM32.8002 26.2653H31.8668C31.743 26.2653 31.6243 26.3145 31.5368 26.402C31.4493 26.4895 31.4001 26.6082 31.4001 26.732C31.4001 26.8558 31.4493 26.9745 31.5368 27.062C31.6243 27.1495 31.743 27.1987 31.8668 27.1987C31.8668 27.3224 31.9159 27.4411 32.0035 27.5287C32.091 27.6162 32.2097 27.6654 32.3335 27.6654C32.4572 27.6654 32.5759 27.6162 32.6635 27.5287C32.751 27.4411 32.8001 27.3224 32.8001 27.1987C32.9239 27.1987 33.0426 27.1495 33.1301 27.062C33.2177 26.9745 33.2668 26.8558 33.2668 26.732C33.2669 26.6707 33.2548 26.61 33.2314 26.5534C33.2079 26.4968 33.1735 26.4453 33.1302 26.402C33.0869 26.3586 33.0354 26.3242 32.9788 26.3008C32.9222 26.2773 32.8615 26.2653 32.8002 26.2653ZM29.5333 29.5322H30.4667C30.5905 29.5322 30.7092 29.4831 30.7967 29.3955C30.8842 29.308 30.9334 29.1893 30.9334 29.0655C30.9334 28.9418 30.8842 28.8231 30.7967 28.7355C30.7092 28.648 30.5905 28.5988 30.4667 28.5988H29.5333C29.4095 28.5988 29.2908 28.648 29.2033 28.7355C29.1158 28.8231 29.0666 28.9418 29.0666 29.0655C29.0666 29.1893 29.1158 29.308 29.2033 29.3955C29.2908 29.4831 29.4095 29.5322 29.5333 29.5322ZM28.5999 25.7986C28.7236 25.7986 28.8423 25.7494 28.9298 25.6619C29.0174 25.5744 29.0665 25.4557 29.0665 25.3319C29.0665 25.2081 29.0174 25.0894 28.9298 25.0019C28.8423 24.9144 28.7236 24.8652 28.5999 24.8652H26.733C26.6093 24.8652 26.4906 24.9144 26.403 25.0019C26.3155 25.0894 26.2664 25.2081 26.2664 25.3319C26.2664 25.4557 26.3155 25.5744 26.403 25.6619C26.4906 25.7494 26.6093 25.7986 26.733 25.7986H28.5999ZM31.4001 25.7986H33.2669C33.5247 25.7986 33.7336 25.5897 33.7336 25.3319C33.7336 25.0742 33.5247 24.8652 33.2669 24.8652H31.4001C31.2763 24.8652 31.1576 24.9144 31.0701 25.0019C30.9826 25.0894 30.9334 25.2081 30.9334 25.3319C30.9334 25.4557 30.9826 25.5744 31.0701 25.6619C31.1576 25.7494 31.2763 25.7986 31.4001 25.7986Z" fill="black"/>
<path d="M21.1325 44H38.8674C39.8984 44 40.7342 43.1642 40.7342 42.1332V40.7331C40.7338 40.4436 40.644 40.1613 40.4768 39.9249C40.3097 39.6885 40.0736 39.5096 39.8008 39.4128V37.8194C39.8033 37.3593 39.6306 36.9154 39.3177 36.578C39.2221 35.4575 38.4185 34.5247 37.3244 34.2645L35.0446 33.6947C34.6305 33.3523 34.1832 33.0523 33.7093 32.7991L34.8014 31.8456C35.0527 31.6259 35.2541 31.3549 35.3919 31.0508C35.5298 30.7467 35.6008 30.4167 35.6004 30.0829V29.4854C36.8605 29.2312 37.6759 28.0037 37.4217 26.7437C37.3445 26.3614 37.1726 26.0047 36.9217 25.7062C36.6707 25.4077 36.3488 25.177 35.9854 25.0354C36.4028 24.108 36.5909 23.0937 36.5338 22.0783C36.5338 19.7112 34.2311 18.5472 33.1138 18.1225C33.1807 18.0728 33.2525 18.0301 33.3281 17.9951C33.6791 17.8361 33.8348 17.4227 33.6759 17.0717C33.6033 16.9115 33.4729 16.7845 33.3108 16.7163C28.3828 14.6041 25.9368 17.7679 25.4729 18.4637C25.0137 18.6873 24.606 19.0039 24.2755 19.3933C23.945 19.7827 23.6989 20.2364 23.5529 20.7259C23.0862 22.3276 23.7325 24.0861 24.1544 24.9846C22.9291 25.3736 22.251 26.6824 22.6401 27.9078C22.7659 28.3039 22.9954 28.659 23.3047 28.9365C23.6141 29.2139 23.9921 29.4034 24.3995 29.4854V30.0829C24.3993 30.4164 24.4705 30.7461 24.6083 31.0498C24.7461 31.3535 24.9474 31.6242 25.1985 31.8437L26.2901 32.7991C25.8161 33.0529 25.3688 33.3536 24.9548 33.6966L22.6754 34.2646C21.5809 34.5249 20.7771 35.4584 20.6821 36.5794C20.3695 36.9164 20.1968 37.3598 20.1991 37.8194V39.4128C19.9263 39.5097 19.6901 39.6886 19.523 39.9249C19.3559 40.1613 19.266 40.4436 19.2656 40.7331V42.1332C19.2657 43.1642 20.1015 44 21.1325 44ZM28.5998 36.424C27.9636 36.3315 27.3502 36.121 26.7913 35.8033C27.2762 35.4084 27.83 35.1068 28.4248 34.9137C28.4432 34.908 28.4626 34.9069 28.4815 34.9105C28.5004 34.9141 28.5181 34.9222 28.5331 34.9342C28.5531 34.9482 28.5696 34.9666 28.5811 34.9881C28.5927 35.0096 28.5991 35.0335 28.5998 35.0579V36.424ZM26.103 36.4706C26.8585 36.9503 27.7115 37.2556 28.5998 37.3643V37.9328C28.3481 38.122 28.1372 38.3601 27.9797 38.6327C27.8222 38.9054 27.7214 39.207 27.6832 39.5196L25.3329 40.8805V40.733C25.3325 40.5381 25.2911 40.3456 25.2115 40.1677C25.1319 39.9899 25.0159 39.8308 24.8709 39.7006C24.8968 38.5141 25.3321 37.373 26.103 36.4706ZM25.3329 42.5999V41.8849C25.4492 41.8643 25.5614 41.8246 25.6647 41.7673L28.3669 40.2038C28.4378 40.1628 28.4966 40.1039 28.5375 40.0329C28.5784 39.962 28.5999 39.8815 28.5998 39.7997C28.6002 39.5543 28.6651 39.3133 28.788 39.1009C28.9108 38.8885 29.0874 38.7122 29.2999 38.5895C29.3709 38.5485 29.4298 38.4895 29.4708 38.4185C29.5118 38.3475 29.5333 38.2669 29.5332 38.1849V35.058C29.5328 34.8864 29.4918 34.7174 29.4136 34.5647C29.3354 34.412 29.2223 34.2799 29.0833 34.1792C28.9497 34.0802 28.7943 34.0146 28.6302 33.9879C28.466 33.9612 28.2978 33.9741 28.1397 34.0257C25.8023 34.7899 24.1518 36.882 23.9524 39.333H23.0162C23.0493 38.8108 23.142 38.2941 23.2925 37.7929C24.3999 34.0886 28.3005 31.9833 32.0049 33.0906C33.1176 33.4233 34.13 34.0275 34.951 34.8488C35.7721 35.6702 36.3758 36.6829 36.708 37.7957C36.8585 38.2959 36.9511 38.8117 36.9838 39.333H36.0486C35.8663 36.8922 34.23 34.8022 31.9042 34.0397C31.7394 33.9841 31.5638 33.9685 31.3918 33.994C31.2198 34.0196 31.0563 34.0856 30.9148 34.1867C30.7751 34.2859 30.6615 34.4173 30.5835 34.5698C30.5055 34.7223 30.4655 34.8914 30.4667 35.0627V38.1849C30.4666 38.2669 30.4882 38.3475 30.5291 38.4185C30.5701 38.4896 30.6291 38.5486 30.7001 38.5896C30.9126 38.7122 31.0891 38.8886 31.212 39.101C31.3349 39.3134 31.3998 39.5543 31.4002 39.7997C31.4002 39.8816 31.4217 39.9621 31.4627 40.0331C31.5036 40.104 31.5626 40.1629 31.6335 40.2039L34.3404 41.7674C34.4422 41.8237 34.5526 41.8628 34.6671 41.8831V42.6C34.6686 42.7593 34.6977 42.9172 34.753 43.0666H34.3077C34.2172 42.8601 34.0637 42.6876 33.869 42.5738L31.1621 41.0103C31.0904 40.9689 31.0089 40.9474 30.9261 40.9478C30.8432 40.9483 30.762 40.9709 30.6908 41.0131C30.4804 41.1333 30.2423 41.1966 30 41.1966C29.7577 41.1966 29.5196 41.1333 29.3093 41.0131C29.238 40.9709 29.1568 40.9483 29.074 40.9478C28.9911 40.9474 28.9096 40.9689 28.8379 41.0103L26.1226 42.5761C25.9318 42.6914 25.7813 42.8627 25.6913 43.0666H25.247C25.3023 42.9172 25.3313 42.7593 25.3329 42.5999ZM31.4001 37.3644C32.2918 37.2555 33.1479 36.9482 33.9053 36.465C34.6765 37.3687 35.1094 38.5124 35.1299 39.7002C34.9847 39.8303 34.8685 39.9895 34.7887 40.1674C34.709 40.3454 34.6675 40.5381 34.667 40.733V40.8782L32.3166 39.5196C32.2786 39.207 32.1778 38.9053 32.0203 38.6326C31.8628 38.36 31.6518 38.1219 31.4001 37.9328V37.3644ZM31.4001 36.424V35.0626C31.3996 35.0399 31.4048 35.0174 31.4151 34.9972C31.4255 34.977 31.4406 34.9597 31.4593 34.9468C31.481 34.9319 31.5058 34.9224 31.5319 34.919C31.5579 34.9156 31.5844 34.9184 31.6091 34.9273C32.1921 35.1196 32.7358 35.4152 33.2141 35.8C32.6539 36.1198 32.0385 36.3315 31.4001 36.424ZM32.8557 43.0666H27.14L29.0856 41.9465C29.3748 42.0691 29.6856 42.1324 29.9997 42.1324C30.3138 42.1324 30.6246 42.0691 30.9137 41.9465L32.8557 43.0666ZM39.8008 40.733V42.1332C39.8008 42.6487 39.3829 43.0666 38.8673 43.0666H36.0671C36.0058 43.0666 35.9451 43.0545 35.8885 43.0311C35.8319 43.0076 35.7804 42.9732 35.7371 42.9299C35.6938 42.8866 35.6594 42.8351 35.6359 42.7785C35.6125 42.7219 35.6004 42.6612 35.6004 42.5999V40.7331C35.6004 40.6718 35.6125 40.6111 35.6359 40.5545C35.6594 40.4979 35.6938 40.4464 35.7371 40.4031C35.7804 40.3598 35.8319 40.3254 35.8885 40.3019C35.9451 40.2785 36.0058 40.2664 36.0671 40.2664H37.4672C37.591 40.2664 37.7097 40.2172 37.7972 40.1297C37.8847 40.0422 37.9339 39.9235 37.9339 39.7997C37.9355 39.0308 37.8237 38.2659 37.6021 37.5297C37.5867 37.4774 37.5661 37.4275 37.5494 37.3757C37.636 37.2143 37.7811 37.0922 37.9549 37.0345C38.0565 36.9997 38.1651 36.9908 38.271 37.0085C38.377 37.0261 38.4768 37.0699 38.5616 37.1358C38.6618 37.2185 38.7415 37.3232 38.7945 37.4418C38.8475 37.5604 38.8724 37.6897 38.8673 37.8195V39.7997C38.8673 40.0575 39.0763 40.2664 39.334 40.2664C39.5917 40.2664 39.8008 40.4753 39.8008 40.733ZM38.2355 36.0791C38.0419 36.0665 37.8475 36.0897 37.6624 36.1477C37.4855 36.2097 37.3205 36.3012 37.1742 36.4183C36.9289 35.9028 36.6283 35.4155 36.2776 34.965L37.0981 35.1699C37.3426 35.2292 37.5711 35.3413 37.7676 35.4984C37.9641 35.6555 38.1238 35.8537 38.2355 36.0791ZM24.4503 20.9844C24.5683 20.5981 24.7686 20.242 25.0375 19.9406C25.3064 19.6391 25.6374 19.3996 26.0077 19.2384C26.0918 19.1962 26.1613 19.1299 26.2075 19.048C26.285 18.908 28.1041 15.7535 32.5183 17.4034C32.3745 17.5151 32.2465 17.6459 32.1379 17.7921C32.0702 17.8799 32.0244 17.9825 32.0041 18.0915C31.9838 18.2004 31.9897 18.3126 32.0212 18.4189C32.0541 18.5271 32.1123 18.6259 32.191 18.7071C32.2698 18.7883 32.3668 18.8495 32.4739 18.8856C33.2076 19.1245 35.6004 20.058 35.6004 22.0783C35.6189 22.7652 35.5357 23.4511 35.3535 24.1136C35.1611 23.6661 34.83 23.2923 34.4089 23.0472C34.3268 23.0051 34.2339 22.9889 34.1424 23.0006C31.6451 23.3123 30.9432 22.981 29.7806 22.4316C29.1434 22.1187 28.4864 21.8478 27.8139 21.6205C27.4758 21.4803 27.1082 21.4263 26.7441 21.4636C26.38 21.5008 26.0309 21.628 25.7282 21.8338C25.1685 22.2959 24.7814 22.9335 24.6296 23.6432C24.3113 22.7935 24.249 21.8691 24.4503 20.9844ZM25.8127 31.1404C25.6618 31.0085 25.541 30.846 25.4582 30.6635C25.3755 30.4811 25.3328 30.2831 25.3329 30.0828V29.0654C25.3329 28.9416 25.2837 28.8229 25.1962 28.7354C25.1087 28.6479 24.99 28.5987 24.8662 28.5987C24.0976 28.6052 23.4693 27.9873 23.4629 27.2187C23.4604 26.9273 23.5495 26.6425 23.7175 26.4045C23.8856 26.1664 24.1241 25.9871 24.3995 25.8919V26.7319C24.3995 26.8557 24.4487 26.9744 24.5362 27.0619C24.6237 27.1494 24.7424 27.1986 24.8662 27.1986C24.99 27.1986 25.1087 27.1494 25.1962 27.0619C25.2837 26.9744 25.3329 26.8557 25.3329 26.7319V25.3318C25.3329 24.7582 25.5018 23.149 26.2738 22.5927C26.458 22.4764 26.6682 22.4077 26.8856 22.3929C27.103 22.378 27.3206 22.4175 27.5189 22.5078C28.1558 22.724 28.778 22.9814 29.3816 23.2783C30.581 23.8449 31.4538 24.2584 34.0874 23.9504C34.2846 24.1199 34.4397 24.3329 34.5403 24.5727C34.6409 24.8125 34.6843 25.0724 34.667 25.3319V26.732C34.667 26.8557 34.7162 26.9745 34.8037 27.062C34.8912 27.1495 35.0099 27.1987 35.1337 27.1987C35.2575 27.1987 35.3762 27.1495 35.4637 27.062C35.5512 26.9745 35.6004 26.8557 35.6004 26.732V25.8919C36.3268 26.1432 36.7119 26.9358 36.4606 27.6622C36.3653 27.9376 36.186 28.1761 35.948 28.3441C35.7099 28.5122 35.4251 28.6013 35.1337 28.5988C35.0099 28.5988 34.8912 28.648 34.8037 28.7355C34.7162 28.823 34.667 28.9418 34.667 29.0655V30.083C34.6672 30.2833 34.6244 30.4813 34.5417 30.6637C34.4589 30.8461 34.3381 31.0087 34.1873 31.1405L32.7708 32.3792C30.9866 31.6965 29.0133 31.6965 27.2291 32.3792L25.8127 31.1404ZM22.9018 35.1699L23.7218 34.965C23.371 35.4154 23.0705 35.9027 22.8258 36.4184C22.6796 36.3011 22.5145 36.2096 22.3376 36.1477C22.1524 36.0897 21.9581 36.0665 21.7645 36.0791C21.8761 35.8537 22.0358 35.6555 22.2323 35.4984C22.4288 35.3413 22.6573 35.2292 22.9018 35.1699ZM20.1991 40.733C20.1991 40.4753 20.408 40.2664 20.6658 40.2664C20.9236 40.2664 21.1325 40.0574 21.1325 39.7997V37.8194C21.1273 37.6897 21.1521 37.5605 21.2049 37.442C21.2578 37.3234 21.3373 37.2186 21.4372 37.1357C21.5221 37.0699 21.6219 37.0262 21.7278 37.0085C21.8337 36.9909 21.9423 36.9998 22.0439 37.0344C22.2177 37.0922 22.3628 37.2143 22.4495 37.3756C22.4331 37.4265 22.4126 37.475 22.3977 37.5263C22.1759 38.2637 22.064 39.0297 22.0659 39.7997C22.0659 39.9234 22.115 40.0421 22.2025 40.1297C22.2901 40.2172 22.4088 40.2664 22.5325 40.2664H23.9327C23.994 40.2664 24.0546 40.2784 24.1113 40.3019C24.1679 40.3253 24.2193 40.3597 24.2627 40.403C24.306 40.4464 24.3404 40.4978 24.3638 40.5544C24.3873 40.6111 24.3994 40.6718 24.3994 40.733V42.5998C24.3994 42.6611 24.3873 42.7218 24.3638 42.7784C24.3404 42.8351 24.306 42.8865 24.2627 42.9298C24.2193 42.9732 24.1679 43.0076 24.1113 43.031C24.0546 43.0545 23.994 43.0665 23.9327 43.0665H21.1324C20.6169 43.0665 20.199 42.6486 20.199 42.1331V40.733H20.1991Z" fill="black"/>
<path d="M29.9999 40.2664C30.2576 40.2664 30.4666 40.0574 30.4666 39.7997C30.4666 39.542 30.2576 39.333 29.9999 39.333C29.7421 39.333 29.5332 39.542 29.5332 39.7997C29.5332 40.0574 29.7421 40.2664 29.9999 40.2664Z" fill="black"/>
</g>
<defs>
<clipPath id="clip0_692_2862">
<rect width="28" height="28" fill="white" transform="translate(16 16)"/>
</clipPath>
</defs>
</svg>
