<svg width="65" height="64" viewBox="0 0 65 64" fill="none" xmlns="http://www.w3.org/2000/svg">
<circle cx="32.5" cy="32" r="32" fill="#FFC4B0" fill-opacity="0.8"/>
<path fill-rule="evenodd" clip-rule="evenodd" d="M43.5164 21.6282C42.9663 21.0781 42.2654 20.7035 41.5024 20.5517C40.7393 20.3999 39.9484 20.4778 39.2297 20.7756C38.5109 21.0733 37.8966 21.5775 37.4643 22.2243C37.0321 22.8712 36.8014 23.6317 36.8014 24.4097C36.8014 25.1877 37.0321 25.9482 37.4643 26.5951C37.8966 27.2419 38.5109 27.7461 39.2297 28.0438C39.9484 28.3415 40.7393 28.4194 41.5024 28.2677C42.2654 28.1159 42.9663 27.7413 43.5164 27.1911C44.2541 26.4534 44.6685 25.4529 44.6685 24.4097C44.6685 23.3664 44.2541 22.3659 43.5164 21.6282ZM40.735 19.875C41.6318 19.875 42.5086 20.141 43.2543 20.6392C44 21.1375 44.5812 21.8457 44.9245 22.6743C45.2677 23.5029 45.3575 24.4147 45.1825 25.2944C45.0075 26.174 44.5756 26.982 43.9415 27.6162C43.3073 28.2504 42.4993 28.6823 41.6196 28.8572C40.74 29.0322 39.8282 28.9424 38.9996 28.5992C38.171 28.256 37.4628 27.6748 36.9645 26.929C36.4662 26.1833 36.2003 25.3066 36.2003 24.4097C36.2003 23.207 36.6781 22.0536 37.5285 21.2032C38.3789 20.3528 39.5323 19.875 40.735 19.875ZM38.8073 24.5865C38.749 24.5323 38.7147 24.4572 38.7119 24.3777C38.709 24.2982 38.7378 24.2208 38.792 24.1626C38.8462 24.1044 38.9213 24.0701 39.0008 24.0672C39.0803 24.0643 39.1577 24.0932 39.2159 24.1474L40.2556 25.1162L42.2435 23.0749C42.2709 23.0465 42.3036 23.0238 42.3398 23.0081C42.376 22.9924 42.4149 22.984 42.4544 22.9834C42.4938 22.9828 42.533 22.9899 42.5697 23.0045C42.6064 23.019 42.6398 23.0407 42.6681 23.0682C42.6964 23.0957 42.719 23.1286 42.7346 23.1648C42.7501 23.2011 42.7584 23.24 42.7589 23.2795C42.7593 23.319 42.752 23.3581 42.7373 23.3947C42.7226 23.4314 42.7008 23.4647 42.6732 23.4929L40.4851 25.7397C40.431 25.798 40.3559 25.8323 40.2764 25.8351C40.1969 25.838 40.1195 25.8092 40.0613 25.755L38.8073 24.5865ZM25.657 23.7867V23.7856C25.0476 23.7924 24.4659 24.0408 24.0395 24.4761C23.6131 24.9114 23.3769 25.4982 23.3827 26.1075L23.3839 26.1099H23.3828C23.3895 26.7192 23.6378 27.301 24.0732 27.7275C24.5085 28.1539 25.0953 28.3902 25.7046 28.3844L25.707 28.3832V28.3843C26.3163 28.3775 26.8981 28.1291 27.3245 27.6938C27.7509 27.2584 27.9871 26.6717 27.9813 26.0623L27.9801 26.06H27.9812C27.9744 25.4507 27.726 24.869 27.2907 24.4426C26.8554 24.0162 26.2686 23.78 25.6593 23.7858L25.657 23.787V23.7867ZM25.657 23.1856V23.1867C26.4257 23.1801 27.1656 23.4791 27.7139 24.0178C28.2623 24.5566 28.5743 25.2911 28.5813 26.0598H28.5801C28.5867 26.8285 28.2877 27.5684 27.749 28.1168C27.2102 28.6652 26.4757 28.9771 25.707 28.9841V28.983C24.9383 28.9896 24.1984 28.6907 23.65 28.1519C23.1016 27.6131 22.7896 26.8786 22.7826 26.1099H22.7838C22.7772 25.3412 23.0761 24.6013 23.6149 24.0529C24.1537 23.5045 24.8882 23.1926 25.6569 23.1856L25.657 23.1856ZM27.2163 22.3866C27.4437 22.4811 27.6619 22.5963 27.8681 22.7309C27.9175 22.7629 27.9751 22.7797 28.034 22.7792C28.0928 22.7787 28.1502 22.7609 28.1989 22.728V22.7285L28.9836 22.1977L29.5653 22.7683L29.0398 23.5777C29.0076 23.6272 28.9908 23.685 28.9914 23.7441C28.992 23.8031 29.01 23.8606 29.0432 23.9094C29.31 24.3208 29.4986 24.7779 29.5995 25.2577C29.6116 25.3157 29.6406 25.3688 29.6828 25.4103C29.725 25.4519 29.7785 25.48 29.8367 25.4912L30.7655 25.6702L30.7734 26.4845L29.8297 26.6853C29.7707 26.6979 29.7168 26.7279 29.6751 26.7715C29.6334 26.8151 29.6058 26.8703 29.5959 26.9298C29.5106 27.3782 29.2838 27.8904 29.0362 28.2706C29.0042 28.32 28.9874 28.3776 28.9879 28.4365C28.9884 28.4953 29.0062 28.5527 29.039 28.6014H29.0386L29.5693 29.3856L28.9988 29.9673L28.1894 29.4418C28.1399 29.4096 28.082 29.3928 28.023 29.3934C27.964 29.394 27.9065 29.412 27.8577 29.4452C27.4463 29.712 26.9892 29.9006 26.5094 30.0015C26.4514 30.0136 26.3983 30.0426 26.3567 30.0848C26.3152 30.127 26.287 30.1805 26.2759 30.2387L26.0961 31.168L25.2817 31.1758L25.0809 30.2322C25.0684 30.1731 25.0384 30.1192 24.9948 30.0775C24.9511 30.0358 24.896 30.0082 24.8364 29.9983C24.3883 29.9131 23.8757 29.6863 23.4956 29.4386C23.4439 29.4051 23.3832 29.3883 23.3217 29.3905C23.2601 29.3927 23.2007 29.4138 23.1516 29.4509L22.3811 29.9724L21.7989 29.4016L22.3244 28.5922C22.3565 28.5427 22.3734 28.4848 22.3728 28.4258C22.3721 28.3668 22.3541 28.3093 22.321 28.2605C22.0542 27.849 21.8657 27.3918 21.7648 26.9119C21.7528 26.8539 21.7238 26.8007 21.6816 26.7592C21.6394 26.7176 21.5858 26.6895 21.5277 26.6783L20.5988 26.4994L20.5909 25.6849L21.5347 25.4842C21.5937 25.4717 21.6476 25.4416 21.6893 25.398C21.731 25.3544 21.7586 25.2993 21.7685 25.2397C21.8535 24.7914 22.0804 24.2789 22.3281 23.8988C22.3602 23.8495 22.377 23.7918 22.3765 23.733C22.376 23.6742 22.3582 23.6168 22.3253 23.568L22.3258 23.5677L21.7948 22.7834L22.3654 22.2018L23.1747 22.7272C23.2242 22.7594 23.2821 22.7762 23.3411 22.7756C23.4001 22.775 23.4577 22.7569 23.5065 22.7238C23.9179 22.457 24.3751 22.2683 24.855 22.1674C24.9129 22.1553 24.9661 22.1264 25.0076 22.0842C25.0492 22.042 25.0773 21.9884 25.0884 21.9302L25.2676 21.0016L26.082 20.9937L26.2828 21.9374C26.2953 21.9964 26.3253 22.0503 26.369 22.0921C26.4126 22.1338 26.4678 22.1614 26.5273 22.1713C26.7631 22.222 26.9937 22.2941 27.2164 22.3867L27.2163 22.3866ZM26.8303 21.6265C27.2497 21.734 27.6516 21.9009 28.0238 22.1221L28.85 21.5629C28.9099 21.5225 28.9824 21.505 29.0542 21.5138C29.1259 21.5225 29.1921 21.5568 29.2406 21.6105L30.1599 22.5122C30.2103 22.5617 30.2415 22.6275 30.2482 22.6978C30.2548 22.7681 30.2364 22.8385 30.1962 22.8966L29.6453 23.7447C29.8658 24.1175 30.0325 24.5196 30.1402 24.939L31.1184 25.1275C31.1899 25.1412 31.2539 25.1803 31.2987 25.2376C31.3434 25.295 31.3658 25.3666 31.3617 25.4392L31.3741 26.7253C31.3746 26.7943 31.3513 26.8614 31.3081 26.9152C31.2648 26.9691 31.2043 27.0063 31.1368 27.0206V27.0212L30.1397 27.2333C30.0323 27.6527 29.8655 28.0547 29.6444 28.4269L30.2036 29.2531C30.244 29.313 30.2614 29.3855 30.2527 29.4573C30.244 29.529 30.2097 29.5952 30.156 29.6437L29.2543 30.563C29.2048 30.6134 29.139 30.6446 29.0687 30.6512C28.9984 30.6579 28.928 30.6395 28.8699 30.5993L28.0221 30.0485C27.6493 30.269 27.2472 30.4356 26.8278 30.5434L26.6393 31.5216C26.6256 31.593 26.5865 31.657 26.5292 31.7018C26.4718 31.7465 26.4002 31.7689 26.3276 31.7648L25.0416 31.7772C24.9725 31.7778 24.9054 31.7545 24.8516 31.7112C24.7978 31.668 24.7606 31.6075 24.7462 31.54H24.7457L24.5336 30.5429C24.1138 30.4353 23.7116 30.2683 23.3391 30.0469L22.5141 30.6057C22.4568 30.6445 22.3879 30.6622 22.319 30.656C22.2502 30.6497 22.1856 30.6198 22.1363 30.5713H22.136L21.2041 29.6573C21.1538 29.6078 21.1225 29.542 21.1159 29.4717C21.1093 29.4014 21.1277 29.331 21.1679 29.2729L21.7185 28.4247C21.4979 28.0521 21.3312 27.6501 21.2234 27.2307L20.2452 27.0422C20.1738 27.0286 20.1097 26.9894 20.065 26.9321C20.0203 26.8748 19.9979 26.8031 20.002 26.7305L19.9896 25.4444C19.989 25.3754 20.0124 25.3083 20.0556 25.2545C20.0988 25.2007 20.1593 25.1634 20.2269 25.1491V25.1486L21.224 24.9364C21.3315 24.5171 21.4983 24.1153 21.7192 23.743L21.1599 22.9168C21.1195 22.8569 21.1021 22.7844 21.1108 22.7126C21.1196 22.6409 21.1539 22.5747 21.2075 22.5262L22.1094 21.6069C22.1589 21.5565 22.2246 21.5253 22.2949 21.5187C22.3652 21.512 22.4357 21.5304 22.4937 21.5706L23.3416 22.1211C23.7144 21.9006 24.1166 21.7339 24.5361 21.6262L24.7246 20.6481C24.7383 20.5767 24.7774 20.5127 24.8347 20.4679C24.8921 20.4232 24.9637 20.4008 25.0363 20.4049L26.3224 20.3925C26.3914 20.392 26.4585 20.4153 26.5123 20.4585C26.5662 20.5018 26.6034 20.5623 26.6177 20.6298H26.6183L26.8304 21.6269L26.8303 21.6265ZM24.6395 33.5079V36.5135L25.4872 35.8978C25.5385 35.8589 25.6009 35.8376 25.6653 35.8369C25.7297 35.8363 25.7925 35.8563 25.8446 35.894L26.7245 36.5333V33.5079H24.6395ZM21.6395 42.7016C21.5991 42.7031 21.5587 42.6965 21.5209 42.6821C21.4831 42.6677 21.4486 42.6458 21.4194 42.6177C21.3903 42.5896 21.3671 42.556 21.3513 42.5187C21.3354 42.4815 21.3272 42.4415 21.3272 42.401C21.3272 42.3605 21.3354 42.3205 21.3513 42.2833C21.3671 42.246 21.3903 42.2124 21.4194 42.1843C21.4486 42.1562 21.4831 42.1343 21.5209 42.1199C21.5587 42.1055 21.5991 42.0989 21.6395 42.1004H23.8955C23.9732 42.1034 24.0468 42.1364 24.1007 42.1924C24.1546 42.2485 24.1848 42.3232 24.1848 42.401C24.1848 42.4788 24.1546 42.5535 24.1007 42.6096C24.0468 42.6656 23.9732 42.6986 23.8955 42.7016H21.6395ZM21.6395 41.3214C21.5991 41.3228 21.5589 41.3161 21.5211 41.3016C21.4834 41.2872 21.449 41.2653 21.4199 41.2372C21.3908 41.2092 21.3677 41.1755 21.3519 41.1383C21.3361 41.1012 21.328 41.0612 21.328 41.0208C21.328 40.9804 21.3361 40.9404 21.3519 40.9032C21.3677 40.866 21.3908 40.8324 21.4199 40.8043C21.449 40.7763 21.4834 40.7544 21.5211 40.7399C21.5589 40.7254 21.5991 40.7187 21.6395 40.7202H23.8955C23.9733 40.723 24.0471 40.7558 24.1012 40.8119C24.1553 40.868 24.1855 40.9429 24.1855 41.0208C24.1855 41.0987 24.1553 41.1736 24.1012 41.2296C24.0471 41.2857 23.9733 41.3186 23.8955 41.3214H21.6395ZM36.6273 31.2024C36.236 30.7659 35.6664 30.5457 35.0083 30.5457C34.3344 30.5457 33.711 30.7758 33.2755 31.2319C32.3105 32.2426 32.5144 34.1813 33.3306 35.2395C34.222 36.395 35.6315 36.395 36.5228 35.2395C36.9528 34.682 37.2188 33.9067 37.2188 33.0458C37.2188 32.2303 36.9978 31.6155 36.6273 31.2024ZM35.0083 29.9446C35.8357 29.9446 36.5618 30.2325 37.0735 30.8031C37.541 31.3246 37.8199 32.0744 37.8199 33.0458C37.8199 34.0411 37.5055 34.9467 36.9972 35.6058C35.8636 37.0754 33.9899 37.0754 32.8562 35.6058C32.3476 34.9467 32.0335 34.0413 32.0335 33.0458C32.0335 32.0833 32.3442 31.3389 32.8411 30.8186C33.3958 30.2376 34.1749 29.9446 35.0083 29.9446ZM28.2754 44.2087H20.5355C20.4815 44.2084 20.4298 44.1868 20.3917 44.1486C20.3535 44.1104 20.3319 44.0587 20.3315 44.0047V33.7119C20.3319 33.6579 20.3535 33.6062 20.3917 33.568C20.4298 33.5299 20.4815 33.5082 20.5355 33.5079H24.0384V37.1028H24.0389C24.0393 37.158 24.0548 37.2119 24.0838 37.2588C24.1128 37.3057 24.1541 37.3438 24.2032 37.3689C24.2523 37.3939 24.3074 37.405 24.3624 37.401C24.4174 37.3969 24.4702 37.3779 24.5151 37.3459L25.6683 36.508L26.8355 37.356C26.8796 37.3917 26.9329 37.4142 26.9893 37.4209C27.0457 37.4276 27.1028 37.4182 27.154 37.3938C27.2053 37.3694 27.2486 37.331 27.2789 37.283C27.3092 37.235 27.3254 37.1794 27.3255 37.1227V33.5078H30.8284C30.8824 33.5082 30.9341 33.5298 30.9722 33.568C31.0104 33.6062 31.032 33.6579 31.0324 33.7119V38.4065C30.2339 38.661 29.5369 39.1622 29.0414 39.8381C28.546 40.5139 28.2778 41.3296 28.2754 42.1675V44.2087ZM41.2773 46.125H28.576C28.4962 46.125 28.4197 46.0933 28.3633 46.0369C28.3069 45.9805 28.2752 45.904 28.2752 45.8242V44.8099H20.5355C20.3221 44.8094 20.1176 44.7244 19.9667 44.5735C19.8158 44.4226 19.7309 44.2181 19.7305 44.0047V33.7119C19.731 33.4986 19.8159 33.2941 19.9668 33.1433C20.1177 32.9924 20.3222 32.9075 20.5355 32.907H30.8284C31.0418 32.9075 31.2463 32.9924 31.3972 33.1433C31.5481 33.2942 31.6331 33.4988 31.6335 33.7122V38.2664C31.8278 38.2372 32.024 38.2226 32.2204 38.2227H37.6329C38.6783 38.2255 39.6802 38.642 40.4194 39.3812C41.1587 40.1204 41.5753 41.1222 41.5781 42.1676V45.8242C41.5781 45.904 41.5464 45.9805 41.49 46.0369C41.4336 46.0933 41.3571 46.125 41.2773 46.125ZM28.8765 45.5238H31.0727V43.9315C31.0754 43.8536 31.1083 43.7799 31.1644 43.7258C31.2205 43.6717 31.2953 43.6414 31.3732 43.6414C31.4512 43.6414 31.526 43.6717 31.5821 43.7258C31.6382 43.7799 31.6711 43.8536 31.6738 43.9315V45.5238H38.1794V43.9315C38.1821 43.8536 38.215 43.7799 38.2711 43.7258C38.3272 43.6717 38.402 43.6414 38.4799 43.6414C38.5579 43.6414 38.6327 43.6717 38.6888 43.7258C38.7449 43.7799 38.7778 43.8536 38.7805 43.9315V45.5238H40.9766V42.1676C40.9738 41.2816 40.6205 40.4327 39.994 39.8063C39.3676 39.1798 38.5187 38.8267 37.6327 38.8239H32.2204C31.3345 38.8267 30.4856 39.1798 29.8591 39.8063C29.2326 40.4327 28.8793 41.2816 28.8765 42.1676V45.5238Z" fill="black"/>
</svg>
