<svg width="64" height="64" viewBox="0 0 64 64" fill="none" xmlns="http://www.w3.org/2000/svg">
<circle cx="32" cy="32" r="32" fill="#DDE0FF"/>
<path d="M45.9935 26.8641C45.992 26.7969 45.977 26.7306 45.9496 26.6693C45.9222 26.6079 45.8829 26.5526 45.8339 26.5066C45.7848 26.4606 45.7272 26.4249 45.6642 26.4014C45.6012 26.378 45.5341 26.3673 45.467 26.37L37.7095 26.8851C37.5795 26.8968 37.4593 26.959 37.3745 27.0583C37.2897 27.1575 37.2471 27.286 37.2558 27.4163C37.2645 27.5465 37.3237 27.6682 37.4209 27.7553C37.5182 27.8425 37.6456 27.8881 37.776 27.8825L44.3595 27.4456C31.512 42.5541 18.669 41.7741 18.539 41.7626C18.4067 41.7521 18.2757 41.7947 18.1748 41.8809C18.0739 41.967 18.0114 42.0898 18.001 42.222C17.9906 42.3543 18.0331 42.4853 18.1193 42.5862C18.2055 42.6871 18.3282 42.7496 18.4605 42.76C22.2045 42.7726 32.72 42.214 44.9005 28.36L44.4865 34.5931C44.4822 34.6586 44.4908 34.7243 44.5119 34.7865C44.5329 34.8487 44.566 34.9062 44.6093 34.9556C44.6526 35.005 44.7052 35.0454 44.764 35.0744C44.8229 35.1035 44.887 35.1207 44.9525 35.125C45.0848 35.1338 45.2152 35.0896 45.315 35.0022C45.4148 34.9148 45.4757 34.7914 45.4845 34.659C45.4665 34.614 46.0245 26.9011 45.9935 26.8641Z" fill="black"/>
<path d="M26.85 35.9199C28.7981 35.9174 30.6656 35.1421 32.0427 33.7641C33.4197 32.3861 34.1938 30.5181 34.195 28.5699C33.7915 18.8229 19.901 18.8309 19.5 28.5699C19.5015 30.5188 20.2763 32.3875 21.6544 33.7656C23.0325 35.1436 24.9011 35.9185 26.85 35.9199ZM26.85 29.0699C26.3259 29.0659 25.8213 28.8707 25.4309 28.5209C25.0405 28.1712 24.7913 27.691 24.7299 27.1705C24.6685 26.65 24.7992 26.1249 25.0975 25.694C25.3958 25.263 25.8412 24.9558 26.35 24.8299V23.7799C26.35 23.6473 26.4027 23.5202 26.4964 23.4264C26.5902 23.3326 26.7174 23.2799 26.85 23.2799C26.9826 23.2799 27.1098 23.3326 27.2036 23.4264C27.2973 23.5202 27.35 23.6473 27.35 23.7799V24.8299C27.8194 24.9431 28.2372 25.2106 28.5364 25.5896C28.8356 25.9686 28.9989 26.4371 29 26.9199C29 27.0526 28.9473 27.1797 28.8536 27.2735C28.7598 27.3673 28.6326 27.4199 28.5 27.4199C28.3674 27.4199 28.2402 27.3673 28.1464 27.2735C28.0527 27.1797 28 27.0526 28 26.9199C28.0005 26.692 27.9334 26.469 27.8072 26.2792C27.6809 26.0894 27.5013 25.9413 27.2909 25.8536C27.0805 25.766 26.8488 25.7426 26.6251 25.7866C26.4015 25.8306 26.1959 25.9399 26.0343 26.1007C25.8728 26.2616 25.7626 26.4667 25.7176 26.6902C25.6727 26.9136 25.695 27.1454 25.7818 27.3562C25.8685 27.567 26.0159 27.7473 26.2051 27.8743C26.3944 28.0014 26.6171 28.0695 26.845 28.0699C27.3725 28.0699 27.8817 28.2634 28.2761 28.6137C28.6705 28.964 28.9227 29.4468 28.985 29.9707C29.0472 30.4945 28.9152 31.023 28.6138 31.4559C28.3125 31.8889 27.8628 32.1963 27.35 32.3199V33.3649C27.35 33.4976 27.2973 33.6247 27.2036 33.7185C27.1098 33.8123 26.9826 33.8649 26.85 33.8649C26.7174 33.8649 26.5902 33.8123 26.4964 33.7185C26.4027 33.6247 26.35 33.4976 26.35 33.3649V32.3199C25.8792 32.2086 25.4597 31.9418 25.1594 31.5625C24.859 31.1832 24.6954 30.7137 24.695 30.2299C24.6947 30.1643 24.7073 30.0992 24.7321 30.0384C24.7569 29.9776 24.7935 29.9223 24.8397 29.8757C24.8859 29.829 24.9408 29.7919 25.0013 29.7665C25.0619 29.741 25.1268 29.7278 25.1925 29.7274C25.2582 29.7271 25.3232 29.7397 25.384 29.7645C25.4448 29.7894 25.5001 29.8259 25.5468 29.8721C25.5934 29.9183 25.6306 29.9733 25.656 30.0338C25.6814 30.0943 25.6947 30.1593 25.695 30.2249C25.695 30.4534 25.7627 30.6767 25.8897 30.8666C26.0166 31.0566 26.197 31.2046 26.408 31.292C26.619 31.3794 26.8513 31.4023 27.0753 31.3578C27.2994 31.3132 27.5052 31.2032 27.6667 31.0417C27.8282 30.8801 27.9382 30.6743 27.9828 30.4503C28.0274 30.2262 28.0045 29.994 27.9171 29.7829C27.8297 29.5719 27.6816 29.3915 27.4917 29.2646C27.3017 29.1377 27.0784 29.0699 26.85 29.0699Z" fill="black"/>
</svg>
