<svg width="65" height="64" viewBox="0 0 65 64" fill="none" xmlns="http://www.w3.org/2000/svg">
<circle cx="32.5" cy="32" r="32" fill="#FFC4B0" fill-opacity="0.8"/>
<path d="M46.4936 26.8636C46.492 26.7964 46.4771 26.7302 46.4497 26.6688C46.4223 26.6074 46.3829 26.5521 46.3339 26.5061C46.2849 26.4601 46.2272 26.4244 46.1642 26.4009C46.1012 26.3775 46.0342 26.3668 45.9671 26.3696L38.2096 26.8846C38.0795 26.8964 37.9593 26.9585 37.8745 27.0578C37.7898 27.157 37.7472 27.2855 37.7558 27.4158C37.7645 27.546 37.8238 27.6677 37.921 27.7548C38.0182 27.842 38.1456 27.8876 38.2761 27.8821L44.8596 27.4451C32.0121 42.5536 19.1691 41.7736 19.0391 41.7621C18.9068 41.7517 18.7758 41.7942 18.6749 41.8804C18.574 41.9666 18.5115 42.0893 18.5011 42.2216C18.4906 42.3538 18.5332 42.4848 18.6194 42.5857C18.7056 42.6866 18.8283 42.7492 18.9606 42.7596C22.7046 42.7721 33.2201 42.2136 45.4006 28.3596L44.9866 34.5926C44.9822 34.6581 44.9908 34.7238 45.0119 34.786C45.033 34.8482 45.0661 34.9057 45.1094 34.9551C45.1526 35.0045 45.2052 35.0449 45.2641 35.0739C45.323 35.103 45.387 35.1202 45.4526 35.1246C45.5849 35.1333 45.7153 35.0891 45.8151 35.0017C45.9148 34.9143 45.9758 34.7909 45.9846 34.6586C45.9666 34.6136 46.5246 26.9006 46.4936 26.8636Z" fill="black"/>
<path d="M27.35 35.9199C29.2981 35.9174 31.1656 35.1421 32.5427 33.7641C33.9197 32.3861 34.6938 30.5181 34.695 28.5699C34.2915 18.8229 20.401 18.8309 20 28.5699C20.0015 30.5188 20.7763 32.3875 22.1544 33.7656C23.5325 35.1436 25.4011 35.9185 27.35 35.9199ZM27.35 29.0699C26.8259 29.0659 26.3213 28.8707 25.9309 28.5209C25.5405 28.1712 25.2913 27.691 25.2299 27.1705C25.1685 26.65 25.2992 26.1249 25.5975 25.694C25.8958 25.263 26.3412 24.9558 26.85 24.8299V23.7799C26.85 23.6473 26.9027 23.5202 26.9964 23.4264C27.0902 23.3326 27.2174 23.2799 27.35 23.2799C27.4826 23.2799 27.6098 23.3326 27.7036 23.4264C27.7973 23.5202 27.85 23.6473 27.85 23.7799V24.8299C28.3194 24.9431 28.7372 25.2106 29.0364 25.5896C29.3356 25.9686 29.4989 26.4371 29.5 26.9199C29.5 27.0526 29.4473 27.1797 29.3536 27.2735C29.2598 27.3673 29.1326 27.4199 29 27.4199C28.8674 27.4199 28.7402 27.3673 28.6464 27.2735C28.5527 27.1797 28.5 27.0526 28.5 26.9199C28.5005 26.692 28.4334 26.469 28.3072 26.2792C28.1809 26.0894 28.0013 25.9413 27.7909 25.8536C27.5805 25.766 27.3488 25.7426 27.1251 25.7866C26.9015 25.8306 26.6959 25.9399 26.5343 26.1007C26.3728 26.2616 26.2626 26.4667 26.2176 26.6902C26.1727 26.9136 26.195 27.1454 26.2818 27.3562C26.3685 27.567 26.5159 27.7473 26.7051 27.8743C26.8944 28.0014 27.1171 28.0695 27.345 28.0699C27.8725 28.0699 28.3817 28.2634 28.7761 28.6137C29.1705 28.964 29.4227 29.4468 29.485 29.9707C29.5472 30.4945 29.4152 31.023 29.1138 31.4559C28.8125 31.8889 28.3628 32.1963 27.85 32.3199V33.3649C27.85 33.4976 27.7973 33.6247 27.7036 33.7185C27.6098 33.8123 27.4826 33.8649 27.35 33.8649C27.2174 33.8649 27.0902 33.8123 26.9964 33.7185C26.9027 33.6247 26.85 33.4976 26.85 33.3649V32.3199C26.3792 32.2086 25.9597 31.9418 25.6594 31.5625C25.359 31.1832 25.1954 30.7137 25.195 30.2299C25.1947 30.1643 25.2073 30.0992 25.2321 30.0384C25.2569 29.9776 25.2935 29.9223 25.3397 29.8757C25.3859 29.829 25.4408 29.7919 25.5013 29.7665C25.5619 29.741 25.6268 29.7278 25.6925 29.7274C25.7582 29.7271 25.8232 29.7397 25.884 29.7645C25.9448 29.7894 26.0001 29.8259 26.0468 29.8721C26.0934 29.9183 26.1306 29.9733 26.156 30.0338C26.1814 30.0943 26.1947 30.1593 26.195 30.2249C26.195 30.4534 26.2627 30.6767 26.3897 30.8666C26.5166 31.0566 26.697 31.2046 26.908 31.292C27.119 31.3794 27.3513 31.4023 27.5753 31.3578C27.7994 31.3132 28.0052 31.2032 28.1667 31.0417C28.3282 30.8801 28.4382 30.6743 28.4828 30.4503C28.5274 30.2262 28.5045 29.994 28.4171 29.7829C28.3297 29.5719 28.1816 29.3915 27.9917 29.2646C27.8017 29.1377 27.5784 29.0699 27.35 29.0699Z" fill="black"/>
</svg>
