<svg width="64" height="64" viewBox="0 0 64 64" fill="none" xmlns="http://www.w3.org/2000/svg">
<circle cx="32" cy="32" r="32" fill="#DDE0FF"/>
<path fill-rule="evenodd" clip-rule="evenodd" d="M31.0667 31.9959H32.9334C33.1911 31.9959 33.4 31.7869 33.4 31.5292C33.4 31.2715 33.1911 31.0626 32.9334 31.0626H31.0667C30.809 31.0626 30.6 31.2715 30.6 31.5292C30.6 31.7869 30.8089 31.9959 31.0667 31.9959ZM32.4667 32.4625H31.5333C31.2756 32.4625 31.0667 32.6715 31.0667 32.9292C31.0667 33.1869 31.2756 33.3958 31.5333 33.3958H32.4667C32.7244 33.3958 32.9333 33.1869 32.9333 32.9292C32.9333 32.6715 32.7244 32.4625 32.4667 32.4625ZM30.6 27.3292C30.6 27.0715 30.391 26.8625 30.1333 26.8625H29.2C28.9423 26.8625 28.7333 27.0715 28.7333 27.3292C28.7333 27.5869 28.9423 27.7958 29.2 27.7958C29.2 28.0536 29.4089 28.2625 29.6666 28.2625C29.9243 28.2625 30.1333 28.0536 30.1333 27.7958C30.391 27.7958 30.6 27.587 30.6 27.3292ZM33.8667 27.7958C33.8667 28.0536 34.0756 28.2625 34.3333 28.2625C34.591 28.2625 34.8 28.0536 34.8 27.7958C35.0577 27.7958 35.2666 27.5869 35.2666 27.3292C35.2666 27.0715 35.0577 26.8625 34.8 26.8625H33.8666C33.6089 26.8625 33.4 27.0715 33.4 27.3292C33.4 27.587 33.6089 27.7958 33.8667 27.7958ZM31.5333 30.1292H32.4667C32.7244 30.1292 32.9333 29.9202 32.9333 29.6625C32.9333 29.4048 32.7244 29.1959 32.4667 29.1959H31.5333C31.2756 29.1959 31.0667 29.4048 31.0667 29.6625C31.0667 29.9202 31.2756 30.1292 31.5333 30.1292Z" fill="black"/>
<path d="M21.4034 39.5992C20.2008 40.8009 19.4 42.0333 19.4 44.1291V45.0667C19.4 45.5821 19.8178 46 20.3333 46H43.6666C44.1821 46 44.6 45.5821 44.6 45.0667V44.1291C44.6 42.0315 43.7992 40.8009 42.5966 39.5992C41.2834 38.2865 37.1155 37.0372 36.0842 36.7432C35.68 35.6906 35.536 34.556 35.6642 33.4359L36.8043 32.4377C37.0543 32.2186 37.2547 31.9487 37.3919 31.6459C37.5291 31.3431 37.6001 31.0145 37.6 30.6821V30.0824C38.6856 29.8623 39.4659 28.9079 39.4659 27.8002C39.4659 26.6925 38.6856 25.7381 37.6 25.518L37.999 23.9215L39.6888 23.0764C40.0384 22.9017 40.3332 22.6341 40.5408 22.303C40.7484 21.9718 40.8607 21.5898 40.8656 21.199C40.8704 20.8082 40.7675 20.4236 40.5681 20.0874C40.3688 19.7512 40.0807 19.4764 39.7354 19.2932C38.5921 18.7033 36.3218 18 31.9999 18C27.6781 18 25.4078 18.7033 24.265 19.2931C23.9196 19.4762 23.6313 19.751 23.4318 20.0872C23.2323 20.4234 23.1294 20.8081 23.1342 21.199C23.139 21.5899 23.2514 21.9719 23.4592 22.3031C23.6669 22.6343 23.9618 22.9019 24.3116 23.0764L26.0014 23.9215L26.4 25.518C25.3143 25.7381 24.534 26.6925 24.534 27.8002C24.534 28.9079 25.3143 29.8623 26.4 30.0824V30.6821C26.4001 31.0146 26.4712 31.3433 26.6087 31.6461C26.7462 31.9489 26.9468 32.2188 27.197 32.4377L28.3371 33.4359C28.4654 34.556 28.3213 35.6906 27.9171 36.7432C26.8844 37.0372 22.7166 38.2865 21.4034 39.5992ZM24.5571 45.0667H20.3333V44.1291C20.3333 42.3465 20.995 41.3268 22.0633 40.2591C22.6849 39.6375 24.2342 38.9678 25.7033 38.4391L24.055 40.968C23.9715 41.0957 23.9207 41.2421 23.9069 41.3941C23.8931 41.5461 23.9168 41.6992 23.976 41.8399C24.0351 41.9807 24.1279 42.1047 24.2461 42.2013C24.3644 42.2978 24.5045 42.3638 24.6542 42.3936L25.1862 42.4991C24.8241 43.3102 24.611 44.18 24.5571 45.0667ZM26.9063 38.3L27.904 39.2977C26.9882 39.9035 26.2162 40.7025 25.6421 41.6385L24.8353 41.4765L26.9063 38.3ZM30.6 43.6667C30.1448 44.01 29.831 44.5079 29.7175 45.0667H27.3589C27.5376 43.2068 28.8154 41.6361 30.6 41.0827V43.6667ZM34.2824 45.0667C34.1692 44.5078 33.8553 44.0098 33.4 43.6667L33.3944 41.0767C35.1815 41.6313 36.4613 43.2041 36.641 45.0667H34.2824ZM37.5804 45.0667C37.3979 42.7946 35.8506 40.8624 33.6734 40.1876C33.5349 40.1439 33.388 40.1338 33.2449 40.1581C33.1017 40.1825 32.9664 40.2406 32.8502 40.3276C32.7319 40.4149 32.6356 40.5286 32.569 40.6597C32.5024 40.7908 32.4673 40.9357 32.4666 41.0827V43.9186C32.4665 44.0006 32.4881 44.0812 32.529 44.1522C32.57 44.2232 32.6289 44.2822 32.6999 44.3232C32.9848 44.4908 33.2007 44.7543 33.3089 45.0666H30.6932C30.8008 44.7547 31.0158 44.4912 31.2999 44.3232C31.3709 44.2822 31.4298 44.2233 31.4708 44.1522C31.5118 44.0812 31.5333 44.0006 31.5332 43.9186V41.0827C31.5328 40.9353 31.4979 40.7901 31.4312 40.6587C31.3646 40.5273 31.2682 40.4132 31.1496 40.3258C31.0335 40.2386 30.8983 40.1805 30.7552 40.1561C30.6121 40.1318 30.4652 40.1419 30.3269 40.1858C28.1489 40.8606 26.6013 42.7937 26.4194 45.0666H25.4903C25.7292 41.6473 28.5727 38.9955 32.0003 38.9955C35.4279 38.9955 38.2714 41.6473 38.5103 45.0666L37.5804 45.0667ZM28.87 36.858C29.1611 36.0334 29.3114 35.1658 29.3148 34.2913L29.7651 34.6852C30.19 35.057 30.7354 35.2621 31.3 35.2624H32.7C33.2651 35.2624 33.8109 35.0573 34.2362 34.6852L34.6866 34.2913C34.69 35.1658 34.8403 36.0334 35.1313 36.858L32 38.0349L28.87 36.858ZM41.9367 40.2591C43.0049 41.3268 43.6666 42.3465 43.6666 44.1291V45.0667H39.4428C39.3894 44.1804 39.1769 43.311 38.8155 42.5L39.3476 42.3945C39.4974 42.3647 39.6375 42.2986 39.7558 42.202C39.8741 42.1053 39.9669 41.9812 40.026 41.8403C40.0851 41.6995 40.1087 41.5463 40.0948 41.3942C40.0809 41.2421 40.0299 41.0957 39.9463 40.968L38.2999 38.44C39.7657 38.9678 41.315 39.6375 41.9366 40.26L41.9367 40.2591ZM39.1652 41.478L38.3579 41.6385C37.7839 40.7023 37.0118 39.9031 36.0959 39.2972L37.0937 38.3L39.1652 41.478ZM35.7552 37.6196C35.936 37.6705 36.1163 37.723 36.2961 37.7773L35.2512 38.8222C34.8164 38.6106 34.3619 38.4423 33.8942 38.3196L35.7552 37.6196ZM26.2646 23.0106L24.7246 22.2415C24.5261 22.1427 24.3593 21.9902 24.243 21.8015C24.1267 21.6127 24.0656 21.3951 24.0666 21.1734C24.064 20.9575 24.1211 20.7451 24.2316 20.5596C24.3421 20.3741 24.5018 20.2228 24.6929 20.1224C25.7466 19.5802 27.8657 18.9333 31.9999 18.9333C36.1342 18.9333 38.2556 19.5801 39.3075 20.1229C39.4984 20.2234 39.6579 20.3746 39.7683 20.56C39.8787 20.7453 39.9358 20.9576 39.9333 21.1734C39.934 21.3953 39.8725 21.6129 39.7558 21.8016C39.6391 21.9904 39.4718 22.1426 39.2729 22.2411L37.7329 23.0101C37.2009 22.487 35.7799 21.7333 31.9999 21.7333C28.22 21.7333 26.799 22.487 26.2646 23.0106ZM37.0988 23.6817L36.746 25.0933C35.1831 25.3958 33.591 25.521 32 25.4667C30.409 25.5208 28.817 25.3956 27.254 25.0933L26.9036 23.6933C27.1663 23.425 28.2438 22.6667 32 22.6667C35.8075 22.6667 36.8631 23.446 37.0988 23.6817ZM27.8121 31.7354C27.6618 31.6041 27.5414 31.4422 27.4588 31.2605C27.3762 31.0789 27.3334 30.8817 27.3333 30.6821V29.6625C27.3333 29.4047 27.1243 29.1958 26.8666 29.1958C26.1849 29.2015 25.5994 28.7125 25.4836 28.0407C25.3677 27.3689 25.7557 26.7121 26.3999 26.4892V27.3292C26.3999 27.5869 26.6089 27.7958 26.8666 27.7958C27.1243 27.7958 27.3332 27.5869 27.3332 27.3292V26.0654C28.8747 26.3244 30.4373 26.4364 31.9999 26.4001C33.5625 26.4364 35.1251 26.3244 36.6666 26.0654V27.3292C36.6666 27.5869 36.8755 27.7958 37.1332 27.7958C37.3909 27.7958 37.5999 27.5869 37.5999 27.3292V26.4892C38.2441 26.7121 38.6321 27.3689 38.5162 28.0407C38.4004 28.7125 37.8149 29.2016 37.1332 29.1958C36.8755 29.1958 36.6665 29.4047 36.6665 29.6625V30.6821C36.6665 30.8816 36.6239 31.0787 36.5415 31.2604C36.459 31.442 36.3388 31.604 36.1887 31.7354L33.622 33.9824C33.3668 34.2058 33.0391 34.3291 32.6999 34.3291H31.2999C30.9606 34.3291 30.633 34.2058 30.3777 33.9824L27.8121 31.7354ZM30.1067 38.3196C29.639 38.4423 29.1845 38.6106 28.7497 38.8222L27.7039 37.7773C27.8837 37.723 28.064 37.6704 28.2448 37.6196L30.1067 38.3196Z" fill="black"/>
</svg>
