<svg width="64" height="64" viewBox="0 0 64 64" fill="none" xmlns="http://www.w3.org/2000/svg">
<circle cx="32" cy="32" r="32" fill="#DDE0FF"/>
<path d="M41.94 28.6871C42.7363 27.9072 43.2 26.8418 43.2 25.7C43.2 23.3842 41.316 21.5 39 21.5C38.2348 21.5 37.482 21.7103 36.8221 22.1084C36.7161 22.1724 36.6399 22.2758 36.6102 22.396C36.5804 22.5161 36.5996 22.6432 36.6635 22.7492C36.7965 22.97 37.0836 23.0404 37.3043 22.9078C37.8188 22.5974 38.4048 22.4334 39 22.4334C40.801 22.4334 42.2666 23.8988 42.2666 25.7C42.2666 26.8092 41.7111 27.8317 40.7787 28.4364C39.9958 28.95 39.0032 29.0981 38.0967 28.8399C37.8516 28.7693 37.5909 28.9124 37.5198 29.1603C37.4858 29.2794 37.5006 29.407 37.5607 29.5152C37.6209 29.6234 37.7216 29.7033 37.8406 29.7372C38.2176 29.8452 38.6079 29.8999 39 29.8999C39.7338 29.8999 40.4431 29.6998 41.0728 29.3383C43.4685 30.2064 45.0666 32.4682 45.0666 35.0333V37.3666H40.8113C40.4808 34.2497 38.5198 31.5221 35.6595 30.2269C36.5697 29.3002 37.1333 28.0319 37.1333 26.6334C37.1334 23.8028 34.8305 21.5 32 21.5C29.1695 21.5 26.8666 23.8028 26.8666 26.6334C26.8666 28.0323 27.4306 29.301 28.3413 30.2279C27.3787 30.6652 26.4859 31.277 25.7287 32.0299C24.2771 33.4856 23.3938 35.354 23.1842 37.3668H18.9334V35.0334C18.9334 33.4174 19.5646 31.8937 20.7089 30.7445C21.3388 30.1186 22.1058 29.6411 22.9316 29.3409C23.5614 29.7009 24.2686 29.9 25 29.9C25.3919 29.9 25.782 29.8453 26.1594 29.7373C26.2784 29.7033 26.379 29.6234 26.4392 29.5152C26.4994 29.407 26.5141 29.2794 26.4802 29.1604C26.4091 28.9125 26.1484 28.7696 25.9033 28.84C24.9973 29.0986 24.0052 28.9507 23.219 28.4353C22.2889 27.8317 21.7334 26.8093 21.7334 25.7C21.7334 23.8988 23.199 22.4334 25 22.4334C25.5952 22.4334 26.1812 22.5974 26.6957 22.9078C26.8018 22.9715 26.9288 22.9905 27.0489 22.9608C27.169 22.9311 27.2724 22.855 27.3365 22.7492C27.4696 22.5284 27.3985 22.2417 27.1779 22.1084C26.518 21.7103 25.7652 21.5 25 21.5C22.684 21.5 20.8 23.3842 20.8 25.7C20.8 26.8409 21.2629 27.9055 22.0569 28.6847C21.3117 29.0316 20.6324 29.5051 20.049 30.0841C18.7278 31.4112 18 33.1687 18 35.0334V37.8334C18 37.8946 18.012 37.9553 18.0355 38.012C18.0589 38.0686 18.0933 38.12 18.1366 38.1634C18.18 38.2067 18.2314 38.2411 18.288 38.2645C18.3447 38.288 18.4054 38.3 18.4666 38.3H23.1333V42.0334C23.1333 42.0946 23.1453 42.1553 23.1688 42.212C23.1922 42.2686 23.2266 42.32 23.2699 42.3634C23.3133 42.4067 23.3647 42.4411 23.4213 42.4645C23.478 42.488 23.5387 42.5 23.5999 42.5H40.3999C40.4612 42.5 40.5219 42.488 40.5785 42.4645C40.6352 42.4411 40.6866 42.4067 40.73 42.3634C40.7733 42.32 40.8077 42.2686 40.8311 42.212C40.8546 42.1553 40.8666 42.0946 40.8666 42.0334V38.3H45.5332C45.5945 38.3 45.6552 38.288 45.7118 38.2645C45.7685 38.2411 45.8199 38.2067 45.8633 38.1634C45.9066 38.12 45.941 38.0686 45.9644 38.012C45.9879 37.9553 45.9999 37.8946 45.9999 37.8334V35.0334C46 32.2741 44.3965 29.8195 41.94 28.6871ZM27.8 26.6334C27.8 24.3176 29.684 22.4334 32 22.4334C34.316 22.4334 36.2 24.3176 36.2 26.6334C36.2 28.9491 34.316 30.8334 32 30.8334C29.684 30.8334 27.8 28.9491 27.8 26.6334ZM39.9334 41.5666H24.0666V38.3C24.0666 36.184 24.8915 34.1914 26.3881 32.6902C27.1766 31.906 28.1324 31.2977 29.1572 30.9042C29.9718 31.4481 30.9491 31.7666 32 31.7666C33.0526 31.7666 34.0317 31.4472 34.847 30.9016C37.8974 32.0736 39.9334 35.0144 39.9334 38.3V41.5666Z" fill="black"/>
</svg>
