<svg width="64" height="64" viewBox="0 0 64 64" fill="none" xmlns="http://www.w3.org/2000/svg">
<circle cx="32" cy="32" r="32" fill="#FFC4B0" fill-opacity="0.8"/>
<path fill-rule="evenodd" clip-rule="evenodd" d="M22.62 34.9906C22.6374 35.0589 22.6683 35.1229 22.711 35.179C22.7536 35.2351 22.8071 35.282 22.8682 35.3169L26.0315 37.1345C26.0711 37.1572 26.1059 37.1876 26.1337 37.2237C26.1616 37.2599 26.1821 37.3012 26.194 37.3453C26.2059 37.3894 26.209 37.4354 26.2032 37.4807C26.1973 37.526 26.1826 37.5697 26.1598 37.6093C26.137 37.6489 26.1067 37.6837 26.0705 37.7115C26.0343 37.7394 25.993 37.7599 25.9489 37.7718C25.9048 37.7837 25.8588 37.7868 25.8135 37.781C25.7682 37.7751 25.7245 37.7604 25.6849 37.7376L22.5216 35.9201C22.3803 35.8402 22.2565 35.7327 22.1576 35.604C22.0587 35.4753 21.9867 35.328 21.9459 35.1708C21.808 34.6607 21.9376 34.1188 22.3478 33.7847L21.3974 30.0325C21.3574 29.8707 21.2578 29.7301 21.1185 29.6387C21.0539 29.5966 20.9817 29.5677 20.9059 29.5537C20.8302 29.5398 20.7524 29.541 20.6771 29.5573C20.5996 29.574 20.5262 29.6058 20.4611 29.6509C20.396 29.696 20.3404 29.7536 20.2976 29.8202C20.1924 29.9827 20.1907 30.1127 20.2178 30.296L21.5484 36.7732C21.5942 36.9979 21.6296 37.1615 21.7452 37.3678C21.8466 37.5458 21.9794 37.704 22.1372 37.8346L25.4564 40.6372C25.5188 40.6899 25.5607 40.7629 25.5746 40.8434H25.5751L25.68 41.4436L29.6269 40.2405L28.5263 37.582C28.3875 37.231 28.1312 36.9392 27.8011 36.7564L23.4707 34.2681C22.9778 33.9849 22.4705 34.4372 22.62 34.9904V34.9906ZM39.6535 28.1592C39.665 28.0681 39.7119 27.9851 39.7841 27.9283C39.8563 27.8715 39.948 27.8455 40.0393 27.856C40.1305 27.8664 40.214 27.9123 40.2716 27.9839C40.3292 28.0555 40.3562 28.1469 40.3468 28.2383C40.1363 30.0625 39.3342 31.7676 38.063 33.0929C36.7918 34.4181 35.1216 35.2906 33.3077 35.5768C31.4938 35.8631 29.6361 35.5474 28.0186 34.6781C26.4011 33.8087 25.1128 32.4336 24.3507 30.7628C24.2486 30.5394 24.1571 30.3135 24.0762 30.085L23.8397 30.587C23.7998 30.6699 23.7288 30.7336 23.6421 30.7643C23.5554 30.795 23.4601 30.7902 23.377 30.751C23.2938 30.7118 23.2295 30.6413 23.1981 30.5548C23.1667 30.4684 23.1707 30.3731 23.2092 30.2896L23.8356 28.9596C23.855 28.9177 23.8825 28.88 23.9165 28.8489C23.9506 28.8177 23.9905 28.7935 24.034 28.7779C24.0774 28.7623 24.1235 28.7554 24.1697 28.7577C24.2158 28.76 24.261 28.7715 24.3026 28.7914L25.6332 29.4181C25.716 29.4581 25.7797 29.5291 25.8103 29.6158C25.841 29.7024 25.8362 29.7977 25.797 29.8808C25.7577 29.9639 25.6872 30.0282 25.6009 30.0596C25.5145 30.091 25.4192 30.0871 25.3357 30.0485L24.6962 29.7474C24.7796 29.9941 24.8756 30.2365 24.9838 30.4734C25.6809 32.0077 26.8618 33.2712 28.3457 34.0702C29.8295 34.8691 31.5344 35.1596 33.199 34.897C34.8637 34.6344 36.3964 33.8332 37.5622 32.6162C38.728 31.3993 39.4626 29.8336 39.6535 28.1592ZM38.3639 25.1404C38.322 25.1213 38.2843 25.0939 38.2529 25.0601C38.2216 25.0262 38.1974 24.9865 38.1815 24.9432C38.1657 24.8998 38.1586 24.8538 38.1607 24.8077C38.1628 24.7617 38.174 24.7165 38.1937 24.6748C38.2133 24.6331 38.2411 24.5957 38.2753 24.5648C38.3095 24.5339 38.3496 24.5101 38.3931 24.4947C38.4366 24.4794 38.4827 24.4728 38.5287 24.4755C38.5747 24.4781 38.6198 24.4898 38.6613 24.51L39.3007 24.8112C39.2174 24.5644 39.1215 24.3221 39.0133 24.0852C38.3161 22.551 37.1352 21.2876 35.6514 20.4887C34.1676 19.6898 32.4628 19.3994 30.7982 19.662C29.1336 19.9246 27.601 20.7258 26.4352 21.9427C25.2694 23.1596 24.5347 24.7251 24.3438 26.3995C24.3324 26.4907 24.2855 26.5737 24.2133 26.6305C24.141 26.6874 24.0493 26.7134 23.958 26.703C23.8667 26.6925 23.7831 26.6465 23.7256 26.5749C23.668 26.5032 23.641 26.4118 23.6505 26.3203C23.861 24.4961 24.6631 22.7909 25.9343 21.4657C27.2054 20.1404 28.8757 19.2679 30.6896 18.9817C32.5035 18.6954 34.3612 19.0111 35.9787 19.8805C37.5963 20.7498 38.8845 22.1251 39.6466 23.7958C39.7487 24.0192 39.8402 24.2452 39.9211 24.4736L40.1576 23.9716C40.1977 23.8891 40.2688 23.8257 40.3553 23.7953C40.4418 23.7648 40.5368 23.7697 40.6198 23.8088C40.7027 23.848 40.7669 23.9182 40.7984 24.0044C40.8299 24.0905 40.8262 24.1856 40.788 24.2691L40.161 25.5999C40.1416 25.6415 40.1141 25.6788 40.0802 25.7098C40.0463 25.7407 40.0066 25.7647 39.9634 25.7803C39.9203 25.7959 39.8744 25.8028 39.8286 25.8007C39.7827 25.7986 39.7377 25.7874 39.6962 25.7679L38.3639 25.1404ZM31.9985 25.3007C31.687 25.3007 31.385 25.4087 31.1442 25.6063C30.9033 25.8039 30.7384 26.079 30.6776 26.3846C30.6168 26.6901 30.6639 27.0073 30.8107 27.2821C30.9576 27.5569 31.1952 27.7723 31.483 27.8915C31.7709 28.0108 32.0912 28.0265 32.3893 27.9361C32.6875 27.8456 32.9451 27.6546 33.1182 27.3955C33.2913 27.1365 33.3692 26.8254 33.3386 26.5153C33.3081 26.2053 33.171 25.9154 32.9507 25.6951C32.8258 25.5699 32.6773 25.4706 32.514 25.4029C32.3506 25.3352 32.1754 25.3005 31.9985 25.3007ZM32.4567 26.1891C32.3507 26.083 32.2112 26.017 32.062 26.0023C31.9128 25.9875 31.7631 26.025 31.6384 26.1083C31.5137 26.1916 31.4217 26.3155 31.3782 26.459C31.3346 26.6025 31.3422 26.7566 31.3995 26.8952C31.4569 27.0337 31.5605 27.1481 31.6928 27.2188C31.825 27.2895 31.9776 27.3121 32.1247 27.2829C32.2718 27.2537 32.4042 27.1743 32.4993 27.0584C32.5944 26.9425 32.6464 26.7972 32.6464 26.6473C32.6465 26.5622 32.6298 26.4779 32.5973 26.3992C32.5647 26.3206 32.517 26.2492 32.4567 26.1891ZM29.6382 28.8514C29.7389 28.7595 29.8499 28.6796 29.969 28.6131C30.228 28.4681 30.5198 28.3918 30.8166 28.3917H33.18C33.4768 28.3918 33.7687 28.468 34.0277 28.6131C34.1468 28.6795 34.2578 28.7595 34.3585 28.8514C34.6429 28.4243 34.806 27.928 34.8306 27.4155C34.8551 26.903 34.7402 26.3934 34.4979 25.9411C34.2557 25.4887 33.8952 25.1106 33.455 24.847C33.0148 24.5834 32.5113 24.4442 31.9982 24.4442C31.4851 24.4442 30.9816 24.5834 30.5414 24.847C30.1011 25.1106 29.7407 25.4887 29.4985 25.9411C29.2562 26.3934 29.1412 26.903 29.1658 27.4155C29.1903 27.928 29.3535 28.4243 29.6378 28.8514L29.6382 28.8514ZM33.9038 29.3796C33.8393 29.3182 33.7674 29.2651 33.6896 29.2217C33.5339 29.1351 33.3585 29.0899 33.1802 29.0905H30.8169C30.6386 29.0899 30.4632 29.1351 30.3074 29.2217C30.2297 29.2651 30.1577 29.3182 30.0933 29.3797C30.6151 29.8529 31.2942 30.115 31.9986 30.115C32.7029 30.115 33.3821 29.8528 33.9038 29.3796ZM31.9985 23.7449C32.8163 23.7449 33.6087 24.0284 34.2408 24.5472C34.8729 25.0659 35.3056 25.7878 35.4652 26.5898C35.6247 27.3919 35.5012 28.2244 35.1158 28.9456C34.7303 29.6667 34.1067 30.2319 33.3512 30.5449C32.5957 30.8578 31.7551 30.8991 30.9726 30.6618C30.1901 30.4244 29.5141 29.923 29.0598 29.2431C28.6055 28.5632 28.401 27.7468 28.4811 26.933C28.5613 26.1192 28.9211 25.3584 29.4993 24.7802C29.8272 24.4515 30.2167 24.1908 30.6456 24.0131C31.0745 23.8355 31.5343 23.7443 31.9985 23.7449ZM31.4382 20.6034H32.5588C32.8056 20.6038 33.0423 20.7021 33.2169 20.8766C33.3914 21.0512 33.4897 21.2878 33.4902 21.5347V21.8596C33.9393 21.9828 34.3713 22.1618 34.7758 22.3925L35.0059 22.1625C35.1807 21.9882 35.4175 21.8904 35.6644 21.8904C35.9112 21.8904 36.148 21.9882 36.3228 22.1625L37.1153 22.9549C37.2895 23.1298 37.3874 23.3666 37.3874 23.6135C37.3874 23.8604 37.2895 24.0972 37.1153 24.2721L36.8856 24.5018C37.1163 24.9063 37.2953 25.3383 37.4185 25.7875H37.7434C37.9903 25.7879 38.2269 25.8862 38.4014 26.0608C38.576 26.2353 38.6743 26.4719 38.6748 26.7188V27.8394C38.6743 28.0863 38.576 28.3229 38.4015 28.4974C38.2269 28.672 37.9903 28.7703 37.7434 28.7708H37.4185C37.2953 29.22 37.1163 29.6519 36.8856 30.0565L37.1153 30.2862C37.2896 30.4611 37.3874 30.6979 37.3874 30.9447C37.3874 31.1916 37.2896 31.4284 37.1153 31.6033L36.323 32.3957C36.1481 32.5699 35.9113 32.6678 35.6644 32.6678C35.4176 32.6678 35.1807 32.5699 35.0059 32.3957L34.7758 32.166C34.3713 32.3967 33.9394 32.5758 33.4902 32.6989V33.0238C33.4897 33.2707 33.3914 33.5073 33.2169 33.6819C33.0423 33.8565 32.8056 33.9547 32.5588 33.9552H31.4382C31.1913 33.9547 30.9548 33.8564 30.7803 33.6818C30.6058 33.5073 30.5075 33.2707 30.5071 33.0239V32.699C30.0578 32.5761 29.6258 32.3971 29.2213 32.1661L28.9914 32.3958C28.8165 32.5701 28.5797 32.6679 28.3328 32.6679C28.0859 32.6679 27.8491 32.5701 27.6742 32.3958L26.8819 31.6034C26.7075 31.4287 26.6097 31.1919 26.6098 30.9451C26.6099 30.6982 26.708 30.4616 26.8826 30.287L27.1119 30.0564C26.8812 29.6518 26.7022 29.2199 26.5791 28.7707H26.2541C26.0072 28.7702 25.7706 28.6719 25.596 28.4974C25.4215 28.3228 25.3232 28.0861 25.3227 27.8393V26.7189C25.3232 26.4721 25.4215 26.2355 25.596 26.0609C25.7706 25.8864 26.0072 25.7881 26.2541 25.7876H26.579C26.7022 25.3384 26.8812 24.9065 27.1119 24.5019L26.8819 24.2722C26.7077 24.0974 26.6098 23.8605 26.6098 23.6137C26.6098 23.3668 26.7077 23.13 26.8819 22.9551L27.6742 22.1625C27.8491 21.9882 28.0859 21.8904 28.3328 21.8904C28.5796 21.8904 28.8164 21.9882 28.9913 22.1625L29.2212 22.3925C29.6258 22.1618 30.0578 21.9828 30.5069 21.8596V21.5347C30.5074 21.2878 30.6056 21.0512 30.7802 20.8767C30.9547 20.7021 31.1913 20.6038 31.4382 20.6034ZM32.5588 21.302C32.6203 21.3025 32.6793 21.3271 32.7228 21.3707C32.7664 21.4142 32.791 21.4731 32.7915 21.5347V22.1316C32.7915 22.2163 32.8223 22.2982 32.8782 22.3619C32.934 22.4256 33.0112 22.4669 33.0952 22.4779C33.6446 22.6032 34.1684 22.8222 34.6437 23.1251C34.7105 23.1677 34.7898 23.1862 34.8685 23.1776C34.9472 23.1689 35.0206 23.1337 35.0766 23.0777L35.4999 22.6567C35.5437 22.6134 35.6028 22.5892 35.6644 22.5892C35.726 22.5892 35.7851 22.6134 35.8289 22.6567L36.6211 23.4489C36.6643 23.4928 36.6886 23.5519 36.6886 23.6135C36.6886 23.675 36.6643 23.7342 36.6211 23.778L36.1989 24.2002C36.139 24.2602 36.1029 24.3399 36.0974 24.4246C36.0919 24.5092 36.1173 24.5929 36.169 24.6602C36.4689 25.1371 36.6845 25.662 36.8063 26.212C36.8234 26.2894 36.8664 26.3587 36.9282 26.4083C36.9899 26.4579 37.0668 26.485 37.1461 26.485L37.743 26.4864C37.8045 26.4868 37.8635 26.5114 37.907 26.555C37.9505 26.5985 37.9752 26.6574 37.9757 26.7189V27.8395C37.9752 27.9011 37.9506 27.9601 37.907 28.0036C37.8635 28.0472 37.8046 28.0718 37.743 28.0722H37.1461C37.0614 28.0723 36.9795 28.1031 36.9158 28.1589C36.8521 28.2148 36.8108 28.292 36.7997 28.376C36.6745 28.9254 36.4556 29.4492 36.1526 29.9245C36.1101 29.9913 36.0916 30.0706 36.1002 30.1493C36.1088 30.228 36.144 30.3014 36.2 30.3575L36.6211 30.7806C36.6643 30.8245 36.6885 30.8836 36.6885 30.9452C36.6885 31.0067 36.6643 31.0658 36.6211 31.1097L35.8287 31.9021C35.7849 31.9453 35.7258 31.9695 35.6642 31.9695C35.6026 31.9695 35.5434 31.9453 35.4996 31.9021L35.0773 31.4799C35.0174 31.4199 34.9376 31.3838 34.853 31.3783C34.7683 31.3728 34.6846 31.3983 34.6174 31.45C34.1404 31.7498 33.6155 31.9654 33.0655 32.0872C32.9882 32.1044 32.9192 32.1474 32.8696 32.2092C32.8201 32.2709 32.7931 32.3476 32.793 32.4268L32.7917 33.0237C32.7912 33.0853 32.7666 33.1442 32.723 33.1877C32.6795 33.2313 32.6206 33.2559 32.559 33.2563H31.4382C31.3766 33.2559 31.3177 33.2312 31.2742 33.1877C31.2307 33.1442 31.206 33.0853 31.2056 33.0237V32.4268C31.2056 32.342 31.1748 32.2602 31.1189 32.1965C31.063 32.1328 30.9859 32.0915 30.9019 32.0804C30.3525 31.9549 29.8286 31.7361 29.3531 31.4335C29.2864 31.3909 29.2071 31.3724 29.1284 31.3811C29.0497 31.3897 28.9762 31.4249 28.9202 31.4809L28.4971 31.902C28.4532 31.9452 28.3941 31.9694 28.3325 31.9694C28.2709 31.9694 28.2118 31.9452 28.168 31.902L27.3756 31.1095C27.3541 31.0879 27.337 31.0623 27.3255 31.034C27.3139 31.0058 27.3081 30.9756 27.3082 30.9451C27.3077 30.8834 27.3317 30.8239 27.3749 30.7798L27.7978 30.3583C27.8578 30.2983 27.8939 30.2186 27.8994 30.1339C27.9049 30.0493 27.8794 29.9656 27.8277 29.8983C27.5279 29.4214 27.3123 28.8964 27.1904 28.3464C27.1733 28.2691 27.1303 28.1998 27.0685 28.1502C27.0068 28.1006 26.9299 28.0735 26.8506 28.0734L26.2537 28.0721C26.1922 28.0717 26.1332 28.047 26.0897 28.0035C26.0462 27.9599 26.0215 27.901 26.0211 27.8394V26.7189C26.0215 26.6574 26.0462 26.5985 26.0897 26.555C26.1333 26.5114 26.1922 26.4868 26.2537 26.4864H26.8506C26.9354 26.4864 27.0173 26.4555 27.081 26.3997C27.1447 26.3438 27.1859 26.2667 27.197 26.1826C27.3224 25.6332 27.5413 25.1094 27.8442 24.6341C27.8868 24.5673 27.9052 24.488 27.8966 24.4093C27.888 24.3306 27.8528 24.2572 27.7968 24.2012L27.3758 23.778C27.3326 23.7341 27.3084 23.675 27.3084 23.6135C27.3084 23.5519 27.3326 23.4928 27.3758 23.4489L28.1682 22.6565C28.212 22.6133 28.2711 22.589 28.3327 22.589C28.3943 22.589 28.4534 22.6133 28.4972 22.6565L28.9195 23.0787C28.9795 23.1387 29.0592 23.1748 29.1438 23.1803C29.2285 23.1858 29.3122 23.1603 29.3794 23.1086C29.8563 22.8088 30.3813 22.5932 30.9313 22.4714C31.0086 22.4543 31.0779 22.4113 31.1275 22.3495C31.1771 22.2877 31.2042 22.2108 31.2043 22.1316L31.2056 21.5347C31.206 21.4731 31.2307 21.4142 31.2742 21.3707C31.3177 21.3272 31.3766 21.3025 31.4382 21.302H32.5588ZM32.8328 42.5669L38.6551 44.342L39.2319 42.4498L33.4096 40.6749L32.8328 42.5671V42.5669ZM38.7854 45.1092C38.8291 45.1225 38.8751 45.127 38.9205 45.1225C38.966 45.118 39.0102 45.1046 39.0504 45.0831C39.0907 45.0616 39.1264 45.0323 39.1554 44.997C39.1844 44.9616 39.2061 44.9209 39.2194 44.8772L39.9991 42.3195C40.0124 42.2758 40.0169 42.2299 40.0124 42.1844C40.0079 42.1389 39.9945 42.0948 39.973 42.0545C39.9515 42.0142 39.9222 41.9786 39.8869 41.9496C39.8516 41.9206 39.8109 41.8989 39.7672 41.8856L38.99 41.6486L39.088 41.0875L42.3103 38.3668C42.7598 37.9967 43.0541 37.4714 43.135 36.8948L44.4591 30.4455C44.5536 30.1254 44.4617 29.7162 44.2833 29.4407C44.192 29.2977 44.0732 29.1741 43.9339 29.0772C43.7946 28.9803 43.6375 28.9119 43.4716 28.876C43.3057 28.8401 43.1344 28.8374 42.9675 28.868C42.8006 28.8986 42.6414 28.962 42.499 29.0544C42.2118 29.2417 42.006 29.5306 41.9228 29.8633L41.0007 33.5041C40.7167 33.4656 40.428 33.5224 40.1798 33.6655L35.8493 36.1537C35.385 36.4129 35.024 36.8238 34.8267 37.3175L33.7008 40.0362L33.2791 39.9076C33.1908 39.8808 33.0955 39.8902 33.0141 39.9337C32.9327 39.9772 32.872 40.0513 32.8452 40.1396L32.0656 42.6971C32.0389 42.7854 32.0483 42.8807 32.0918 42.9621C32.1353 43.0435 32.2094 43.1042 32.2977 43.131L38.7856 45.109L38.7854 45.1092ZM34.3702 40.2402L38.3171 41.4433L38.4225 40.8432C38.4364 40.7627 38.4783 40.6897 38.5408 40.6371L41.8602 37.8346C42.1803 37.5734 42.3892 37.2003 42.4446 36.7909C42.4487 36.7915 43.6535 30.8838 43.7829 30.2742C43.7995 30.1967 43.8007 30.1167 43.7864 30.0387C43.772 29.9608 43.7424 29.8864 43.6993 29.8199C43.6574 29.7539 43.603 29.6968 43.539 29.652C43.475 29.6071 43.4028 29.5753 43.3265 29.5585C43.2503 29.5416 43.1714 29.54 43.0945 29.5537C43.0175 29.5674 42.9441 29.5962 42.8783 29.6384C42.7391 29.7298 42.6394 29.8704 42.5994 30.0321L41.649 33.7843C42.0592 34.1184 42.1887 34.6602 42.0509 35.1704C42.0101 35.3275 41.9381 35.4748 41.8392 35.6035C41.7403 35.7322 41.6165 35.8397 41.4752 35.9196L38.3119 37.7372C38.2723 37.7599 38.2286 37.7747 38.1833 37.7805C38.138 37.7864 38.092 37.7833 38.0479 37.7714C37.9588 37.7473 37.883 37.6889 37.837 37.6089C37.791 37.5289 37.7787 37.4339 37.8028 37.3449C37.8268 37.2558 37.8853 37.18 37.9653 37.134L41.1286 35.3165C41.7602 34.9536 41.237 33.8595 40.5262 34.2678L36.1958 36.7561C35.8657 36.9389 35.6094 37.2306 35.4706 37.5814L34.37 40.2399L34.3702 40.2402ZM24.7652 42.4499L30.5874 40.6749L31.1643 42.5671L25.342 44.342L24.7652 42.4498V42.4499ZM25.0071 41.6486L24.909 41.0875L21.6868 38.3668C21.2373 37.9967 20.943 37.4714 20.862 36.8948C20.419 34.7371 19.987 32.5738 19.5319 30.4191C19.4609 30.0817 19.5263 29.7299 19.7138 29.4406C19.9013 29.1513 20.1957 28.9479 20.5327 28.8748C20.6975 28.8394 20.8677 28.8371 21.0334 28.8679C21.1991 28.8987 21.3571 28.9622 21.4981 29.0545C21.7853 29.2418 21.991 29.5307 22.0742 29.8633L22.9964 33.5041C23.2803 33.4656 23.569 33.5224 23.8173 33.6655L28.1477 36.1537C28.6119 36.4129 28.973 36.8238 29.1704 37.3175L30.2961 40.0367L30.7179 39.9081C30.8062 39.8813 30.9015 39.8907 30.9829 39.9342C31.0642 39.9778 31.125 40.0518 31.1518 40.1401L31.9315 42.6971C31.9448 42.7408 31.9493 42.7867 31.9448 42.8322C31.9403 42.8777 31.9269 42.9218 31.9054 42.9621C31.8838 43.0024 31.8546 43.0381 31.8192 43.0671C31.7839 43.096 31.7432 43.1178 31.6995 43.131L25.2117 45.1092C25.1679 45.1225 25.122 45.127 25.0765 45.1225C25.0311 45.118 24.9869 45.1047 24.9466 45.0831C24.9063 45.0616 24.8707 45.0323 24.8417 44.997C24.8127 44.9616 24.791 44.9209 24.7777 44.8772L23.9979 42.3195C23.9711 42.2312 23.9805 42.1359 24.024 42.0545C24.0675 41.9732 24.1416 41.9124 24.2299 41.8856L25.0071 41.6486Z" fill="black"/>
</svg>
