<svg xmlns="http://www.w3.org/2000/svg" width="41" height="40" viewBox="0 0 41 40" fill="none">
  <path d="M0.537463 30.3961L9.91246 39.7711C9.98498 39.8437 10.0711 39.9012 10.1659 39.9405C10.2606 39.9798 10.3622 40 10.4648 40C10.5674 40 10.669 39.9798 10.7637 39.9405C10.8585 39.9012 10.9446 39.8437 11.0172 39.7711L16.1734 34.6148C16.246 34.5423 16.3035 34.4562 16.3428 34.3614C16.3821 34.2667 16.4023 34.1651 16.4023 34.0625C16.4023 33.9599 16.3821 33.8583 16.3428 33.7636C16.3035 33.6688 16.246 33.5827 16.1734 33.5102L15.9445 33.2812H27.2062C28.1953 33.2812 29.1391 32.9105 29.867 32.2348L39.3448 23.352C40.2521 22.5095 40.5527 21.1709 40.0925 20.0216C39.9291 19.6116 39.6774 19.2426 39.3554 18.9408C39.0334 18.6389 38.6488 18.4117 38.2291 18.2752C37.8097 18.1374 37.3651 18.0937 36.927 18.1472C36.4888 18.2006 36.0677 18.3498 35.6937 18.5843C35.6888 18.5873 33.5895 19.9649 33.5895 19.9649C33.5752 15.73 31.0157 11.214 27.4924 9.18094C27.6982 8.94416 27.8546 8.66856 27.9523 8.37039C28.3554 7.14383 27.6853 5.81633 26.457 5.41078C26.4185 5.39797 26.38 5.38664 26.3416 5.37477L28.3527 1.76211C28.4098 1.65956 28.4431 1.54544 28.4501 1.42824C28.457 1.31105 28.4374 1.1938 28.3927 1.08523C28.3481 0.976595 28.2796 0.879415 28.1923 0.800943C28.105 0.722471 28.001 0.664732 27.8882 0.632031C26.4463 0.212734 24.9475 0 23.4336 0C21.9199 0 20.4209 0.212734 18.9789 0.631719C18.8661 0.664456 18.7621 0.72221 18.6747 0.800681C18.5874 0.879153 18.5188 0.976322 18.4742 1.08496C18.4295 1.19359 18.41 1.31089 18.4169 1.42813C18.4239 1.54537 18.4572 1.65953 18.5144 1.76211L20.5255 5.37477C20.4864 5.38695 20.4474 5.39859 20.4083 5.41141C19.1818 5.81633 18.512 7.14352 18.9151 8.37094C19.0134 8.66887 19.1704 8.94408 19.3768 9.18031C15.8011 11.2436 13.2773 15.8059 13.2773 20C13.2773 20.1145 13.28 20.2273 13.2837 20.3394C11.8845 20.7211 10.5836 21.4166 9.48949 22.3745L7.1152 24.4519L6.7984 24.1352C6.72588 24.0626 6.63977 24.005 6.545 23.9658C6.45022 23.9265 6.34864 23.9063 6.24606 23.9063C6.14347 23.9063 6.04189 23.9265 5.94711 23.9658C5.85234 24.005 5.76623 24.0626 5.69371 24.1352L0.537463 29.2914C0.464905 29.3639 0.407346 29.45 0.368076 29.5448C0.328806 29.6396 0.308594 29.7412 0.308594 29.8438C0.308594 29.9463 0.328806 30.0479 0.368076 30.1427C0.407346 30.2375 0.464905 30.3236 0.537463 30.3961ZM20.3736 1.88937C21.3746 1.67203 22.4 1.5625 23.4336 1.5625C24.4671 1.5625 25.4925 1.67203 26.4939 1.88937L24.7529 5.01641C23.8777 4.89403 22.9897 4.89403 22.1146 5.01641L20.3736 1.88937ZM20.8961 6.89578C22.4992 6.37117 24.2468 6.33148 25.9689 6.89516C26.3788 7.03031 26.6025 7.47344 26.4679 7.88242C26.4196 8.03124 26.3275 8.162 26.2036 8.25756C26.0797 8.35313 25.9298 8.40904 25.7736 8.41797C24.2331 7.92812 22.633 7.92727 21.0932 8.41641H21.0929C20.7718 8.39633 20.4993 8.18633 20.3992 7.88266C20.2646 7.47312 20.4882 7.03 20.8961 6.89578ZM21.3281 9.98563C22.6828 9.49766 24.0863 9.48609 25.4443 9.95273C29.0742 11.2008 32.0273 15.708 32.0273 20C32.0273 20.3638 32.0044 20.7105 31.9593 21.0345L28.204 23.4982C27.6229 22.7781 26.7417 22.3438 25.7773 22.3438H24.2148V21.4282C25.1242 21.1056 25.7773 20.2371 25.7773 19.2188C25.7773 17.9263 24.726 16.875 23.4336 16.875C23.0029 16.875 22.6523 16.5247 22.6523 16.0938C22.6523 15.6628 23.0029 15.3125 23.4336 15.3125C23.7104 15.3125 24.0024 15.4538 24.2786 15.7209C24.5887 16.0209 25.0833 16.0126 25.3833 15.7029C25.6833 15.3927 25.675 14.898 25.365 14.598C24.9686 14.2141 24.5718 13.9973 24.2148 13.8787V12.9688C24.2148 12.5373 23.865 12.1875 23.4336 12.1875C23.0021 12.1875 22.6523 12.5373 22.6523 12.9688V13.8843C21.7432 14.2069 21.0898 15.0754 21.0898 16.0938C21.0898 17.3862 22.1411 18.4375 23.4336 18.4375C23.8645 18.4375 24.2148 18.7878 24.2148 19.2188C24.2148 19.6497 23.8645 20 23.4336 20C23.0997 20 22.7396 19.79 22.4192 19.4089C22.1414 19.0787 21.6486 19.0359 21.3184 19.3136C20.9882 19.5914 20.9454 20.0842 21.2232 20.4144C21.6407 20.9112 22.132 21.2573 22.6523 21.4319V22.3438H22.3923C22.0084 22.3438 21.836 22.0935 21.5656 21.9187C19.9148 20.6815 17.8703 20 15.8078 20C15.4853 20 15.1621 20.0168 14.8404 20.0495C14.8404 20.033 14.8398 20.0168 14.8398 20C14.8398 15.7681 17.7506 11.2759 21.3281 9.98563ZM10.5186 23.5501C11.9864 22.2647 13.8726 21.5625 15.8078 21.5625C17.5344 21.5625 19.2461 22.1328 20.6274 23.1684C20.8266 23.2849 21.3814 23.9062 22.3919 23.9062H25.7773C26.6666 23.9062 27.3398 24.6292 27.3398 25.4688C27.3398 26.3302 26.6388 27.0312 25.7773 27.0312H20.3086C19.8771 27.0312 19.5273 27.381 19.5273 27.8125C19.5273 28.244 19.8771 28.5938 20.3086 28.5938H25.7773C27.5004 28.5938 28.9023 27.1918 28.9023 25.4688C28.9023 25.2896 28.8864 25.1129 28.8565 24.939L36.5284 19.9054C36.7082 19.7941 36.9101 19.7234 37.1201 19.6983C37.33 19.6732 37.5429 19.6943 37.7439 19.7601C37.9461 19.826 38.1314 19.9356 38.2865 20.0811C38.4417 20.2266 38.5629 20.4045 38.6417 20.6021C38.8672 21.1648 38.7256 21.7951 38.2789 22.2098L28.8013 31.0922C28.3681 31.4955 27.798 31.7194 27.2061 31.7188H14.3821L8.2227 25.5591L10.5186 23.5501ZM6.24613 25.7923L14.5164 34.0625L10.4648 38.1141L2.19449 29.8438L6.24613 25.7923Z" fill="black"/>
</svg>