<svg xmlns="http://www.w3.org/2000/svg" width="40" height="40" viewBox="0 0 40 40" fill="none">
  <path d="M37.4918 13.579C37.4899 13.495 37.4713 13.4122 37.437 13.3355C37.4027 13.2588 37.3535 13.1897 37.2923 13.1322C37.231 13.0747 37.1589 13.03 37.0802 13.0007C37.0014 12.9714 36.9176 12.958 36.8337 12.9615L27.1368 13.6052C26.9743 13.62 26.824 13.6977 26.718 13.8217C26.6121 13.9458 26.5588 14.1064 26.5697 14.2692C26.5805 14.432 26.6546 14.5842 26.7761 14.6931C26.8976 14.802 27.0569 14.859 27.2199 14.8521L35.4493 14.3058C19.3899 33.1915 3.3362 32.2165 3.1737 32.2021C3.00835 32.1891 2.84461 32.2423 2.71849 32.35C2.59237 32.4577 2.51421 32.6111 2.5012 32.7765C2.48818 32.9418 2.54139 33.1056 2.6491 33.2317C2.75682 33.3578 2.91023 33.436 3.07557 33.449C7.75557 33.4646 20.8999 32.7665 36.1256 15.449L35.6081 23.2402C35.6027 23.3221 35.6134 23.4043 35.6398 23.4821C35.6661 23.5598 35.7075 23.6316 35.7616 23.6934C35.8157 23.7551 35.8814 23.8056 35.955 23.8419C36.0286 23.8783 36.1087 23.8998 36.1906 23.9052C36.356 23.9162 36.519 23.8609 36.6437 23.7517C36.7684 23.6424 36.8446 23.4881 36.8556 23.3227C36.8331 23.2665 37.5306 13.6252 37.4918 13.579Z" fill="black"/>
  <path d="M13.5625 24.8997C15.9976 24.8965 18.332 23.9274 20.0534 22.2049C21.7747 20.4824 22.7423 18.1473 22.7437 15.7122C22.2394 3.52844 4.87625 3.53844 4.375 15.7122C4.37682 18.1483 5.34537 20.4841 7.06797 22.2067C8.79056 23.9293 11.1264 24.8979 13.5625 24.8997ZM13.5625 16.3372C12.9074 16.3321 12.2766 16.0881 11.7886 15.6509C11.3007 15.2138 10.9891 14.6135 10.9124 13.9629C10.8356 13.3122 10.999 12.6559 11.3719 12.1172C11.7448 11.5785 12.3015 11.1945 12.9375 11.0372V9.72469C12.9375 9.55893 13.0033 9.39996 13.1206 9.28275C13.2378 9.16554 13.3967 9.09969 13.5625 9.09969C13.7283 9.09969 13.8872 9.16554 14.0044 9.28275C14.1217 9.39996 14.1875 9.55893 14.1875 9.72469V11.0372C14.7743 11.1786 15.2965 11.513 15.6705 11.9868C16.0445 12.4605 16.2486 13.0461 16.25 13.6497C16.25 13.8154 16.1842 13.9744 16.0669 14.0916C15.9497 14.2088 15.7908 14.2747 15.625 14.2747C15.4592 14.2747 15.3003 14.2088 15.1831 14.0916C15.0658 13.9744 15 13.8154 15 13.6497C15.0006 13.3648 14.9167 13.086 14.7589 12.8488C14.6012 12.6115 14.3766 12.4264 14.1136 12.3168C13.8506 12.2072 13.561 12.178 13.2814 12.233C13.0018 12.288 12.7448 12.4246 12.5429 12.6257C12.341 12.8267 12.2032 13.0831 12.147 13.3625C12.0909 13.6418 12.1188 13.9315 12.2272 14.195C12.3357 14.4585 12.5198 14.6839 12.7564 14.8427C12.993 15.0015 13.2713 15.0866 13.5563 15.0872C14.2156 15.0872 14.8521 15.329 15.3451 15.7669C15.8381 16.2048 16.1534 16.8083 16.2312 17.4631C16.309 18.1179 16.144 18.7785 15.7673 19.3197C15.3906 19.8609 14.8285 20.2452 14.1875 20.3997V21.7059C14.1875 21.8717 14.1217 22.0307 14.0044 22.1479C13.8872 22.2651 13.7283 22.3309 13.5625 22.3309C13.3967 22.3309 13.2378 22.2651 13.1206 22.1479C13.0033 22.0307 12.9375 21.8717 12.9375 21.7059V20.3997C12.349 20.2606 11.8246 19.927 11.4492 19.4529C11.0738 18.9788 10.8693 18.3919 10.8687 17.7872C10.8683 17.7051 10.8841 17.6238 10.9151 17.5478C10.9462 17.4718 10.9919 17.4027 11.0496 17.3443C11.1073 17.286 11.176 17.2396 11.2517 17.2078C11.3274 17.176 11.4085 17.1595 11.4906 17.1591C11.5727 17.1587 11.6541 17.1744 11.73 17.2054C11.806 17.2365 11.8752 17.2822 11.9335 17.3399C11.9918 17.3977 12.0382 17.4663 12.07 17.542C12.1018 17.6177 12.1183 17.6989 12.1187 17.7809C12.1187 18.0665 12.2034 18.3456 12.3621 18.583C12.5207 18.8205 12.7462 19.0055 13.01 19.1148C13.2738 19.2241 13.5641 19.2527 13.8442 19.1969C14.1242 19.1412 14.3815 19.0037 14.5834 18.8018C14.7853 18.5999 14.9228 18.3427 14.9785 18.0626C15.0342 17.7825 15.0056 17.4922 14.8964 17.2284C14.7871 16.9646 14.602 16.7391 14.3646 16.5805C14.1272 16.4219 13.848 16.3372 13.5625 16.3372Z" fill="black"/>
</svg>