<svg width="18" height="19" viewBox="0 0 18 19" fill="none" xmlns="http://www.w3.org/2000/svg">
<path fill-rule="evenodd" clip-rule="evenodd" d="M17.4599 12.0951C17.3478 10.1783 16.5851 8.61753 15.2542 7.58159C13.7935 6.44451 11.7817 6.0499 9.58982 6.47039C9.53319 6.48126 9.48171 6.51047 9.44334 6.55351C9.40497 6.59655 9.38184 6.65103 9.37752 6.70853C9.37321 6.76603 9.38794 6.82335 9.41945 6.87164C9.45096 6.91993 9.4975 6.9565 9.55187 6.9757C12.0266 7.84945 13.5899 9.87021 13.6319 12.2495C13.6751 14.7073 12.1427 16.8472 9.63283 17.8339C9.5808 17.8544 9.53667 17.8909 9.50686 17.9382C9.47704 17.9855 9.46311 18.0411 9.46709 18.0969C9.47107 18.1526 9.49276 18.2057 9.52898 18.2483C9.56521 18.2908 9.61408 18.3208 9.66849 18.3336C10.2037 18.4612 10.7519 18.5261 11.3021 18.5271C12.8077 18.5271 14.2346 18.0271 15.369 17.0745C16.8121 15.8626 17.5743 14.0478 17.4601 12.0951H17.4599ZM12.2756 12.0414C11.9366 14.155 10.72 15.9007 8.93769 16.831C8.10326 17.2672 7.17553 17.4947 6.23394 17.494C5.29905 17.4904 4.37708 17.2755 3.53702 16.8652C1.80793 16.0306 0.655967 14.7303 0.205817 13.105C-0.288246 11.321 0.114054 9.31083 1.33869 7.44479C1.37033 7.39661 1.41695 7.36018 1.47136 7.34113C1.52576 7.32208 1.58492 7.32147 1.63971 7.33938C1.69449 7.3573 1.74186 7.39276 1.77449 7.44027C1.80713 7.48779 1.82321 7.54472 1.82027 7.60229C1.68425 10.2235 2.95618 12.4391 5.13969 13.3852C5.83592 13.6887 6.58716 13.8457 7.34668 13.8464C8.95123 13.8464 10.5507 13.1454 11.8271 11.818C11.8659 11.7777 11.9165 11.7508 11.9716 11.7413C12.0267 11.7317 12.0834 11.74 12.1335 11.765C12.1835 11.7899 12.2243 11.8302 12.2498 11.8799C12.2754 11.9297 12.2844 11.9863 12.2756 12.0415V12.0414ZM9.18088 12.1576C7.13049 11.5426 5.56055 10.1064 4.87363 8.21691C4.22975 6.4459 4.47714 4.49316 5.55238 2.85914C6.60789 1.25515 8.04879 0.284839 9.71934 0.0531265C11.5531 -0.201124 13.4924 0.462889 15.1805 1.92303C15.2241 1.96075 15.2541 2.0118 15.2658 2.06828C15.2775 2.12476 15.2703 2.18352 15.2453 2.23549C15.2202 2.28746 15.1788 2.32974 15.1273 2.35579C15.0759 2.38184 15.0173 2.39022 14.9606 2.37963C12.3806 1.89891 10.0164 2.86735 8.79054 4.9069C7.52417 7.01395 7.78127 9.63321 9.46157 11.7427C9.49638 11.7864 9.51632 11.8401 9.51848 11.896C9.52065 11.9519 9.50493 12.007 9.47361 12.0533C9.44229 12.0996 9.397 12.1346 9.34435 12.1534C9.2917 12.1722 9.23443 12.1737 9.18088 12.1576V12.1576Z" fill="black"/>
</svg>
