<svg xmlns="http://www.w3.org/2000/svg" width="65" height="64" viewBox="0 0 65 64" fill="none">
  <path d="M21.4405 52.5081L16.2376 44.1473L11.5309 45.4614C6.97177 46.742 3.79364 50.9458 3.79364 55.6726V62.6589C3.79364 63.3964 4.39701 63.9999 5.13464 63.9999H26.1741L27.1865 54.7809C25.0733 55.3661 22.6964 54.5333 21.4405 52.5081ZM53.469 45.4546L48.769 44.1405L43.5661 52.5148C42.2843 54.573 39.8228 55.3708 37.8135 54.7743L38.8259 64H59.8653C60.6028 64 61.2063 63.3966 61.2063 62.659V55.6728C61.2064 50.9459 58.0284 46.742 53.469 45.4546Z" fill="#53DD6C"/>
  <path d="M37.7441 51.8409C38.9215 52.6474 40.5343 52.3084 41.2864 51.0966L45.3385 44.5722L39.8351 41.169L32.5073 48.2506H32.4966L31.817 48.715L32.4943 48.2509L25.1673 41.1689L19.6624 44.5721L23.7158 51.0965C24.4679 52.3082 26.0794 52.6471 27.2568 51.8407L27.949 51.3662L30.0293 53.4465L28.9766 63.0209H36.0233L34.9706 53.4532L37.0554 51.3685L37.7441 51.8409ZM16.2444 11.636C16.9753 10.865 18.0145 10.3956 19.1475 10.3956H45.839C46.972 10.3956 48.0113 10.8649 48.7489 11.6426C48.7711 11.5674 49.7246 10.1001 49.0774 8.29036C48.1006 5.54136 45.9193 5.94386 34.099 0.331865C33.5967 0.112973 33.0546 0 32.5066 0C31.9587 0 31.4166 0.112973 30.9143 0.331865C18.9124 6.02736 16.9035 5.55911 15.9293 8.28361C15.2685 10.1314 16.2208 11.5541 16.2444 11.636ZM45.839 13.0776H19.1475C18.5308 13.0776 17.9943 13.4932 17.8468 14.0967C17.4359 15.7506 17.3908 16.8654 17.3908 18.3275C17.3908 19.2662 17.7633 20.1792 18.5889 20.8734C18.9054 31.811 22.5135 35.2491 27.4014 39.4007C28.4648 40.309 29.8174 40.8081 31.2159 40.8084H33.8039C35.2019 40.8083 36.554 40.3095 37.6171 39.4016C42.3925 35.332 46.061 32.031 46.4153 20.8684C47.1426 20.2507 47.6155 19.3327 47.6155 18.2805C47.6155 17.1005 47.6155 15.9941 47.1394 14.09C46.9924 13.4932 46.4559 13.0776 45.839 13.0776ZM35.8764 37.3617C35.2987 37.8553 34.5638 38.1264 33.804 38.1265H31.216C30.4549 38.1263 29.7189 37.8541 29.1408 37.3591C25.2941 34.0945 21.7844 31.4714 21.3006 21.6664H21.4135L24.558 24.717C25.9258 26.0445 27.7294 26.7754 29.6403 26.7754H35.3728C37.2769 26.7754 39.0804 26.0445 40.4481 24.7237L43.606 21.6664H43.701C43.213 31.0509 40.1263 33.7425 35.8764 37.3617Z" fill="#53DD6C"/>
</svg>