<svg xmlns="http://www.w3.org/2000/svg" width="64" height="64" viewBox="0 0 64 64" fill="none">
  <path fill-rule="evenodd" clip-rule="evenodd" d="M8.78162 45.191L15.9836 57.9165C16.3319 58.5318 16.1134 59.3201 15.498 59.6684L13.0483 61.0548C12.433 61.403 11.6446 61.1845 11.2964 60.5691L4.09438 47.8438C3.74613 47.2285 3.96462 46.4401 4.58 46.0919L7.02975 44.7055C7.645 44.3573 8.43337 44.5758 8.78162 45.191ZM38.0415 24.4145L41.4984 25.1225L39.7889 21.1535C39.5107 21.2695 39.2475 21.3889 39.1237 21.4774C38.8901 21.7064 38.4041 22.5454 38.2151 22.8344C37.4814 23.9564 36.287 24.6235 35.0114 24.6978L36.1808 27.4128L38.0415 24.4145ZM27.7506 28.498L29.5215 24.6943C28.0521 24.7995 26.62 24.1118 25.7846 22.8345C25.5956 22.5455 25.1096 21.7066 24.876 21.4775C24.8295 21.4443 24.7634 21.4066 24.6841 21.3665L22.5015 26.0544L25.9776 25.447L27.7506 28.498ZM15.342 33.3188C15.2491 33.2259 15.1755 33.1157 15.1252 32.9944C15.075 32.8731 15.0491 32.7431 15.0491 32.6118C15.0491 32.4805 15.075 32.3504 15.1252 32.2291C15.1755 32.1078 15.2491 31.9976 15.342 31.9048C15.4348 31.8119 15.5451 31.7383 15.6664 31.688C15.7877 31.6377 15.9177 31.6119 16.049 31.6119C16.1803 31.6119 16.3103 31.6377 16.4316 31.688C16.5529 31.7383 16.6632 31.8119 16.756 31.9048L21.5034 36.6521C21.5962 36.745 21.6699 36.8552 21.7201 36.9765C21.7704 37.0978 21.7963 37.2278 21.7963 37.3591C21.7963 37.4904 21.7704 37.6205 21.7201 37.7418C21.6699 37.8631 21.5962 37.9733 21.5034 38.0661C21.4105 38.159 21.3003 38.2327 21.179 38.2829C21.0577 38.3332 20.9277 38.359 20.7964 38.359C20.6651 38.359 20.535 38.3332 20.4137 38.2829C20.2924 38.2327 20.1822 38.159 20.0894 38.0661L15.342 33.3188ZM47.2441 31.9048C47.337 31.8119 47.4472 31.7383 47.5685 31.688C47.6898 31.6377 47.8198 31.6119 47.9511 31.6119C48.0824 31.6119 48.2125 31.6377 48.3338 31.688C48.4551 31.7383 48.5653 31.8119 48.6581 31.9048C48.751 31.9976 48.8246 32.1078 48.8749 32.2291C48.9251 32.3504 48.951 32.4805 48.951 32.6118C48.951 32.7431 48.9251 32.8731 48.8749 32.9944C48.8246 33.1157 48.751 33.2259 48.6581 33.3188L43.9108 38.0661C43.8179 38.159 43.7077 38.2327 43.5864 38.2829C43.4651 38.3332 43.3351 38.359 43.2038 38.359C43.0724 38.359 42.9424 38.3332 42.8211 38.2829C42.6998 38.2327 42.5896 38.159 42.4967 38.0661C42.4039 37.9733 42.3302 37.8631 42.28 37.7418C42.2297 37.6205 42.2039 37.4904 42.2039 37.3591C42.2039 37.2278 42.2297 37.0978 42.28 36.9765C42.3302 36.8552 42.4039 36.745 42.4967 36.6521L47.2441 31.9048ZM31 31.6285C31 31.3633 31.1054 31.1089 31.2929 30.9214C31.4804 30.7339 31.7348 30.6285 32 30.6285C32.2652 30.6285 32.5196 30.7339 32.7071 30.9214C32.8946 31.1089 33 31.3633 33 31.6285V38.3423C33 38.6075 32.8946 38.8618 32.7071 39.0494C32.5196 39.2369 32.2652 39.3423 32 39.3423C31.7348 39.3423 31.4804 39.2369 31.2929 39.0494C31.1054 38.8618 31 38.6075 31 38.3423V31.6285ZM9.94788 12.691C14.3374 12.691 17.8956 16.2494 17.8956 20.6389C17.8956 25.0284 14.3372 28.5868 9.94788 28.5868C5.55837 28.5866 2 25.0283 2 20.6388C2 16.2493 5.55837 12.691 9.94788 12.691ZM10.156 15.8246C10.0837 15.6343 9.812 15.6343 9.73962 15.8246L8.67087 18.6398C8.65596 18.6806 8.62922 18.716 8.59406 18.7416C8.5589 18.7671 8.51693 18.7816 8.4735 18.7831L5.46575 18.9298C5.26113 18.9398 5.1775 19.1974 5.33712 19.3258L7.68425 21.2123C7.75475 21.2689 7.78337 21.3569 7.75962 21.4441L6.96975 24.3499C6.916 24.5475 7.13525 24.7068 7.3065 24.5946L9.82588 22.9454C9.86191 22.9211 9.90437 22.9082 9.94781 22.9082C9.99125 22.9082 10.0337 22.9211 10.0697 22.9454L12.5892 24.5946C12.7606 24.7068 12.9797 24.5475 12.926 24.3499L12.136 21.4441C12.1241 21.4024 12.1249 21.358 12.1383 21.3166C12.1517 21.2753 12.1772 21.2389 12.2114 21.2121L14.5585 19.3256C14.7181 19.1974 14.6344 18.9396 14.4299 18.9296L11.4222 18.783C11.3788 18.7814 11.3369 18.7669 11.3017 18.7414C11.2666 18.7159 11.2398 18.6804 11.2249 18.6396L10.156 15.8246ZM54.0522 12.691C58.4417 12.691 62 16.2494 62 20.6389C62 25.0284 58.4416 28.5868 54.0522 28.5868C49.6629 28.5868 46.1044 25.0284 46.1044 20.6389C46.1044 16.2494 49.6628 12.691 54.0522 12.691ZM57.314 17.8376C56.8591 16.7544 56.001 16.1194 55.0522 15.8628V15.6094C55.0522 15.3442 54.9469 15.0898 54.7594 14.9023C54.5718 14.7147 54.3175 14.6094 54.0522 14.6094C53.787 14.6094 53.5327 14.7147 53.3451 14.9023C53.1576 15.0898 53.0522 15.3442 53.0522 15.6094V15.8761C51.6994 16.2534 50.7005 17.3531 50.7715 18.8163C50.8573 20.5848 52.3475 21.3399 53.8993 21.5946C54.486 21.6909 55.5076 21.8903 55.5957 22.6165C55.6019 22.6674 55.605 22.6966 55.6053 22.7053C55.6185 23.2639 54.8276 23.4735 54.395 23.5259C54.2865 23.539 54.1989 23.5463 54.1326 23.5479C53.4429 23.5644 52.6544 23.273 52.4712 22.5384C52.4046 22.2852 52.2411 22.0684 52.016 21.9347C51.7909 21.801 51.5223 21.7611 51.2681 21.8236C51.0139 21.8861 50.7944 22.046 50.657 22.2689C50.5197 22.4918 50.4754 22.7597 50.5337 23.0149C50.847 24.2711 51.8242 25.115 53.0522 25.4181V25.668C53.0522 25.9332 53.1576 26.1876 53.3451 26.3751C53.5327 26.5627 53.787 26.668 54.0522 26.668C54.3175 26.668 54.5718 26.5627 54.7594 26.3751C54.9469 26.1876 55.0522 25.9332 55.0522 25.668V25.4386C56.4404 25.1363 57.6341 24.1973 57.5975 22.6583C57.596 22.566 57.5903 22.4738 57.5802 22.382C57.361 20.5763 55.8177 19.888 54.2197 19.6258C53.7256 19.5446 52.7946 19.358 52.7639 18.7224C52.7371 18.1709 53.2298 17.8619 53.7113 17.7649C54.4304 17.6201 55.1739 17.9049 55.4704 18.611C55.5729 18.8555 55.7684 19.0492 56.0138 19.1496C56.2592 19.2499 56.5344 19.2487 56.7789 19.1461C57.0234 19.0436 57.2171 18.8481 57.3174 18.6027C57.4178 18.3573 57.4166 18.0821 57.314 17.8376ZM33.2741 3.20989C35.2711 4.70464 34.8183 4.53989 37.3089 4.67839C38.2655 4.73164 39.0425 5.38352 39.261 6.31639C39.83 8.74514 39.589 8.32777 41.4077 10.0349C42.1064 10.6905 42.2825 11.6894 41.8503 12.5445C40.7249 14.7708 40.8086 14.2961 41.1046 16.773C41.2184 17.7244 40.7113 18.6028 39.8305 18.9799C37.5375 19.9619 37.9066 19.6521 36.5414 21.7398C36.017 22.5416 35.0639 22.8885 34.1468 22.6113C31.759 21.8896 32.2409 21.8896 29.8531 22.6113C28.936 22.8885 27.9829 22.5415 27.4585 21.7398C26.0931 19.652 26.4624 19.9619 24.1694 18.9799C23.2886 18.6028 22.7815 17.7244 22.8953 16.773C23.1912 14.2963 23.275 14.7708 22.1496 12.5445C21.7174 11.6894 21.8935 10.6906 22.5921 10.0349C24.411 8.32777 24.17 8.74527 24.739 6.31639C24.9575 5.38352 25.7345 4.73152 26.6911 4.67839C29.1818 4.53989 28.7289 4.70464 30.7259 3.20989C31.4929 2.63577 32.5071 2.63577 33.2741 3.20989ZM28.4953 13.6161L30.1271 15.248C30.22 15.3409 30.3302 15.4145 30.4515 15.4648C30.5728 15.515 30.7028 15.5409 30.8341 15.5409C30.9654 15.5409 31.0955 15.515 31.2168 15.4648C31.3381 15.4145 31.4483 15.3409 31.5411 15.248L31.5466 15.2424L35.4695 11.6823C35.5665 11.594 35.6451 11.4876 35.7009 11.369C35.7567 11.2503 35.7886 11.1219 35.7948 10.991C35.8009 10.86 35.7812 10.7291 35.7368 10.6058C35.6924 10.4825 35.6241 10.3691 35.5359 10.2721C35.4476 10.1752 35.3412 10.0966 35.2226 10.0407C35.104 9.98493 34.9755 9.95303 34.8446 9.94687C34.7136 9.94071 34.5827 9.9604 34.4594 10.0048C34.3361 10.0492 34.2227 10.1175 34.1258 10.2058L30.8686 13.1616L29.9091 12.2021C29.8163 12.1093 29.7061 12.0357 29.5848 11.9854C29.4635 11.9352 29.3334 11.9093 29.2021 11.9093C29.0708 11.9093 28.9408 11.9352 28.8195 11.9855C28.6982 12.0357 28.588 12.1094 28.4952 12.2022C28.4024 12.295 28.3287 12.4053 28.2785 12.5266C28.2282 12.6479 28.2024 12.7779 28.2024 12.9092C28.2024 13.0405 28.2283 13.1705 28.2785 13.2918C28.3288 13.4131 28.4024 13.5233 28.4953 13.6161ZM32 6.79152C28.7134 6.79152 26.0491 9.45589 26.0491 12.7425C26.0491 16.0291 28.7134 18.6935 32 18.6935C35.2866 18.6935 37.951 16.0291 37.951 12.7425C37.951 9.45589 35.2866 6.79152 32 6.79152ZM30.2395 48.2548C31.164 48.3674 31.9195 48.1025 32.1775 47.1398C32.4074 46.2818 31.8636 45.4804 31.0576 45.1954C28.2978 44.6884 25.6283 43.7234 23.5282 42.9641C20.5427 41.8848 19.7815 41.6266 16.835 43.3325L11.7079 46.301L16.0567 53.9853L16.1895 53.9086C16.4175 53.7772 16.6884 53.7418 16.9426 53.81L28.9915 57.0354C30.7186 57.4983 31.6894 57.1915 33.2131 56.4138L49.7531 46.2291C50.2385 45.9304 50.4763 45.2288 50.4049 44.5403C50.3469 43.9815 50.0786 43.4748 49.5641 43.2141C48.7277 42.7905 47.2631 42.9241 44.9823 44.2525L35.8293 49.5836C35.0844 50.0174 34.3177 50.2931 33.5215 50.4269C31.2352 50.8109 27.8141 49.7418 25.7625 49.1559C25.1085 48.9691 24.4447 48.7795 23.7997 48.6068C23.6715 48.5743 23.5511 48.5167 23.4453 48.4373C23.3395 48.3579 23.2506 48.2583 23.1836 48.1442C23.1167 48.0301 23.073 47.9039 23.0552 47.7729C23.0375 47.6418 23.0459 47.5085 23.08 47.3807C23.1142 47.253 23.1734 47.1332 23.2541 47.0285C23.3349 46.9238 23.4357 46.8362 23.5506 46.7707C23.6656 46.7053 23.7923 46.6633 23.9236 46.6472C24.0549 46.6312 24.1881 46.6413 24.3154 46.6771C26.2865 47.2051 28.2418 47.8405 30.2395 48.2548ZM7.13013 47.0985C6.9006 47.1321 6.6938 47.2554 6.55522 47.4414C6.41664 47.6275 6.35764 47.8609 6.39119 48.0905C6.42474 48.32 6.54809 48.5268 6.73412 48.6654C6.92014 48.8039 7.1536 48.8629 7.38312 48.8294C7.61265 48.7958 7.81945 48.6725 7.95803 48.4865C8.09661 48.3004 8.15561 48.067 8.12206 47.8375C8.08851 47.6079 7.96516 47.4011 7.77913 47.2625C7.59311 47.124 7.35965 47.065 7.13013 47.0985Z" fill="#53DD6C"/>
</svg>