<svg width="20" height="21" viewBox="0 0 20 21" fill="none" xmlns="http://www.w3.org/2000/svg">
<g clip-path="url(#clip0_607_1945)">
<path d="M1.45801 9.2666H7.70801C8.23616 9.2666 8.66699 9.69743 8.66699 10.2256V18.9756C8.66684 19.5034 8.23611 19.9336 7.70801 19.9336H1.45801C0.930225 19.9334 0.500148 19.5034 0.5 18.9756V10.2256C0.5 9.69749 0.930169 9.26675 1.45801 9.2666ZM12.292 14.2666H18.542C19.0698 14.2667 19.5 14.6975 19.5 15.2256V18.9756C19.4999 19.5034 19.0698 19.9334 18.542 19.9336H12.292C11.7639 19.9336 11.3332 19.5034 11.333 18.9756V15.2256C11.333 14.6974 11.7638 14.2666 12.292 14.2666ZM1.45801 9.5166C1.31734 9.51673 1.18077 9.55886 1.06543 9.63574L0.957031 9.72461C0.824418 9.85741 0.750035 10.0379 0.75 10.2256V18.9756L0.763672 19.1143C0.790921 19.2503 0.857445 19.377 0.957031 19.4766C1.05662 19.5762 1.18325 19.6427 1.31934 19.6699L1.45801 19.6836H7.70801C7.89571 19.6836 8.07619 19.6092 8.20898 19.4766C8.3418 19.3438 8.41682 19.1634 8.41699 18.9756V10.2256C8.41694 10.0847 8.3749 9.94753 8.29785 9.83203L8.20898 9.72461L8.10156 9.63574C7.98606 9.55869 7.8489 9.51665 7.70801 9.5166H1.45801ZM12.292 14.5166C12.1511 14.5167 12.0139 14.5587 11.8984 14.6357L11.791 14.7246C11.6582 14.8574 11.5831 15.0378 11.583 15.2256V18.9756L11.5967 19.1143C11.6239 19.2505 11.6913 19.3769 11.791 19.4766C11.8907 19.5761 12.0171 19.6428 12.1533 19.6699L12.292 19.6836H18.542C18.7297 19.6835 18.9102 19.6093 19.043 19.4766C19.1757 19.3438 19.2499 19.1633 19.25 18.9756V15.2256L19.2363 15.0869C19.2182 14.9959 19.1824 14.9092 19.1309 14.832L19.043 14.7246L18.9346 14.6357C18.8192 14.5589 18.6827 14.5167 18.542 14.5166H12.292ZM12.292 0.933594H18.542C19.0698 0.933742 19.4999 1.36382 19.5 1.8916V10.6416C19.5 11.1697 19.0698 11.6004 18.542 11.6006H12.292C11.7638 11.6006 11.333 11.1698 11.333 10.6416V1.8916C11.3332 1.36376 11.7639 0.933594 12.292 0.933594ZM12.292 1.18359C12.151 1.18362 12.014 1.22561 11.8984 1.30273L11.791 1.39062C11.6582 1.52335 11.5832 1.70384 11.583 1.8916V10.6416C11.5831 10.8294 11.6582 11.0098 11.791 11.1426C11.9238 11.2754 12.1042 11.3505 12.292 11.3506H18.542C18.7298 11.3504 18.9102 11.2754 19.043 11.1426C19.1756 11.0098 19.25 10.8293 19.25 10.6416V1.8916L19.2363 1.75293C19.2182 1.66222 19.1822 1.57599 19.1309 1.49902L19.043 1.39062L18.9346 1.30273C18.8192 1.22578 18.6827 1.1837 18.542 1.18359H12.292ZM1.45801 0.933594H7.70801C8.23611 0.933594 8.66684 1.36376 8.66699 1.8916V5.6416C8.66699 6.16976 8.23616 6.60059 7.70801 6.60059H1.45801C0.930169 6.60044 0.5 6.1697 0.5 5.6416V1.8916C0.500149 1.36382 0.930226 0.933742 1.45801 0.933594ZM1.45801 1.18359C1.2703 1.18373 1.08976 1.2579 0.957031 1.39062C0.824303 1.52335 0.750141 1.7039 0.75 1.8916V5.6416C0.750035 5.82928 0.824415 6.00978 0.957031 6.14258C1.05665 6.24228 1.18314 6.30965 1.31934 6.33691L1.45801 6.35059H7.70801C7.89583 6.35052 8.07618 6.27538 8.20898 6.14258C8.34179 6.00977 8.41692 5.82942 8.41699 5.6416V1.8916L8.40332 1.75293C8.37605 1.61673 8.30868 1.49025 8.20898 1.39062C8.07618 1.25801 7.89569 1.18363 7.70801 1.18359H1.45801Z" fill="black" stroke="black"/>
</g>
<defs>
<clipPath id="clip0_607_1945">
<rect width="20" height="20" fill="white" transform="translate(0 0.433594)"/>
</clipPath>
</defs>
</svg>
