<svg width="24" height="25" viewBox="0 0 24 25" fill="none" xmlns="http://www.w3.org/2000/svg">
<g clip-path="url(#clip0_908_4037)">
<path d="M19.6639 24.4336H4.33105C2.83105 24.429 1.61699 23.2149 1.6123 21.7149V20.5149C1.6123 17.5805 2.84512 14.7821 5.01543 12.8086C5.92012 11.9883 7.26543 11.8758 8.29199 12.5368C9.36543 13.2258 10.6451 13.5915 11.9998 13.5915C13.3545 13.5915 14.6342 13.2258 15.7076 12.5368C16.7342 11.8758 18.0795 11.9883 18.9842 12.8086C21.1545 14.7821 22.392 17.5805 22.3873 20.5149V21.7149C22.3826 23.2196 21.1639 24.4336 19.6639 24.4336ZM6.82949 13.043C6.38887 13.043 5.96699 13.2071 5.64355 13.5024C3.67012 15.2977 2.54512 17.8477 2.54512 20.5149V21.7149C2.5498 22.6993 3.34199 23.4915 4.32637 23.4961H19.6592C20.6436 23.4961 21.4404 22.6993 21.4404 21.7149V20.5149C21.4404 17.8477 20.3154 15.3024 18.342 13.5024C17.7514 12.968 16.8748 12.893 16.2045 13.3243C14.9811 14.1118 13.5232 14.529 11.9904 14.529C10.4576 14.529 8.9998 14.1118 7.77637 13.3243C7.4998 13.1415 7.16699 13.043 6.82949 13.043Z" fill="black"/>
<path d="M12 12.5273C8.6625 12.5227 5.95781 9.81797 5.95312 6.48047C5.95312 3.14766 8.6625 0.433594 12 0.433594C15.3375 0.438281 18.0422 3.14297 18.0469 6.48047C18.0422 9.81328 15.3328 12.5273 12 12.5273ZM12 1.37578C9.17812 1.37578 6.89062 3.66328 6.89062 6.48516C6.89062 9.30703 9.17812 11.5945 12 11.5945C14.8219 11.5945 17.1094 9.30703 17.1094 6.48516C17.1047 3.66328 14.8219 1.37578 12 1.37578Z" fill="black"/>
</g>
<defs>
<clipPath id="clip0_908_4037">
<rect width="24" height="24" fill="white" transform="translate(0 0.433594)"/>
</clipPath>
</defs>
</svg>
