<svg width="24" height="24" viewBox="0 0 24 24" fill="none" xmlns="http://www.w3.org/2000/svg">
<path d="M19.2656 12.3217V10.0781C19.2656 6.80522 17.0901 4.0312 14.1093 3.12516V2.10938C14.1093 0.946266 13.1631 0 12 0C10.8369 0 9.89059 0.946266 9.89059 2.10938V3.12516C6.90981 4.0312 4.73434 6.80517 4.73434 10.0781V12.3217C4.73434 15.1966 3.63849 17.9227 1.6487 19.9977C1.55329 20.0972 1.48922 20.2225 1.46445 20.3581C1.43968 20.4936 1.45531 20.6335 1.50938 20.7603C1.56346 20.887 1.6536 20.9951 1.7686 21.0711C1.8836 21.147 2.01839 21.1875 2.15621 21.1875H8.55507C8.8817 22.7903 10.3022 24 12 24C13.6978 24 15.1182 22.7903 15.4449 21.1875H21.8437C21.9815 21.1875 22.1163 21.147 22.2313 21.071C22.3463 20.9951 22.4364 20.887 22.4905 20.7603C22.5445 20.6335 22.5602 20.4936 22.5354 20.3581C22.5107 20.2225 22.4466 20.0972 22.3512 19.9977C20.3614 17.9227 19.2656 15.1965 19.2656 12.3217ZM11.2968 2.10938C11.2968 1.72167 11.6123 1.40625 12 1.40625C12.3877 1.40625 12.7031 1.72167 12.7031 2.10938V2.84663C12.4717 2.82431 12.2372 2.8125 12 2.8125C11.7628 2.8125 11.5283 2.82431 11.2968 2.84663V2.10938ZM12 22.5938C11.0833 22.5938 10.3018 22.0059 10.0115 21.1875H13.9884C13.6982 22.0059 12.9166 22.5938 12 22.5938ZM3.67168 19.7812C5.27298 17.6348 6.14059 15.0371 6.14059 12.3217V10.0781C6.14059 6.84727 8.7691 4.21875 12 4.21875C15.2308 4.21875 17.8593 6.84727 17.8593 10.0781V12.3217C17.8593 15.0371 18.7269 17.6348 20.3283 19.7812H3.67168ZM21.1406 10.0781C21.1406 10.4664 21.4554 10.7812 21.8437 10.7812C22.232 10.7812 22.5468 10.4664 22.5468 10.0781C22.5468 7.26094 21.4498 4.61236 19.4577 2.62031C19.1832 2.34577 18.738 2.34572 18.4634 2.62031C18.1888 2.89491 18.1888 3.34008 18.4634 3.61467C20.1898 5.34113 21.1406 7.63655 21.1406 10.0781ZM2.15621 10.7812C2.54453 10.7812 2.85934 10.4664 2.85934 10.0781C2.85934 7.63659 3.81015 5.34117 5.53656 3.61472C5.81115 3.34012 5.81115 2.89495 5.53656 2.62036C5.26201 2.34577 4.81679 2.34577 4.5422 2.62036C2.55015 4.61241 1.45309 7.26094 1.45309 10.0781C1.45309 10.4664 1.7679 10.7812 2.15621 10.7812Z" fill="black"/>
</svg>
