<svg width="24" height="23" viewBox="0 0 24 23" fill="none" xmlns="http://www.w3.org/2000/svg">
<path d="M22.0736 9.95325C21.9882 7.34458 20.9103 4.86687 19.0601 3.02588C17.109 1.07438 14.5159 0 11.7589 0C6.1905 0 1.64062 4.43213 1.4445 9.95325C1.01514 10.1434 0.650153 10.4541 0.393767 10.8475C0.137381 11.2409 0.000600255 11.7003 0 12.1699V14.8931C0.000694835 15.5362 0.256461 16.1527 0.71118 16.6074C1.1659 17.0622 1.78243 17.3179 2.4255 17.3186C2.84157 17.3181 3.24046 17.1526 3.53467 16.8584C3.82888 16.5642 3.99438 16.1653 3.99488 15.7493V11.3134C3.99488 10.5008 3.37163 9.83813 2.57925 9.75938C2.87175 4.94925 6.876 1.125 11.7589 1.125C14.2159 1.125 16.5263 2.08275 18.2651 3.82163C19.8619 5.41838 20.7964 7.49963 20.937 9.75975C20.1454 9.83925 19.5233 10.5015 19.5233 11.3134V15.7489C19.5233 16.5683 20.1562 17.235 20.958 17.3044V18.4253C20.9573 19.0322 20.7159 19.6141 20.2867 20.0432C19.8575 20.4723 19.2756 20.7137 18.6686 20.7143H16.9732C16.859 20.381 16.6432 20.0919 16.3562 19.8876C16.0692 19.6833 15.7254 19.574 15.3731 19.575H13.6256C13.3748 19.575 13.134 19.6283 12.9135 19.731C12.6182 19.8674 12.3682 20.0854 12.1927 20.3593C12.0173 20.6332 11.9239 20.9515 11.9235 21.2768C11.9235 21.732 12.1009 22.1595 12.4223 22.4794C12.5798 22.6382 12.7673 22.7641 12.9738 22.8498C13.1804 22.9356 13.402 22.9794 13.6256 22.9789H15.3731C16.0976 22.9789 16.7363 22.5105 16.9744 21.8393H18.6686C20.5515 21.8393 22.083 20.3078 22.083 18.4253V17.1041C22.5098 16.9129 22.8723 16.6024 23.1268 16.21C23.3813 15.8176 23.5171 15.3601 23.5177 14.8924V12.1691C23.5177 11.1814 22.923 10.3309 22.0736 9.95325ZM2.8695 11.3134V15.7489C2.8695 15.9938 2.67038 16.1933 2.42513 16.1933C2.08033 16.1929 1.74978 16.0557 1.50597 15.8119C1.26217 15.5681 1.12502 15.2375 1.12463 14.8928V12.1695C1.12502 11.8247 1.26217 11.4942 1.50597 11.2503C1.74978 11.0065 2.08033 10.8694 2.42513 10.869C2.67038 10.869 2.8695 11.0685 2.8695 11.3134ZM15.9375 21.3975C15.9096 21.5266 15.8383 21.6424 15.7356 21.7255C15.6329 21.8086 15.5049 21.8542 15.3728 21.8546H13.6253C13.4715 21.8546 13.3271 21.7946 13.2169 21.6844C13.1632 21.6311 13.1207 21.5677 13.0917 21.4979C13.0627 21.428 13.0479 21.3531 13.0481 21.2775C13.0485 21.1246 13.1095 20.9781 13.2176 20.87C13.3258 20.7619 13.4723 20.701 13.6253 20.7008H15.3728C15.5265 20.7008 15.6709 20.7604 15.7808 20.8706C15.8895 20.979 15.9495 21.1238 15.9495 21.2775C15.9499 21.3188 15.9454 21.36 15.9375 21.3975ZM22.3927 14.8928C22.3924 15.2375 22.2552 15.5681 22.0114 15.8119C21.7676 16.0557 21.437 16.1929 21.0923 16.1933C20.9744 16.1932 20.8615 16.1463 20.7781 16.063C20.6948 15.9797 20.648 15.8667 20.6479 15.7489V11.3134C20.6479 11.0685 20.847 10.869 21.0923 10.869C21.437 10.8694 21.7676 11.0065 22.0114 11.2503C22.2552 11.4942 22.3924 11.8247 22.3927 12.1695V14.8928Z" fill="black"/>
<path d="M15.4013 15.0865C16.0332 15.0858 16.6391 14.8345 17.0859 14.3876C17.5327 13.9408 17.7841 13.3349 17.7848 12.703V7.84639C17.7848 7.21114 17.5365 6.61264 17.0858 6.16189C16.635 5.71114 16.0369 5.46289 15.4013 5.46289H8.11653C7.4846 5.46359 6.87875 5.71493 6.43191 6.16177C5.98507 6.60861 5.73373 7.21446 5.73303 7.84639V12.703C5.73373 13.3349 5.98507 13.9408 6.43191 14.3876C6.87875 14.8345 7.4846 15.0858 8.11653 15.0865H8.16116V16.345C8.16042 16.4987 8.19006 16.651 8.24839 16.7932C8.30672 16.9353 8.39258 17.0646 8.50104 17.1735C8.60949 17.2823 8.7384 17.3687 8.88035 17.4276C9.0223 17.4864 9.17448 17.5167 9.32816 17.5165C9.48173 17.5168 9.63379 17.4862 9.77527 17.4265C9.91676 17.3668 10.0448 17.2792 10.1517 17.1689L12.2453 15.0865H15.4013ZM11.6172 14.125L9.35141 16.3784C9.34128 16.3889 9.33378 16.3968 9.31241 16.3874C9.28653 16.3769 9.28653 16.36 9.28653 16.345V14.524C9.28653 14.3748 9.22727 14.2318 9.12178 14.1263C9.01629 14.0208 8.87322 13.9615 8.72403 13.9615H8.11691C7.78325 13.9611 7.46338 13.8284 7.22745 13.5925C6.99152 13.3565 6.8588 13.0367 6.85841 12.703V7.84639C6.8588 7.51274 6.99152 7.19286 7.22745 6.95694C7.46338 6.72101 7.78325 6.58829 8.11691 6.58789H15.4017C15.7369 6.58789 16.0523 6.71914 16.2908 6.95727C16.5293 7.19577 16.6602 7.51152 16.6602 7.84639V12.703C16.6598 13.0367 16.527 13.3565 16.2911 13.5925C16.0552 13.8284 15.7353 13.9611 15.4017 13.9615H12.0139C11.865 13.9615 11.7225 14.0204 11.6172 14.125Z" fill="black"/>
<path d="M9.02629 9.53516C8.56879 9.53516 8.19641 9.90791 8.19641 10.365C8.19641 10.8222 8.56916 11.1949 9.02629 11.1949C9.48416 11.1949 9.85691 10.8222 9.85691 10.365C9.85691 9.90791 9.48454 9.53516 9.02629 9.53516ZM11.7585 9.53516C11.301 9.53516 10.9287 9.90791 10.9287 10.365C10.9287 10.8222 11.3014 11.1949 11.7585 11.1949C12.2168 11.1949 12.5892 10.8222 12.5892 10.365C12.5892 9.90791 12.2168 9.53516 11.7585 9.53516ZM14.4908 9.53516C14.0333 9.53516 13.6609 9.90791 13.6609 10.365C13.6609 10.8222 14.0337 11.1949 14.4908 11.1949C14.9487 11.1949 15.3214 10.8222 15.3214 10.365C15.3214 9.90791 14.9487 9.53516 14.4908 9.53516Z" fill="black"/>
</svg>
