<svg width="24" height="25" viewBox="0 0 24 25" fill="none" xmlns="http://www.w3.org/2000/svg">
<path fill-rule="evenodd" clip-rule="evenodd" d="M14.1151 12.0137C13.8301 12.1087 13.5951 12.3187 13.4751 12.5937H12.9351C12.6601 12.5937 12.4351 12.8187 12.4351 13.0937C12.4351 13.3687 12.6601 13.5937 12.9351 13.5937H13.5801C13.7701 13.8637 14.0801 14.0437 14.4351 14.0437C15.0101 14.0437 15.4801 13.5787 15.4801 12.9987C15.4801 12.5337 15.1751 12.1487 14.7601 12.0137C14.7901 11.9887 14.8201 11.9587 14.8451 11.9237C15.1701 11.4687 18.0101 7.42871 18.0101 5.62371C18.0101 3.65371 16.4101 2.05371 14.4401 2.05371C12.4701 2.05371 10.8701 3.65371 10.8701 5.62371C10.8701 7.42871 13.7101 11.4687 14.0351 11.9237C14.0601 11.9587 14.0901 11.9887 14.1201 12.0137H14.1151ZM14.4401 3.04871C15.8601 3.04871 17.0101 4.20371 17.0101 5.61871C17.0101 6.61371 15.5701 9.07871 14.4401 10.7487C13.3101 9.07371 11.8701 6.60871 11.8701 5.61871C11.8701 4.19871 13.0251 3.04871 14.4401 3.04871Z" fill="black"/>
<path fill-rule="evenodd" clip-rule="evenodd" d="M16.4399 5.58862C16.4399 4.48362 15.5449 3.58862 14.4399 3.58862C13.3349 3.58862 12.4399 4.48362 12.4399 5.58862C12.4399 6.69362 13.3349 7.58862 14.4399 7.58862C15.5449 7.58862 16.4399 6.69362 16.4399 5.58862ZM13.4399 5.58862C13.4399 5.03862 13.8899 4.58862 14.4399 4.58862C14.9899 4.58862 15.4399 5.03862 15.4399 5.58862C15.4399 6.13862 14.9899 6.58862 14.4399 6.58862C13.8899 6.58862 13.4399 6.13862 13.4399 5.58862ZM8.97488 16.7436C8.99093 16.6799 8.99421 16.6137 8.98452 16.5487C8.97483 16.4837 8.95238 16.4213 8.91844 16.3651C8.88451 16.3088 8.83977 16.2599 8.78681 16.221C8.73385 16.1821 8.67372 16.1541 8.60988 16.1386C8.40988 16.0886 8.22488 15.9586 8.07988 15.7686C7.91488 15.5486 7.59988 15.5036 7.37988 15.6686C7.15988 15.8336 7.11488 16.1486 7.27988 16.3686C7.55988 16.7436 7.94488 17.0036 8.36488 17.1086C8.42859 17.1249 8.49489 17.1283 8.55994 17.1187C8.62498 17.1091 8.68747 17.0867 8.74376 17.0527C8.80006 17.0188 8.84904 16.9739 8.88786 16.9209C8.92668 16.8678 8.95456 16.8076 8.96988 16.7436H8.97488ZM9.93988 13.5936H10.9399C11.2149 13.5936 11.4399 13.3686 11.4399 13.0936C11.4399 12.8186 11.2149 12.5936 10.9399 12.5936H9.93988C9.66488 12.5936 9.43988 12.8186 9.43988 13.0936C9.43988 13.3686 9.66488 13.5936 9.93988 13.5936ZM7.24988 14.6336C7.3116 14.6561 7.37713 14.6661 7.44273 14.6631C7.50833 14.6602 7.5727 14.6443 7.63216 14.6165C7.69161 14.5886 7.74498 14.5493 7.78921 14.5007C7.83344 14.4522 7.86765 14.3954 7.88988 14.3336C7.97488 14.0986 8.11988 13.8936 8.29488 13.7636C8.51488 13.5986 8.55988 13.2836 8.39488 13.0636C8.22988 12.8436 7.91488 12.7986 7.69488 12.9636C7.35988 13.2136 7.10488 13.5686 6.94988 13.9936C6.85488 14.2536 6.98988 14.5386 7.24988 14.6336ZM17.7399 17.4086C17.9299 17.2086 17.9249 16.8936 17.7299 16.7036C17.3899 16.3736 16.9549 16.1836 16.5099 16.1686C16.2399 16.1586 15.9999 16.3736 15.9899 16.6486C15.9799 16.9236 16.1949 17.1586 16.4699 17.1686C16.7249 17.1786 16.9199 17.3136 17.0349 17.4236C17.0824 17.4694 17.1385 17.5053 17.2 17.5294C17.2614 17.5534 17.327 17.565 17.393 17.5637C17.459 17.5623 17.524 17.5478 17.5844 17.5212C17.6448 17.4946 17.6993 17.4564 17.7449 17.4086H17.7399ZM15.9149 20.0886H14.9149C14.6399 20.0886 14.4149 20.3136 14.4149 20.5886C14.4149 20.8636 14.6399 21.0886 14.9149 21.0886H15.9149C16.1899 21.0886 16.4149 20.8636 16.4149 20.5886C16.4149 20.3136 16.1899 20.0886 15.9149 20.0886ZM17.9599 18.4136C17.8942 18.4101 17.8284 18.4197 17.7664 18.4417C17.7044 18.4637 17.6474 18.4977 17.5986 18.5419C17.5498 18.586 17.5102 18.6394 17.4821 18.6989C17.454 18.7584 17.438 18.8229 17.4349 18.8886C17.4199 19.1486 17.3499 19.3936 17.2199 19.5986C17.1735 19.6746 17.1482 19.7614 17.1464 19.8504C17.1445 19.9393 17.1663 20.0272 17.2095 20.1049C17.2528 20.1827 17.3158 20.2476 17.3923 20.2931C17.4688 20.3385 17.5559 20.3629 17.6449 20.3636C17.8149 20.3636 17.9749 20.2786 18.0699 20.1236C18.2849 19.7736 18.4099 19.3686 18.4299 18.9386C18.4449 18.6636 18.2299 18.4286 17.9549 18.4136H17.9599ZM14.9849 16.6636C14.9849 16.3886 14.7599 16.1636 14.4849 16.1636H13.4849C13.2099 16.1636 12.9849 16.3886 12.9849 16.6636C12.9849 16.9386 13.2099 17.1636 13.4849 17.1636H14.4849C14.7599 17.1636 14.9849 16.9386 14.9849 16.6636ZM9.91488 20.0886H8.91488C8.63988 20.0886 8.41488 20.3136 8.41488 20.5886C8.41488 20.8636 8.63988 21.0886 8.91488 21.0886H9.91488C10.1899 21.0886 10.4149 20.8636 10.4149 20.5886C10.4149 20.3136 10.1899 20.0886 9.91488 20.0886ZM11.9849 16.6636C11.9849 16.3886 11.7599 16.1636 11.4849 16.1636H10.4849C10.2099 16.1636 9.98488 16.3886 9.98488 16.6636C9.98488 16.9386 10.2099 17.1636 10.4849 17.1636H11.4849C11.7599 17.1636 11.9849 16.9386 11.9849 16.6636ZM12.9149 20.0886H11.9149C11.6399 20.0886 11.4149 20.3136 11.4149 20.5886C11.4149 20.8636 11.6399 21.0886 11.9149 21.0886H12.9149C13.1899 21.0886 13.4149 20.8636 13.4149 20.5886C13.4149 20.3136 13.1899 20.0886 12.9149 20.0886ZM5.79988 19.0436C4.94988 19.0436 4.25488 19.7336 4.25488 20.5886C4.25488 21.4436 4.94488 22.1336 5.79988 22.1336C6.65488 22.1336 7.34488 21.4436 7.34488 20.5886C7.34488 19.7336 6.65488 19.0436 5.79988 19.0436ZM5.79988 21.1286C5.49988 21.1286 5.25488 20.8836 5.25488 20.5836C5.25488 20.2836 5.49988 20.0386 5.79988 20.0386C6.09988 20.0386 6.34488 20.2836 6.34488 20.5836C6.34488 20.8836 6.09988 21.1286 5.79988 21.1286Z" fill="black"/>
</svg>
