<svg width="25" height="25" viewBox="0 0 25 25" fill="none" xmlns="http://www.w3.org/2000/svg">
<path d="M11.2282 4.80657C11.6569 3.05015 14.1687 3.05016 14.5975 4.80657C14.8745 5.94119 16.1816 6.47963 17.1842 5.87211C18.7362 4.93165 20.5124 6.69796 19.5667 8.24144C18.9558 9.23851 19.4972 10.5384 20.6381 10.8139C22.4043 11.2403 22.4043 13.7382 20.6381 14.1646C19.4972 14.4401 18.9558 15.74 19.5667 16.7371C20.5124 18.2806 18.7362 20.0469 17.1842 19.1064C16.1816 18.4989 14.8745 19.0373 14.5975 20.1719C14.1687 21.9284 11.6569 21.9284 11.2282 20.1719C10.9512 19.0373 9.64406 18.4989 8.64146 19.1064C7.08942 20.0469 5.31331 18.2806 6.25898 16.7371C6.86988 15.74 6.32844 14.4401 5.18753 14.1646C3.42138 13.7382 3.42138 11.2403 5.18753 10.8139C6.32844 10.5384 6.86987 9.23851 6.25898 8.24144C5.3133 6.69796 7.08941 4.93165 8.64146 5.87211C9.64406 6.47963 10.9512 5.94119 11.2282 4.80657Z" stroke="black" stroke-linecap="round" stroke-linejoin="round"/>
<path d="M15.9295 12.4893C15.9295 14.1461 14.5789 15.4893 12.9128 15.4893C11.2468 15.4893 9.89619 14.1461 9.89619 12.4893C9.89619 10.8324 11.2468 9.48926 12.9128 9.48926C14.5789 9.48926 15.9295 10.8324 15.9295 12.4893Z" stroke="black" stroke-linecap="round" stroke-linejoin="round"/>
</svg>
