<svg width="24" height="19" viewBox="0 0 24 19" fill="none" xmlns="http://www.w3.org/2000/svg">
<path d="M14 7.25293H12.4001V8.70629H14V7.25293Z" fill="black"/>
<path d="M0.34326 5.08074L3.06038 4.37593C3.5558 3.82314 4.07007 3.32815 4.60009 2.89396C6.3508 1.45365 8.25092 0.710484 10.1728 0.714371H10.6449C12.9132 0.717386 15.1451 1.75113 17.1372 3.72145L18.5085 5.08014C20.1137 5.11313 21.6878 5.88819 23.0824 7.33223C23.3608 7.62224 23.5922 8.04041 23.7533 8.5446C23.9144 9.04879 23.9995 9.6212 24 10.2041V14.5182C24 14.6136 23.9897 14.7081 23.9696 14.7963C23.9495 14.8845 23.92 14.9646 23.8828 15.0321C23.8457 15.0995 23.8016 15.1531 23.753 15.1896C23.7045 15.2261 23.6525 15.2448 23.5999 15.2448H22.2568C21.82 17.5084 20.4556 18.7004 19.2093 17.907C18.8707 17.6914 18.5631 17.3402 18.3094 16.8794C18.0557 16.4185 17.8623 15.8599 17.7437 15.2448H7.0568C6.61997 17.5084 5.25555 18.7004 4.0093 17.907C3.67069 17.6914 3.36313 17.3402 3.10941 16.8793C2.85569 16.4185 2.66232 15.8599 2.54363 15.2448H2.40009C2.34913 15.2448 2.29868 15.2274 2.25134 15.1931L0.955719 14.2489C0.672987 14.0455 0.430563 13.6921 0.260078 13.2347C0.0895939 12.7774 -0.0010376 12.2373 9.53674e-06 11.685V5.79993C4.19617e-05 5.62511 0.0347614 5.45616 0.0978031 5.32406C0.160847 5.19196 0.247988 5.10562 0.34326 5.08074ZM18.4324 14.3731C18.6094 15.9455 19.4546 16.9599 20.3203 16.6385C21.1862 16.3171 21.7446 14.782 21.5677 13.2093C21.3906 11.6368 20.5454 10.6225 19.6797 10.9438C18.9348 11.2203 18.3999 12.4108 18.4001 13.7919C18.4001 13.9871 18.4109 14.1819 18.4324 14.3731ZM11.2 13.7919H17.6001C17.6001 11.3843 18.6745 9.43258 20 9.43258C21.3255 9.43258 22.4001 11.3844 22.4001 13.7919H23.2V10.2042C23.1998 9.87722 23.1521 9.55611 23.0617 9.27331C22.9713 8.99052 22.8414 8.75605 22.6852 8.59359C21.38 7.23997 19.903 6.52756 18.4 6.52661H11.2L11.2 13.7919ZM11.2 5.07355H16.8312L16.7541 4.99704C15.044 3.30902 13.1445 2.35212 11.2 2.19922L11.2 5.07355ZM10.4 2.16728H10.1737C8.56173 2.164 6.96427 2.71989 5.46713 3.80508L6.16555 5.07363H10.4001L10.4 2.16728ZM3.23243 14.3731C3.40934 15.9455 4.25455 16.9599 5.12047 16.6385C5.98617 16.3171 6.54463 14.782 6.36767 13.2093C6.19076 11.6368 5.34538 10.6225 4.47968 10.9438C3.73467 11.2203 3.19988 12.4108 3.20005 13.7919C3.20008 13.9871 3.21092 14.1819 3.23243 14.3731ZM0.800011 7.25292H2.00001V8.7062H0.800011V11.685C0.799517 11.9465 0.842457 12.2023 0.923227 12.4188C1.004 12.6353 1.11884 12.8026 1.25276 12.8987L2.40009 13.7357C2.40009 13.6689 2.4048 13.6026 2.40722 13.5359C2.40968 13.469 2.41051 13.3907 2.41438 13.3179C2.41847 13.2453 2.42647 13.1725 2.4328 13.1C2.4393 13.0274 2.44405 12.9546 2.45197 12.8887C2.45997 12.8225 2.47168 12.7492 2.48209 12.68C2.49251 12.6112 2.50051 12.5414 2.51251 12.4736C2.52443 12.4063 2.53893 12.3415 2.55243 12.2753C2.56609 12.2094 2.57847 12.141 2.59243 12.0755C2.60647 12.0101 2.62534 11.9506 2.64209 11.8889C2.65888 11.8271 2.6753 11.7594 2.69401 11.697C2.71288 11.6347 2.73405 11.5814 2.75213 11.5235C2.77005 11.4652 2.79201 11.3991 2.8148 11.3396C2.83772 11.2799 2.85888 11.2329 2.88088 11.1791C2.90284 11.1253 2.92776 11.0621 2.9533 11.0061C2.97884 10.9503 3.00276 10.9065 3.02768 10.8607C3.05243 10.8152 3.08009 10.7534 3.10759 10.7025C3.13526 10.6517 3.16242 10.6115 3.18997 10.5666C3.21763 10.5216 3.24726 10.4684 3.27768 10.4211C3.30797 10.3741 3.33888 10.3377 3.36913 10.2963C3.39955 10.255 3.43001 10.2107 3.46193 10.1719C3.49401 10.1335 3.52997 10.0995 3.5643 10.0587C3.5988 10.0178 3.6268 9.98596 3.65918 9.95493C3.69159 9.9236 3.73193 9.89075 3.76876 9.85881C3.80551 9.82688 3.8343 9.7985 3.86834 9.77254C3.90234 9.7462 3.94843 9.71873 3.9883 9.6927C4.0283 9.66636 4.05438 9.646 4.08838 9.62648C4.13397 9.60105 4.18068 9.58273 4.22722 9.56169C4.25763 9.54875 4.2868 9.53127 4.31755 9.51977C4.36672 9.50145 4.41713 9.49139 4.46713 9.47807C4.49672 9.47095 4.52505 9.45915 4.55468 9.45415C4.63575 9.43926 4.71719 9.43176 4.79868 9.43167C6.12367 9.43395 7.19742 11.3842 7.19876 13.7909H10.3999V6.52639H6.00001C5.94749 6.52642 5.8955 6.50764 5.84698 6.47112C5.79847 6.4346 5.7544 6.38107 5.7173 6.31357L4.68001 4.42951C4.24463 4.80587 3.82127 5.22651 3.41197 5.68944C3.36476 5.74302 3.31193 5.77818 3.25684 5.79267L0.799967 6.42974L0.800011 7.25292Z" fill="black"/>
</svg>
