<svg width="24" height="24" viewBox="0 0 24 24" fill="none" xmlns="http://www.w3.org/2000/svg">
<g clip-path="url(#clip0_908_4911)">
<path d="M23.2004 10.472V8.4C23.2004 8.08174 23.074 7.77652 22.8489 7.55147C22.6239 7.32643 22.3187 7.2 22.0004 7.2H21.4484L20.1804 4.664C20.0806 4.46414 19.927 4.2961 19.7369 4.17879C19.5468 4.06148 19.3278 3.99956 19.1044 4H12.8964C12.673 3.99956 12.4539 4.06148 12.2638 4.17879C12.0737 4.2961 11.9202 4.46414 11.8204 4.664L10.5524 7.2H8.40039C8.08213 7.2 7.77691 7.32643 7.55186 7.55147C7.32682 7.77652 7.20039 8.08174 7.20039 8.4V10.472C6.96697 10.5545 6.76479 10.7072 6.62157 10.9092C6.47834 11.1111 6.40109 11.3524 6.40039 11.6C6.40039 11.9183 6.52682 12.2235 6.75186 12.4485C6.97691 12.6736 7.28213 12.8 7.60039 12.8H8.88439C9.01535 13.2602 9.29277 13.6652 9.67462 13.9535C10.0565 14.2419 10.5219 14.3979 11.0004 14.3979C11.4789 14.3979 11.9443 14.2419 12.3262 13.9535C12.708 13.6652 12.9854 13.2602 13.1164 12.8H17.6844C17.8153 13.2602 18.0928 13.6652 18.4746 13.9535C18.8565 14.2419 19.3219 14.3979 19.8004 14.3979C20.2789 14.3979 20.7443 14.2419 21.1262 13.9535C21.508 13.6652 21.7854 13.2602 21.9164 12.8H22.8004C23.1187 12.8 23.4239 12.6736 23.6489 12.4485C23.874 12.2235 24.0004 11.9183 24.0004 11.6C23.9997 11.3524 23.9224 11.1111 23.7792 10.9092C23.636 10.7072 23.4338 10.5545 23.2004 10.472ZM22.4004 8.4V10.4H21.0604C20.6918 10.1397 20.2516 9.99989 19.8004 9.99989C19.3491 9.99989 18.909 10.1397 18.5404 10.4H16.4004V9.2C16.4004 9.09392 16.3582 8.99217 16.2832 8.91716C16.2082 8.84214 16.1065 8.8 16.0004 8.8C15.8943 8.8 15.7926 8.84214 15.7175 8.91716C15.6425 8.99217 15.6004 9.09392 15.6004 9.2V10.4H12.2604C11.8918 10.1397 11.4516 9.99989 11.0004 9.99989C10.5491 9.99989 10.109 10.1397 9.74039 10.4H8.00039V9.6H8.80039C9.11865 9.6 9.42388 9.47357 9.64892 9.24853C9.87396 9.02349 10.0004 8.71826 10.0004 8.4V8H22.0004C22.1065 8 22.2082 8.04214 22.2832 8.11716C22.3582 8.19217 22.4004 8.29392 22.4004 8.4ZM12.9564 11.2H17.8444C17.7098 11.4474 17.6268 11.7196 17.6004 12H13.2004C13.174 11.7196 13.0909 11.4474 12.9564 11.2ZM19.4644 5.02L20.5524 7.2H16.4004V4.8H19.1044C19.1789 4.79948 19.2521 4.81981 19.3158 4.85868C19.3794 4.89755 19.4308 4.95343 19.4644 5.02ZM12.5364 5.02C12.5699 4.95343 12.6214 4.89755 12.685 4.85868C12.7486 4.81981 12.8218 4.79948 12.8964 4.8H15.6004V7.2H11.4484L12.5364 5.02ZM8.40039 8H9.20039V8.4C9.20039 8.50609 9.15825 8.60783 9.08323 8.68285C9.00822 8.75786 8.90648 8.8 8.80039 8.8H8.00039V8.4C8.00039 8.29392 8.04253 8.19217 8.11755 8.11716C8.19256 8.04214 8.2943 8 8.40039 8ZM7.20039 11.6C7.20113 11.5468 7.21248 11.4943 7.23377 11.4455C7.25506 11.3967 7.28587 11.3527 7.32439 11.316C7.35985 11.2786 7.40269 11.249 7.45021 11.229C7.49772 11.209 7.54886 11.1992 7.60039 11.2H9.04439C8.90983 11.4474 8.82683 11.7196 8.80039 12H7.60039C7.4943 12 7.39256 11.9579 7.31755 11.8828C7.24253 11.8078 7.20039 11.7061 7.20039 11.6ZM11.0004 13.6C10.6291 13.6 10.273 13.4525 10.0104 13.19C9.74789 12.9274 9.60039 12.5713 9.60039 12.2C9.60039 11.8287 9.74789 11.4726 10.0104 11.2101C10.273 10.9475 10.6291 10.8 11.0004 10.8C11.3717 10.8 11.7278 10.9475 11.9903 11.2101C12.2529 11.4726 12.4004 11.8287 12.4004 12.2C12.4004 12.5713 12.2529 12.9274 11.9903 13.19C11.7278 13.4525 11.3717 13.6 11.0004 13.6ZM19.8004 13.6C19.4291 13.6 19.073 13.4525 18.8104 13.19C18.5479 12.9274 18.4004 12.5713 18.4004 12.2C18.4004 11.8287 18.5479 11.4726 18.8104 11.2101C19.073 10.9475 19.4291 10.8 19.8004 10.8C20.1717 10.8 20.5278 10.9475 20.7903 11.2101C21.0529 11.4726 21.2004 11.8287 21.2004 12.2C21.2004 12.5713 21.0529 12.9274 20.7903 13.19C20.5278 13.4525 20.1717 13.6 19.8004 13.6ZM23.0764 11.884C23.0409 11.9214 22.9981 11.951 22.9506 11.971C22.9031 11.991 22.8519 12.0008 22.8004 12H22.0004C21.9777 11.7204 21.8988 11.4483 21.7684 11.2H22.8004C22.9065 11.2 23.0082 11.2421 23.0832 11.3172C23.1582 11.3922 23.2004 11.4939 23.2004 11.6C23.1997 11.6532 23.1883 11.7057 23.167 11.7545C23.1457 11.8033 23.1149 11.8473 23.0764 11.884Z" fill="black"/>
<path d="M13.2 9.6H14C14.1061 9.6 14.2078 9.55786 14.2828 9.48284C14.3579 9.40783 14.4 9.30609 14.4 9.2C14.4 9.09391 14.3579 8.99217 14.2828 8.91716C14.2078 8.84214 14.1061 8.8 14 8.8H13.2C13.0939 8.8 12.9922 8.84214 12.9172 8.91716C12.8421 8.99217 12.8 9.09391 12.8 9.2C12.8 9.30609 12.8421 9.40783 12.9172 9.48284C12.9922 9.55786 13.0939 9.6 13.2 9.6ZM17.6 9.6H18.4C18.5061 9.6 18.6078 9.55786 18.6828 9.48284C18.7579 9.40783 18.8 9.30609 18.8 9.2C18.8 9.09391 18.7579 8.99217 18.6828 8.91716C18.6078 8.84214 18.5061 8.8 18.4 8.8H17.6C17.4939 8.8 17.3922 8.84214 17.3172 8.91716C17.2421 8.99217 17.2 9.09391 17.2 9.2C17.2 9.30609 17.2421 9.40783 17.3172 9.48284C17.3922 9.55786 17.4939 9.6 17.6 9.6ZM22.028 15.872L14.624 18.34C14.495 18.3825 14.3598 18.4028 14.224 18.4H14C14.0939 18.1428 14.1293 17.8679 14.1037 17.5953C14.0781 17.3227 13.9921 17.0592 13.852 16.824L13.816 16.764C13.6038 16.4109 13.3044 16.1183 12.9464 15.9144C12.5884 15.7106 12.184 15.6023 11.772 15.6H9.68C8.94163 15.5993 8.2253 15.3483 7.648 14.888C6.93026 14.3142 6.03893 14.0011 5.12 14H4.32C4.23794 13.7679 4.08645 13.5666 3.8861 13.4235C3.68574 13.2804 3.44621 13.2023 3.2 13.2H1.2C0.88174 13.2 0.576515 13.3264 0.351472 13.5515C0.126428 13.7765 0 14.0817 0 14.4L0 22.8C0 23.1183 0.126428 23.4235 0.351472 23.6485C0.576515 23.8736 0.88174 24 1.2 24H3.2C3.36775 23.9991 3.53345 23.963 3.6864 23.8941C3.83936 23.8252 3.97617 23.725 4.088 23.6H14.12C14.7073 23.6013 15.2834 23.4392 15.784 23.132L23.28 18.568C23.5933 18.3764 23.8252 18.0762 23.9315 17.7247C24.0377 17.3731 24.011 16.9948 23.8563 16.6617C23.7016 16.3286 23.4298 16.064 23.0926 15.9184C22.7555 15.7728 22.3765 15.7563 22.028 15.872ZM3.2 23.2H1.2C1.09391 23.2 0.992172 23.1579 0.917157 23.0828C0.842143 23.0078 0.8 22.9061 0.8 22.8V14.4C0.8 14.2939 0.842143 14.1922 0.917157 14.1172C0.992172 14.0421 1.09391 14 1.2 14H3.2C3.30609 14 3.40783 14.0421 3.48284 14.1172C3.55786 14.1922 3.6 14.2939 3.6 14.4V22.8C3.6 22.9061 3.55786 23.0078 3.48284 23.0828C3.40783 23.1579 3.30609 23.2 3.2 23.2ZM23.2 17.424C23.1817 17.5198 23.1434 17.6107 23.0876 17.6906C23.0318 17.7706 22.9597 17.8379 22.876 17.888L15.368 22.452C14.9918 22.6802 14.56 22.8006 14.12 22.8H4.4V14.8H5.12C5.85837 14.8007 6.5747 15.0517 7.152 15.512C7.86974 16.0858 8.76107 16.3989 9.68 16.4H11.772C12.0482 16.3999 12.3198 16.4713 12.5602 16.6073C12.8006 16.7433 13.0017 16.9392 13.144 17.176L13.18 17.236C13.2869 17.414 13.3382 17.6198 13.3276 17.8272C13.3169 18.0345 13.2446 18.2339 13.12 18.4H10.692C9.90187 18.3998 9.12939 18.6337 8.472 19.072L8.18 19.268C8.10238 19.3305 8.0509 19.4198 8.03564 19.5183C8.02038 19.6167 8.04243 19.7174 8.09748 19.8005C8.15254 19.8835 8.23662 19.9431 8.33327 19.9674C8.42992 19.9917 8.53217 19.9791 8.62 19.932L8.916 19.736C9.44209 19.3859 10.0601 19.1994 10.692 19.2H14.244C14.4589 19.1995 14.6723 19.1644 14.876 19.096L22.284 16.628C22.423 16.5826 22.5728 16.5821 22.7121 16.6266C22.8514 16.6711 22.9731 16.7584 23.06 16.876C23.1836 17.03 23.2344 17.2296 23.2 17.424ZM6 5.516V4.476C6.36449 4.26556 6.66722 3.96298 6.87785 3.5986C7.08847 3.23423 7.19957 2.82087 7.2 2.4V1.2C7.2 0.88174 7.07357 0.576515 6.84853 0.351472C6.62348 0.126428 6.31826 0 6 0L2.8 0C2.48174 0 2.17652 0.126428 1.95147 0.351472C1.72643 0.576515 1.6 0.88174 1.6 1.2V2.4C1.60043 2.82087 1.71153 3.23423 1.92215 3.5986C2.13278 3.96298 2.43552 4.26556 2.8 4.476V9.732C2.8 9.9051 2.85614 10.0735 2.96 10.212L3.76 11.28C3.83452 11.3794 3.93114 11.46 4.04223 11.5155C4.15331 11.5711 4.2758 11.6 4.4 11.6C4.5242 11.6 4.64669 11.5711 4.75777 11.5155C4.86886 11.46 4.96548 11.3794 5.04 11.28L5.84 10.212C5.94386 10.0735 6 9.9051 6 9.732V8.884C5.99986 8.72492 5.93655 8.57241 5.824 8.46L5.364 8L5.74 7.624C5.79612 7.56856 5.84067 7.50254 5.87108 7.42976C5.90149 7.35698 5.91714 7.27888 5.91714 7.2C5.91714 7.12112 5.90149 7.04303 5.87108 6.97024C5.84067 6.89746 5.79612 6.83144 5.74 6.776L5.364 6.4L5.824 5.94C5.93655 5.82759 5.99986 5.67508 6 5.516ZM2.4 1.2C2.4 1.09391 2.44214 0.992172 2.51716 0.917157C2.59217 0.842143 2.69391 0.8 2.8 0.8H6C6.10609 0.8 6.20783 0.842143 6.28284 0.917157C6.35786 0.992172 6.4 1.09391 6.4 1.2V2.4C6.4 2.82435 6.23143 3.23131 5.93137 3.53137C5.63131 3.83143 5.22435 4 4.8 4H4C3.57565 4 3.16869 3.83143 2.86863 3.53137C2.56857 3.23131 2.4 2.82435 2.4 2.4V1.2ZM4.66 6.824L5.036 7.2L4.66 7.576C4.60388 7.63144 4.55933 7.69746 4.52892 7.77024C4.49851 7.84302 4.48286 7.92112 4.48286 8C4.48286 8.07888 4.49851 8.15698 4.52892 8.22976C4.55933 8.30254 4.60388 8.36856 4.66 8.424L5.2 8.964V9.732L4.4 10.8L3.6 9.732V4.764C3.732 4.786 3.866 4.798 4 4.8H4.8C4.93405 4.79811 5.06777 4.78608 5.2 4.764V5.436L4.66 5.976C4.60388 6.03144 4.55933 6.09746 4.52892 6.17024C4.49851 6.24302 4.48286 6.32112 4.48286 6.4C4.48286 6.47888 4.49851 6.55698 4.52892 6.62976C4.55933 6.70254 4.60388 6.76856 4.66 6.824Z" fill="black"/>
<path d="M3.99961 2.4001H4.79961C4.9057 2.4001 5.00744 2.35795 5.08245 2.28294C5.15747 2.20793 5.19961 2.10618 5.19961 2.0001C5.19961 1.89401 5.15747 1.79227 5.08245 1.71726C5.00744 1.64224 4.9057 1.6001 4.79961 1.6001H3.99961C3.89352 1.6001 3.79178 1.64224 3.71677 1.71726C3.64175 1.79227 3.59961 1.89401 3.59961 2.0001C3.59961 2.10618 3.64175 2.20793 3.71677 2.28294C3.79178 2.35795 3.89352 2.4001 3.99961 2.4001Z" fill="black"/>
</g>
<defs>
<clipPath id="clip0_908_4911">
<rect width="24" height="24" fill="white"/>
</clipPath>
</defs>
</svg>
