<svg width="24" height="25" viewBox="0 0 24 25" fill="none" xmlns="http://www.w3.org/2000/svg">
<g clip-path="url(#clip0_1006_2968)">
<path d="M1.79761 16.9992C1.85793 16.9993 1.91739 16.9848 1.97092 16.957C2.02445 16.9292 2.07048 16.8889 2.10511 16.8395L2.93198 15.6586C2.96025 15.6183 2.9803 15.5728 2.99098 15.5247C3.00166 15.4766 3.00277 15.4269 2.99423 15.3784C2.9857 15.3299 2.9677 15.2835 2.94126 15.242C2.91481 15.2004 2.88044 15.1645 2.84011 15.1362C2.79978 15.108 2.75427 15.0879 2.70619 15.0772C2.65811 15.0665 2.6084 15.0654 2.55989 15.074C2.51139 15.0825 2.46504 15.1005 2.42349 15.1269C2.38194 15.1534 2.346 15.1878 2.31773 15.2281L1.49273 16.4093C1.45336 16.4655 1.43015 16.5314 1.42562 16.5998C1.4211 16.6683 1.43543 16.7367 1.46706 16.7975C1.49869 16.8584 1.54641 16.9094 1.60502 16.945C1.66363 16.9807 1.73089 16.9995 1.79948 16.9996L1.79761 16.9992ZM3.55786 14.4845C3.61828 14.4846 3.67783 14.47 3.73143 14.4422C3.78504 14.4143 3.83111 14.3739 3.86573 14.3243C4.25339 13.7722 4.75962 13.3138 5.34736 12.9826C5.35402 12.9791 5.36052 12.9754 5.36686 12.9713L5.38786 12.9571L6.76448 11.9903C6.80563 11.9624 6.8408 11.9265 6.86795 11.8848C6.8951 11.8432 6.91368 11.7965 6.92262 11.7475C6.93156 11.6986 6.93067 11.6484 6.92 11.5998C6.90934 11.5512 6.88912 11.5052 6.86051 11.4645C6.8319 11.4238 6.79548 11.3892 6.75337 11.3627C6.71126 11.3363 6.66431 11.3184 6.61523 11.3103C6.56616 11.3021 6.51596 11.3038 6.46754 11.3152C6.41913 11.3266 6.37347 11.3476 6.33323 11.3768L4.96786 12.3357C4.28704 12.7222 3.70065 13.2552 3.25111 13.8961C3.21174 13.9523 3.18852 14.0182 3.184 14.0866C3.17947 14.155 3.1938 14.2234 3.22543 14.2843C3.25706 14.3451 3.30478 14.3962 3.36339 14.4318C3.42201 14.4674 3.48927 14.4863 3.55786 14.4863V14.4845ZM15.7499 12.0586C16.4915 12.0586 17.2166 11.8387 17.8332 11.4266C18.4499 11.0146 18.9306 10.4289 19.2144 9.74366C19.4982 9.05844 19.5725 8.30444 19.4278 7.57701C19.2831 6.84958 18.926 6.18139 18.4015 5.65694C17.8771 5.1325 17.2089 4.77535 16.4814 4.63065C15.754 4.48596 15 4.56022 14.3148 4.84405C13.6296 5.12788 13.0439 5.60852 12.6318 6.22521C12.2198 6.84189 11.9999 7.56692 11.9999 8.3086C12.001 9.30282 12.3964 10.256 13.0994 10.959C13.8024 11.6621 14.7556 12.0575 15.7499 12.0586ZM15.7499 5.3086C16.3432 5.3086 16.9232 5.48454 17.4166 5.81419C17.9099 6.14383 18.2944 6.61237 18.5215 7.16054C18.7486 7.70872 18.808 8.31192 18.6922 8.89387C18.5765 9.47581 18.2907 10.0104 17.8712 10.4299C17.4516 10.8495 16.9171 11.1352 16.3351 11.251C15.7532 11.3667 15.15 11.3073 14.6018 11.0802C14.0536 10.8532 13.5851 10.4687 13.2555 9.97531C12.9258 9.48196 12.7499 8.90194 12.7499 8.3086C12.7508 7.51322 13.0671 6.75068 13.6295 6.18826C14.1919 5.62585 14.9545 5.30949 15.7499 5.3086Z" fill="black"/>
<path d="M15.1099 10.0737C15.1802 10.144 15.2756 10.1836 15.375 10.1836H15.3896C15.4412 10.1816 15.4918 10.169 15.5382 10.1465C15.5847 10.124 15.626 10.0922 15.6596 10.0531L17.9096 7.42809C17.9699 7.35208 17.9984 7.25567 17.9891 7.15911C17.9798 7.06254 17.9334 6.97334 17.8597 6.91024C17.7861 6.84714 17.6908 6.81505 17.5939 6.82071C17.4971 6.82637 17.4062 6.86934 17.3404 6.94059L15.3529 9.25809L14.5144 8.41959C14.4436 8.35128 14.3489 8.31348 14.2506 8.31434C14.1523 8.31519 14.0582 8.35463 13.9887 8.42416C13.9192 8.49369 13.8797 8.58774 13.8789 8.68606C13.878 8.78439 13.9158 8.87911 13.9841 8.94984L15.1099 10.0737ZM19.5 12.8086H12C11.9005 12.8086 11.8052 12.8481 11.7348 12.9184C11.6645 12.9888 11.625 13.0841 11.625 13.1836C11.625 13.283 11.6645 13.3784 11.7348 13.4488C11.8052 13.5191 11.9005 13.5586 12 13.5586H19.5C19.5995 13.5586 19.6948 13.5191 19.7652 13.4488C19.8355 13.3784 19.875 13.283 19.875 13.1836C19.875 13.0841 19.8355 12.9888 19.7652 12.9184C19.6948 12.8481 19.5995 12.8086 19.5 12.8086ZM18 14.3086H13.5C13.4005 14.3086 13.3052 14.3481 13.2348 14.4184C13.1645 14.4888 13.125 14.5841 13.125 14.6836C13.125 14.783 13.1645 14.8784 13.2348 14.9488C13.3052 15.0191 13.4005 15.0586 13.5 15.0586H18C18.0995 15.0586 18.1948 15.0191 18.2652 14.9488C18.3355 14.8784 18.375 14.783 18.375 14.6836C18.375 14.5841 18.3355 14.4888 18.2652 14.4184C18.1948 14.3481 18.0995 14.3086 18 14.3086Z" fill="black"/>
<path d="M21.75 0.808594H11.25C10.7529 0.809189 10.2763 1.00692 9.92483 1.35843C9.57333 1.70993 9.3756 2.1865 9.375 2.68359V11.6836H9.00712C8.6813 11.683 8.36332 11.7835 8.097 11.9712L5.76487 13.6092C5.25375 13.8864 4.81396 14.2784 4.48012 14.7545L2.7195 17.2711C2.51735 17.5609 2.21077 17.7612 1.86413 17.8298L0.675 18.0661C0.590298 18.0834 0.51417 18.1294 0.459502 18.1964C0.404834 18.2633 0.374982 18.3471 0.375 18.4336V23.6836C0.375 23.7831 0.414509 23.8784 0.484835 23.9488C0.555161 24.0191 0.650544 24.0586 0.75 24.0586H7.674C8.38018 24.0601 9.06027 23.7918 9.57525 23.3086L9.68175 23.2088C9.8522 23.4694 10.0848 23.6835 10.3585 23.8318C10.6323 23.9802 10.9386 24.0581 11.25 24.0586H21.75C22.2471 24.058 22.7237 23.8603 23.0752 23.5088C23.4267 23.1573 23.6244 22.6807 23.625 22.1836V2.68359C23.6244 2.1865 23.4267 1.70993 23.0752 1.35843C22.7237 1.00692 22.2471 0.809189 21.75 0.808594ZM18.2696 1.55859L18.0821 2.30859H13.4179L13.2304 1.55859H18.2696ZM8.6955 19.1228C8.65611 19.1561 8.60803 19.1775 8.55692 19.1844C8.50581 19.1913 8.4538 19.1834 8.407 19.1617C8.3602 19.1401 8.32056 19.1055 8.29275 19.0621C8.26494 19.0186 8.25011 18.9682 8.25 18.9166V16.1296C8.25036 16.0966 8.25942 16.0643 8.27628 16.0359C8.29314 16.0075 8.31719 15.9841 8.346 15.968L9.375 15.3473V18.548L8.6955 19.1228ZM7.674 23.3086H1.125V18.7411L2.01112 18.5637C2.54708 18.4582 3.02129 18.149 3.33413 17.7012L5.09438 15.1865C5.36517 14.8007 5.72277 14.484 6.13837 14.2617C6.15193 14.2544 6.16507 14.2464 6.17775 14.2377L8.52787 12.5877C8.66833 12.4895 8.83573 12.4371 9.00712 12.4377H9.375V14.4758L7.96313 15.3271C7.82303 15.4093 7.70668 15.5265 7.62549 15.6671C7.54431 15.8078 7.50106 15.9672 7.5 16.1296V18.9166C7.50008 19.1112 7.5558 19.3017 7.66058 19.4657C7.76537 19.6297 7.91485 19.7604 8.09141 19.8422C8.26797 19.9241 8.46426 19.9538 8.65713 19.9278C8.85 19.9018 9.03142 19.8212 9.18 19.6955L12.6262 16.7795C12.7948 16.6369 13.0085 16.5587 13.2292 16.5586H13.3166C13.5011 16.558 13.6816 16.6122 13.8352 16.7144C13.9888 16.8166 14.1085 16.9622 14.1792 17.1326C14.2499 17.303 14.2682 17.4906 14.232 17.6715C14.1958 17.8524 14.1067 18.0185 13.9759 18.1486C13.9567 18.1645 13.9393 18.1824 13.9237 18.2018L9.06225 22.7596C8.6863 23.1127 8.18978 23.3091 7.674 23.3086ZM14.7161 16.5586H18.375V18.0586H14.8931C14.9868 17.8128 15.0197 17.5481 14.9888 17.2869C14.958 17.0257 14.8644 16.7758 14.7161 16.5586ZM10.2428 22.6812L14.3734 18.8086H18.375C18.5739 18.8086 18.7647 18.7296 18.9053 18.5889C19.046 18.4483 19.125 18.2575 19.125 18.0586V16.5586C19.125 16.3597 19.046 16.1689 18.9053 16.0283C18.7647 15.8876 18.5739 15.8086 18.375 15.8086H13.2292C12.831 15.8086 12.4457 15.9499 12.1417 16.2072L10.125 17.9135V2.68359C10.125 2.38523 10.2435 2.09908 10.4545 1.8881C10.6655 1.67712 10.9516 1.55859 11.25 1.55859H12.4571L12.7612 2.77472C12.7816 2.85581 12.8284 2.92779 12.8943 2.97922C12.9602 3.03066 13.0414 3.05859 13.125 3.05859H18.375C18.4586 3.05859 18.5398 3.03066 18.6057 2.97922C18.6716 2.92779 18.7184 2.85581 18.7388 2.77472L19.0429 1.55859H20.25C20.5484 1.55859 20.8345 1.67712 21.0455 1.8881C21.2565 2.09908 21.375 2.38523 21.375 2.68359V22.1836C21.375 22.482 21.2565 22.7681 21.0455 22.9791C20.8345 23.1901 20.5484 23.3086 20.25 23.3086H11.25C11.0403 23.3083 10.8349 23.2494 10.6569 23.1385C10.479 23.0277 10.3355 22.8693 10.2428 22.6812ZM22.875 22.1836C22.875 22.482 22.7565 22.7681 22.5455 22.9791C22.3345 23.1901 22.0484 23.3086 21.75 23.3086H21.7402C21.9884 22.9859 22.1236 22.5906 22.125 22.1836V2.68359C22.1236 2.27654 21.9884 1.88124 21.7402 1.55859H21.75C22.0484 1.55859 22.3345 1.67712 22.5455 1.8881C22.7565 2.09908 22.875 2.38523 22.875 2.68359V22.1836Z" fill="black"/>
</g>
<defs>
<clipPath id="clip0_1006_2968">
<rect width="24" height="24" fill="white" transform="translate(0 0.433594)"/>
</clipPath>
</defs>
</svg>
