<svg xmlns="http://www.w3.org/2000/svg" width="17" height="20" viewBox="0 0 17 20" fill="none">
  <path d="M6.75879 10.2412H8.75879C9.47065 10.2381 10.1753 10.3835 10.8278 10.6682C10.9185 10.7116 11.0171 10.7363 11.1175 10.7409C11.218 10.7455 11.3184 10.7298 11.4127 10.6947C11.507 10.6597 11.5932 10.6061 11.6664 10.537C11.7395 10.468 11.798 10.3849 11.8384 10.2928C11.8788 10.2007 11.9002 10.1014 11.9015 10.0008C11.9027 9.90026 11.8837 9.80047 11.8456 9.70739C11.8074 9.61431 11.751 9.52986 11.6796 9.45904C11.6081 9.38823 11.5232 9.33251 11.4298 9.29519C11.2381 9.21187 11.0426 9.13778 10.8438 9.07319C11.5824 8.44246 12.11 7.60044 12.3553 6.66063C12.6006 5.72082 12.5519 4.7284 12.2158 3.81711C11.8796 2.90583 11.2722 2.1195 10.4754 1.5641C9.67854 1.0087 8.73059 0.710938 7.75929 0.710938C6.78799 0.710938 5.84004 1.0087 5.04319 1.5641C4.24635 2.1195 3.63893 2.90583 3.30279 3.81711C2.96666 4.7284 2.91797 5.72082 3.16329 6.66063C3.40861 7.60044 3.93614 8.44246 4.67479 9.07319C3.31984 9.51461 2.13904 10.3729 1.30106 11.5256C0.463085 12.6782 0.0107923 14.0661 0.00878906 15.4912V17.4912C0.00878906 17.6901 0.0878067 17.8809 0.228459 18.0215C0.369111 18.1622 0.559877 18.2412 0.758789 18.2412H7.81879C8.0177 18.2412 8.20847 18.1622 8.34912 18.0215C8.48977 17.8809 8.56879 17.6901 8.56879 17.4912C8.56879 17.2923 8.48977 17.1015 8.34912 16.9609C8.20847 16.8202 8.0177 16.7412 7.81879 16.7412H1.50879V15.4912C1.51038 14.0993 2.06401 12.7649 3.04823 11.7806C4.03245 10.7964 5.36689 10.2428 6.75879 10.2412ZM7.75879 2.24119C8.40158 2.24119 9.02993 2.4318 9.56439 2.78891C10.0989 3.14603 10.5154 3.65361 10.7614 4.24747C11.0074 4.84133 11.0717 5.49479 10.9463 6.12523C10.8209 6.75567 10.5114 7.33476 10.0569 7.78929C9.60237 8.24381 9.02327 8.55334 8.39283 8.67874C7.76239 8.80414 7.10893 8.73978 6.51507 8.4938C5.92121 8.24781 5.41363 7.83125 5.05651 7.29679C4.6994 6.76233 4.50879 6.13398 4.50879 5.49119C4.50985 4.62956 4.8526 3.80352 5.46186 3.19426C6.07113 2.585 6.89716 2.24225 7.75879 2.24119ZM16.2588 13.7412H15.2588C15.0599 13.7412 14.8691 13.8202 14.7285 13.9609C14.5878 14.1015 14.5088 14.2923 14.5088 14.4912C14.5088 14.6901 14.5878 14.8809 14.7285 15.0215C14.8691 15.1622 15.0599 15.2412 15.2588 15.2412H15.5088V18.4912C15.5088 18.6901 15.5878 18.8809 15.7285 19.0215C15.8691 19.1622 16.0599 19.2412 16.2588 19.2412C16.4577 19.2412 16.6485 19.1622 16.7891 19.0215C16.9298 18.8809 17.0088 18.6901 17.0088 18.4912V14.4912C17.0088 14.2923 16.9298 14.1015 16.7891 13.9609C16.6485 13.8202 16.4577 13.7412 16.2588 13.7412Z" fill="black"/>
</svg>