<svg xmlns="http://www.w3.org/2000/svg" width="25" height="25" viewBox="0 0 25 25" fill="none">
  <path d="M17.7589 11.7393C16.6216 11.7393 15.5099 12.0765 14.5643 12.7083C13.6187 13.3401 12.8817 14.2382 12.4465 15.2888C12.0113 16.3395 11.8975 17.4956 12.1193 18.611C12.3412 19.7264 12.8888 20.751 13.693 21.5551C14.4971 22.3593 15.5217 22.9069 16.6371 23.1288C17.7525 23.3506 18.9086 23.2368 19.9593 22.8016C21.01 22.3664 21.908 21.6294 22.5398 20.6838C23.1716 19.7382 23.5089 18.6265 23.5089 17.4893C23.5073 15.9648 22.901 14.5031 21.823 13.4251C20.745 12.3472 19.2834 11.7408 17.7589 11.7393ZM17.7589 21.7393C16.9183 21.7393 16.0966 21.49 15.3977 21.023C14.6988 20.556 14.154 19.8922 13.8324 19.1157C13.5107 18.3391 13.4265 17.4845 13.5905 16.6601C13.7545 15.8357 14.1593 15.0784 14.7536 14.4841C15.348 13.8897 16.1053 13.4849 16.9297 13.3209C17.7541 13.1569 18.6087 13.2411 19.3853 13.5628C20.1618 13.8844 20.8256 14.4292 21.2926 15.1281C21.7596 15.827 22.0089 16.6487 22.0089 17.4893C22.0075 18.616 21.5593 19.6963 20.7626 20.493C19.9659 21.2897 18.8856 21.7379 17.7589 21.7393Z" fill="black"/>
  <path d="M8.75885 11.2392H10.7589C11.4707 11.2361 12.1754 11.3816 12.8279 11.6662C12.9186 11.7097 13.0171 11.7344 13.1176 11.7389C13.2181 11.7435 13.3184 11.7278 13.4127 11.6928C13.507 11.6578 13.5933 11.6041 13.6664 11.5351C13.7396 11.466 13.7981 11.383 13.8385 11.2909C13.8789 11.1988 13.9003 11.0995 13.9015 10.9989C13.9028 10.8983 13.8838 10.7985 13.8456 10.7054C13.8075 10.6124 13.7511 10.5279 13.6796 10.4571C13.6082 10.3863 13.5233 10.3306 13.4298 10.2932C13.2382 10.2099 13.0426 10.1358 12.8439 10.0712C13.5825 9.4405 14.11 8.59849 14.3554 7.65868C14.6007 6.71887 14.552 5.72644 14.2158 4.81516C13.8797 3.90388 13.2723 3.11755 12.4754 2.56215C11.6786 2.00675 10.7306 1.70898 9.75935 1.70898C8.78805 1.70898 7.8401 2.00675 7.04326 2.56215C6.24641 3.11755 5.63899 3.90388 5.30286 4.81516C4.96672 5.72644 4.91803 6.71887 5.16335 7.65868C5.40867 8.59849 5.9362 9.4405 6.67485 10.0712C5.3199 10.5127 4.1391 11.371 3.30112 12.5236C2.46315 13.6762 2.01085 15.0642 2.00885 16.4892V18.4892C2.00885 18.6881 2.08787 18.8789 2.22852 19.0196C2.36917 19.1602 2.55994 19.2392 2.75885 19.2392H9.81885C10.0178 19.2392 10.2085 19.1602 10.3492 19.0196C10.4898 18.8789 10.5689 18.6881 10.5689 18.4892C10.5689 18.2903 10.4898 18.0996 10.3492 17.9589C10.2085 17.8183 10.0178 17.7392 9.81885 17.7392H3.50885V16.4892C3.51044 15.0973 4.06407 13.7629 5.04829 12.7787C6.03252 11.7945 7.36695 11.2408 8.75885 11.2392ZM9.75885 3.23924C10.4016 3.23924 11.03 3.42985 11.5645 3.78696C12.0989 4.14407 12.5155 4.65165 12.7615 5.24551C13.0074 5.83937 13.0718 6.49284 12.9464 7.12328C12.821 7.75372 12.5115 8.33281 12.0569 8.78733C11.6024 9.24185 11.0233 9.55139 10.3929 9.67679C9.76246 9.80219 9.10899 9.73783 8.51513 9.49184C7.92127 9.24586 7.41369 8.8293 7.05657 8.29484C6.69946 7.76038 6.50885 7.13203 6.50885 6.48924C6.50991 5.62761 6.85266 4.80157 7.46192 4.19231C8.07119 3.58304 8.89722 3.24029 9.75885 3.23924ZM18.2589 14.7392H17.2589C17.0599 14.7392 16.8692 14.8183 16.7285 14.9589C16.5879 15.0996 16.5089 15.2903 16.5089 15.4892C16.5089 15.6881 16.5879 15.8789 16.7285 16.0196C16.8692 16.1602 17.0599 16.2392 17.2589 16.2392H17.5089V19.4892C17.5089 19.6881 17.5879 19.8789 17.7285 20.0196C17.8692 20.1602 18.0599 20.2392 18.2589 20.2392C18.4578 20.2392 18.6485 20.1602 18.7892 20.0196C18.9298 19.8789 19.0089 19.6881 19.0089 19.4892V15.4892C19.0089 15.2903 18.9298 15.0996 18.7892 14.9589C18.6485 14.8183 18.4578 14.7392 18.2589 14.7392Z" fill="black"/>
</svg>