<svg width="24" height="25" viewBox="0 0 24 25" fill="none" xmlns="http://www.w3.org/2000/svg">
<path d="M12 4.78777C12.7329 3.95735 13.8053 3.43359 15 3.43359C17.2091 3.43359 19 5.22445 19 7.43359C19 9.64273 17.2091 11.4336 15 11.4336C13.8053 11.4336 12.7329 10.9098 12 10.0794M15 21.4336H3V20.4336C3 17.1199 5.68629 14.4336 9 14.4336C12.3137 14.4336 15 17.1199 15 20.4336V21.4336ZM15 21.4336H21V20.4336C21 17.1199 18.3137 14.4336 15 14.4336C13.9071 14.4336 12.8825 14.7258 12 15.2363M13 7.43359C13 9.64273 11.2091 11.4336 9 11.4336C6.79086 11.4336 5 9.64273 5 7.43359C5 5.22445 6.79086 3.43359 9 3.43359C11.2091 3.43359 13 5.22445 13 7.43359Z" stroke="black" stroke-linecap="round" stroke-linejoin="round"/>
</svg>
