<svg width="24" height="25" viewBox="0 0 24 25" fill="none" xmlns="http://www.w3.org/2000/svg">
<g clip-path="url(#clip0_607_1953)">
<path fill-rule="evenodd" clip-rule="evenodd" d="M11.2 12.43H12.8C13.0209 12.43 13.2 12.2509 13.2 12.03C13.2 11.8091 13.0209 11.6301 12.8 11.6301H11.2C10.9791 11.6301 10.8 11.8091 10.8 12.03C10.7999 12.2509 10.979 12.43 11.2 12.43ZM12.3999 12.83H11.5999C11.379 12.83 11.2 13.0091 11.2 13.23C11.2 13.4509 11.379 13.63 11.5999 13.63H12.3999C12.6208 13.63 12.7999 13.4509 12.7999 13.23C12.7999 13.0091 12.6208 12.83 12.3999 12.83ZM10.7999 8.43001C10.7999 8.20912 10.6208 8.03003 10.3999 8.03003H9.59994C9.37904 8.03003 9.19995 8.20912 9.19995 8.43001C9.19995 8.65091 9.37904 8.83 9.59994 8.83C9.59994 9.0509 9.77902 9.22998 9.99992 9.22998C10.2208 9.22998 10.3999 9.0509 10.3999 8.83C10.6208 8.83 10.7999 8.65095 10.7999 8.43001ZM13.5999 8.83C13.5999 9.0509 13.779 9.22998 13.9999 9.22998C14.2208 9.22998 14.3999 9.0509 14.3999 8.83C14.6208 8.83 14.7999 8.65091 14.7999 8.43001C14.7999 8.20912 14.6208 8.03003 14.3999 8.03003H13.5999C13.379 8.03003 13.1999 8.20912 13.1999 8.43001C13.1999 8.65095 13.379 8.83 13.5999 8.83ZM11.5999 10.83H12.3999C12.6208 10.83 12.7999 10.6509 12.7999 10.43C12.7999 10.2091 12.6208 10.03 12.3999 10.03H11.5999C11.379 10.03 11.2 10.2091 11.2 10.43C11.2 10.6509 11.379 10.83 11.5999 10.83Z" fill="black"/>
<path d="M2.91717 18.9472C1.88638 19.9772 1.19995 21.0336 1.19995 22.83V23.6336C1.19995 24.0754 1.55813 24.4336 1.99996 24.4336H22C22.4418 24.4336 22.8 24.0754 22.8 23.6336V22.83C22.8 21.032 22.1136 19.9772 21.0827 18.9472C19.9572 17.822 16.3847 16.7512 15.5007 16.4992C15.1543 15.597 15.0308 14.6245 15.1408 13.6644L16.118 12.8088C16.3323 12.621 16.504 12.3896 16.6216 12.1301C16.7392 11.8706 16.8 11.5889 16.8 11.304V10.79C17.7305 10.6013 18.3993 9.78324 18.3993 8.83379C18.3993 7.88434 17.7305 7.06626 16.8 6.8776L17.1419 5.50919L18.5904 4.78481C18.8901 4.63508 19.1427 4.40571 19.3207 4.12185C19.4986 3.83798 19.5949 3.5106 19.599 3.17561C19.6032 2.84061 19.515 2.51095 19.3441 2.22279C19.1732 1.93462 18.9263 1.69909 18.6304 1.54202C17.6504 1.03641 15.7044 0.433594 11.9999 0.433594C8.29551 0.433594 6.34956 1.03641 5.36995 1.54198C5.0739 1.69894 4.82681 1.93444 4.65583 2.22262C4.48485 2.51081 4.39658 2.84053 4.40071 3.17559C4.40485 3.51066 4.50122 3.8381 4.67926 4.12198C4.8573 4.40586 5.11011 4.6352 5.40995 4.78481L6.85836 5.50919L7.19996 6.8776C6.2694 7.06626 5.60057 7.88434 5.60057 8.83379C5.60057 9.78324 6.2694 10.6013 7.19996 10.79V11.304C7.20004 11.589 7.26104 11.8707 7.37887 12.1302C7.4967 12.3898 7.66864 12.6211 7.88316 12.8088L8.86037 13.6644C8.97032 14.6245 8.84683 15.597 8.50038 16.4992C7.61514 16.7512 4.04276 17.822 2.91717 18.9472ZM5.62034 23.6336H1.99996V22.83C1.99996 21.302 2.56714 20.428 3.48278 19.5128C4.01559 18.98 5.34357 18.406 6.60278 17.9528L5.19 20.1204C5.11844 20.2299 5.07484 20.3554 5.06303 20.4857C5.05121 20.616 5.07155 20.7472 5.12224 20.8678C5.17294 20.9884 5.25245 21.0948 5.35381 21.1775C5.45517 21.2603 5.57527 21.3169 5.7036 21.3424L6.15961 21.4328C5.84921 22.1281 5.66654 22.8736 5.62034 23.6336ZM7.63396 17.8336L8.48916 18.6888C7.70419 19.208 7.04243 19.8929 6.55038 20.6952L5.85879 20.5563L7.63396 17.8336ZM10.7999 22.4336C10.4098 22.7279 10.1408 23.1547 10.0436 23.6336H8.02194C8.17504 22.0394 9.27032 20.6931 10.7999 20.2188V22.4336ZM13.9564 23.6336C13.8593 23.1546 13.5902 22.7277 13.2 22.4336L13.1952 20.2136C14.727 20.689 15.824 22.0371 15.978 23.6336H13.9564ZM16.7831 23.6336C16.6267 21.6861 15.3005 20.0299 13.4343 19.4516C13.3156 19.4141 13.1897 19.4054 13.067 19.4263C12.9443 19.4471 12.8283 19.4969 12.7287 19.5716C12.6273 19.6464 12.5448 19.7439 12.4877 19.8562C12.4306 19.9686 12.4005 20.0927 12.3999 20.2188V22.6496C12.3999 22.7198 12.4183 22.7889 12.4534 22.8498C12.4885 22.9107 12.5391 22.9612 12.5999 22.9964C12.8441 23.14 13.0292 23.3659 13.1219 23.6335H10.8799C10.9721 23.3662 11.1564 23.1403 11.3999 22.9964C11.4607 22.9612 11.5113 22.9107 11.5464 22.8498C11.5815 22.7889 11.5999 22.7198 11.5999 22.6496V20.2188C11.5995 20.0925 11.5696 19.968 11.5125 19.8553C11.4554 19.7427 11.3727 19.6449 11.2711 19.57C11.1716 19.4953 11.0557 19.4454 10.933 19.4246C10.8103 19.4037 10.6845 19.4124 10.5659 19.45C8.699 20.0284 7.37251 21.6854 7.21665 23.6335H6.42027C6.62502 20.7027 9.06229 18.4298 12.0003 18.4298C14.9382 18.4298 17.3755 20.7027 17.5802 23.6335L16.7831 23.6336ZM9.31716 16.5976C9.5666 15.8908 9.69546 15.1471 9.69837 14.3976L10.0844 14.7352C10.4486 15.0539 10.916 15.2296 11.4 15.23H12.6C13.0843 15.2299 13.5522 15.0541 13.9168 14.7352L14.3028 14.3976C14.3057 15.1471 14.4345 15.8908 14.684 16.5976L12 17.6064L9.31716 16.5976ZM20.5171 19.5128C21.4327 20.428 21.9999 21.302 21.9999 22.83V23.6336H18.3795C18.3337 22.8739 18.1516 22.1287 17.8419 21.4336L18.2979 21.3432C18.4263 21.3176 18.5464 21.261 18.6478 21.1781C18.7492 21.0953 18.8287 20.9889 18.8794 20.8682C18.9301 20.7475 18.9503 20.6161 18.9384 20.4858C18.9265 20.3554 18.8828 20.2299 18.8111 20.1204L17.3999 17.9536C18.6563 18.406 19.9843 18.98 20.5171 19.5136L20.5171 19.5128ZM18.1416 20.5576L17.4496 20.6952C16.9576 19.8927 16.2958 19.2077 15.5108 18.6884L16.366 17.8336L18.1416 20.5576ZM15.2188 17.2504C15.3737 17.294 15.5283 17.339 15.6824 17.3856L14.7868 18.2812C14.4141 18.0998 14.0245 17.9555 13.6236 17.8504L15.2188 17.2504ZM7.08394 4.72839L5.76395 4.0692C5.59382 3.98448 5.45082 3.8538 5.35114 3.69198C5.25146 3.53016 5.19909 3.34366 5.19996 3.15361C5.19768 2.96857 5.24661 2.7865 5.34134 2.62753C5.43607 2.46855 5.57292 2.33887 5.73675 2.25282C6.63994 1.78803 8.45633 1.2336 11.9999 1.2336C15.5435 1.2336 17.3619 1.78799 18.2635 2.25321C18.4272 2.33933 18.5639 2.46898 18.6585 2.62786C18.7532 2.78674 18.8021 2.96868 18.7999 3.15361C18.8005 3.34381 18.7478 3.53038 18.6478 3.69215C18.5477 3.85392 18.4044 3.98441 18.2339 4.06881L16.9139 4.728C16.4579 4.27959 15.2399 3.63359 11.9999 3.63359C8.75994 3.63359 7.54196 4.27959 7.08394 4.72839ZM16.3704 5.30361L16.068 6.5136C14.7283 6.77283 13.3637 6.88017 12 6.83359C10.6363 6.88003 9.27166 6.7727 7.93198 6.5136L7.6316 5.31361C7.85679 5.08361 8.78041 4.4336 12 4.4336C15.2636 4.4336 16.1684 5.10161 16.3704 5.30361ZM8.41035 12.2068C8.28155 12.0942 8.1783 11.9555 8.10751 11.7998C8.03673 11.644 8.00005 11.475 7.99993 11.304V10.43C7.99993 10.2091 7.82084 10.03 7.59995 10.03C7.0156 10.0349 6.51377 9.61577 6.41448 9.03992C6.31519 8.46408 6.6477 7.90107 7.19992 7.71001V8.43002C7.19992 8.65092 7.37901 8.83001 7.59991 8.83001C7.8208 8.83001 7.99989 8.65092 7.99989 8.43002V7.34684C9.32115 7.56879 10.6605 7.66482 11.9999 7.63364C13.3393 7.66482 14.6786 7.56879 15.9999 7.34684V8.43002C15.9999 8.65092 16.179 8.83001 16.3999 8.83001C16.6208 8.83001 16.7999 8.65092 16.7999 8.43002V7.71001C17.3521 7.90107 17.6846 8.46408 17.5853 9.03992C17.486 9.61577 16.9842 10.0349 16.3998 10.03C16.179 10.03 15.9999 10.2091 15.9999 10.43V11.304C15.9998 11.4749 15.9633 11.6439 15.8927 11.7996C15.822 11.9553 15.7189 12.0942 15.5903 12.2068L13.3903 14.1328C13.1715 14.3243 12.8906 14.4299 12.5999 14.43H11.3999C11.1091 14.4299 10.8282 14.3243 10.6095 14.1328L8.41035 12.2068ZM10.3772 17.8504C9.97626 17.9555 9.58666 18.0998 9.21398 18.2812L8.3176 17.3856C8.47169 17.339 8.62623 17.294 8.7812 17.2504L10.3772 17.8504Z" fill="black"/>
</g>
<defs>
<clipPath id="clip0_607_1953">
<rect width="24" height="24" fill="white" transform="translate(0 0.433594)"/>
</clipPath>
</defs>
</svg>
