<svg width="24" height="24" viewBox="0 0 24 24" fill="none" xmlns="http://www.w3.org/2000/svg">
<path d="M22.2908 19.4664C22.3848 19.3237 22.4043 19.1453 22.3459 18.9896C22.1221 18.3929 21.6454 17.7994 21.1297 17.4783C21.094 17.3615 21.0227 17.2545 20.9124 17.1832C20.4032 16.8394 19.8097 16.6253 19.2 16.5669C19.0281 16.5475 18.8627 16.6188 18.7524 16.7453C18.0843 16.5799 17.9027 16.1518 17.88 15.5194C18.801 15.101 19.5243 14.1604 19.8064 12.9864H19.8129C20.4291 12.9864 20.9286 12.4869 20.9286 11.8707C20.9283 11.6285 20.8495 11.3929 20.7039 11.1993C20.5582 11.0057 20.3537 10.8646 20.121 10.7972C20.1924 9.96369 20.0529 9.34748 19.6929 8.97126C19.3783 8.64369 18.9859 8.58531 18.7491 8.58531H18.7459C18.4962 8.07288 17.9902 7.86531 17.5427 7.78099V2.51396C17.5427 2.02099 17.1437 1.62207 16.6508 1.62207H2.51347C2.0205 1.62207 1.62158 2.02099 1.62158 2.51396V16.6545C1.62158 17.1475 2.0205 17.5464 2.51347 17.5464H12.587C11.7794 18.195 11.2573 19.1907 11.2573 20.3064V22.1388C11.2573 22.2718 11.3675 22.3821 11.5005 22.3821C11.6335 22.3821 11.7437 22.2718 11.7437 22.1388V20.3064C11.7437 18.6232 13.1124 17.2545 14.7956 17.2545C15.3178 17.2545 15.7946 16.9302 15.9827 16.4437C16.0475 16.2718 16.1189 16.0577 16.1837 15.675C16.3848 15.7269 16.5924 15.7529 16.8064 15.7529C17.0075 15.7529 17.2054 15.7269 17.3967 15.6815C17.4454 16.2977 17.6691 16.9269 18.5091 17.1832C18.0648 17.9713 16.92 19.2686 14.1243 19.768V19.7356C14.1243 19.6026 14.014 19.4923 13.881 19.4923C13.7481 19.4923 13.6378 19.6026 13.6378 19.7356V22.1323C13.6378 22.2653 13.7481 22.3756 13.881 22.3756C14.014 22.3756 14.1243 22.2653 14.1243 22.1323V21.9669C18.4864 21.5842 20.4486 18.9507 21.0194 17.9875C21.4346 18.3021 21.7491 18.7821 21.8854 19.1518C21.8919 19.1648 21.8886 19.181 21.8789 19.194C21.814 19.2913 21.7297 19.4145 21.6292 19.5507C21.1459 20.1929 20.0919 21.354 18.4605 21.9021C18.334 21.9442 18.2659 22.0837 18.3081 22.2102C18.3437 22.3107 18.4378 22.3756 18.5383 22.3756C18.5643 22.3756 18.5902 22.3723 18.6162 22.3626C20.1502 21.8469 21.201 20.861 21.8497 20.0534C21.8562 20.1377 21.8659 20.2188 21.8659 20.3032V22.1356C21.8659 22.2686 21.9762 22.3788 22.1091 22.3788C22.2421 22.3788 22.3524 22.2686 22.3524 22.1356V20.3032C22.3524 20.034 22.3167 19.768 22.2551 19.5053C22.2713 19.4956 22.281 19.4794 22.2908 19.4664ZM20.4421 11.8642C20.4421 12.1853 20.2021 12.4448 19.894 12.4869C19.92 12.2923 19.9362 12.0977 19.9394 11.8934C19.9913 11.6794 20.0302 11.4783 20.0627 11.2837C20.2832 11.381 20.4421 11.6048 20.4421 11.8642ZM18.3567 8.90964C18.3956 9.02639 18.5156 9.0945 18.6356 9.0718C18.6389 9.0718 19.0573 9.00045 19.3427 9.29883C19.5373 9.50315 19.7156 9.91829 19.641 10.7615C19.4562 10.4469 19.1902 10.2102 18.8529 10.0772C18.214 9.82423 17.4324 9.99288 16.8097 10.5086C16.187 9.99288 15.4054 9.82423 14.7664 10.0772C14.4032 10.2199 14.1243 10.4859 13.9394 10.8394C13.881 10.3204 13.9135 9.67829 14.2637 9.16585C14.7016 8.52694 15.5578 8.20261 16.8097 8.20261C17.7048 8.20585 18.1978 8.42964 18.3567 8.90964ZM12.7491 15.7399V14.9064H14.601V15.7399H12.7491ZM10.4108 15.7399V14.9064H12.2627V15.7399H10.4108ZM9.2432 15.7399V14.9064H9.92428V15.7399H9.2432ZM11.5816 13.5864H13.4335V14.4199H11.5816V13.5864ZM11.0951 14.4199H9.2432V13.5864H11.0951V14.4199ZM13.92 14.4199V13.5864H14.0043C14.1243 13.888 14.2767 14.1669 14.4519 14.4199H13.92ZM9.2432 13.0999V10.0967C9.2432 9.6945 8.91564 9.36694 8.51347 9.36694H4.68969C4.28753 9.36694 3.95996 9.6945 3.95996 10.0967V13.0999H2.10807V6.04261H17.0562V6.82748H14.9383C14.627 6.82748 14.3708 7.08369 14.3708 7.39504V8.0145C14.3708 8.12153 14.4064 8.21883 14.4616 8.3064C14.2216 8.4718 14.0173 8.6664 13.8583 8.89667C13.4464 9.49991 13.3913 10.2199 13.4432 10.8069C13.2227 10.8824 13.0313 11.0248 12.8958 11.2144C12.7603 11.404 12.6875 11.6312 12.6875 11.8642C12.6875 12.4804 13.1902 12.9799 13.8064 12.9799H13.8097L13.8389 13.0999H9.2432ZM3.95996 14.4199H2.10807V13.5864H3.95996V14.4199ZM2.10807 14.9064H3.95996V15.7399H2.10807V14.9064ZM2.10807 4.7745H17.0562V5.55937H2.10807V4.7745ZM13.6767 11.8999C13.6767 12.101 13.6962 12.2956 13.7221 12.4869C13.5711 12.4666 13.4324 12.3924 13.3317 12.278C13.231 12.1636 13.175 12.0167 13.174 11.8642C13.174 11.621 13.3102 11.4069 13.5146 11.3032C13.5729 11.5853 13.6443 11.8026 13.6767 11.8999ZM16.8064 7.71937C16.0346 7.71937 15.3956 7.83937 14.8832 8.06964C14.867 8.05342 14.8573 8.03721 14.8573 8.0145V7.39504C14.8573 7.34964 14.8929 7.31396 14.9383 7.31396H17.0562V7.72261C16.9589 7.71937 16.8713 7.71937 16.8064 7.71937ZM2.51347 2.10856H16.6508C16.8746 2.10856 17.0562 2.29018 17.0562 2.51396V4.28802H2.10807V2.51396C2.10807 2.29018 2.28969 2.10856 2.51347 2.10856ZM2.51347 17.0599C2.28969 17.0599 2.10807 16.8783 2.10807 16.6545V16.2264H3.95996V17.0599H2.51347ZM4.44645 10.0967C4.44645 9.96369 4.55672 9.85342 4.68969 9.85342H8.51347C8.64645 9.85342 8.75672 9.96369 8.75672 10.0967V17.0599H4.44645V10.0967ZM9.2432 17.0599V16.2264H11.0951V17.0599H9.2432ZM11.5816 17.0599V16.2264H13.4335V17.0405C13.4205 17.0469 13.4043 17.0534 13.3913 17.0599H11.5816ZM14.7956 16.768C14.494 16.768 14.1989 16.8102 13.92 16.8815V16.2264H15.5448C15.5383 16.2394 15.5351 16.2556 15.5286 16.2686C15.4151 16.5669 15.12 16.768 14.7956 16.768ZM15.6778 15.7399H15.0908V15.1107C15.2854 15.2696 15.4994 15.4026 15.72 15.5064C15.7037 15.594 15.6908 15.6686 15.6778 15.7399ZM15.1362 14.4977C15.1322 14.4941 15.1289 14.4897 15.1264 14.4848C14.8119 14.1507 14.5621 13.7291 14.3935 13.2459C14.2508 12.834 14.1664 12.3799 14.1632 11.8999C14.1632 11.8934 14.16 11.8902 14.16 11.8837C14.16 11.8772 14.1632 11.874 14.1632 11.8707C14.1891 11.1929 14.4681 10.7161 14.9416 10.528C15.4605 10.3204 16.1254 10.5086 16.6346 11.008C16.7286 11.1021 16.881 11.1021 16.9751 11.008C17.4843 10.5086 18.1491 10.3204 18.6681 10.528C19.1416 10.7161 19.4173 11.1929 19.4464 11.8675C19.4432 13.7421 18.2594 15.2632 16.8032 15.2632C16.174 15.2664 15.5935 14.9777 15.1362 14.4977ZM20.6594 17.6534C20.1989 18.4642 18.3762 21.0945 14.1275 21.4837V20.261C17.2605 19.7226 18.5091 18.2145 18.9762 17.3486C19.0313 17.2448 19.0735 17.154 19.1059 17.0794C19.1156 17.0599 19.1319 17.0469 19.1513 17.0437C19.68 17.0956 20.1956 17.2804 20.64 17.5788C20.6627 17.5983 20.6724 17.6275 20.6594 17.6534Z" fill="black"/>
<path d="M5.79884 6.82715H3.45722C3.14586 6.82715 2.88965 7.08336 2.88965 7.39472V8.01418C2.88965 8.32553 3.14586 8.58174 3.45722 8.58174H5.79884C6.11019 8.58174 6.36641 8.32553 6.36641 8.01418V7.39472C6.36641 7.08012 6.11343 6.82715 5.79884 6.82715ZM5.87992 8.01418C5.87992 8.05958 5.84424 8.09526 5.79884 8.09526H3.45722C3.41181 8.09526 3.37613 8.05958 3.37613 8.01418V7.39472C3.37613 7.34931 3.41181 7.31363 3.45722 7.31363H5.79884C5.84424 7.31363 5.87992 7.34931 5.87992 7.39472V8.01418ZM8.82154 6.82715H7.71559C7.40424 6.82715 7.14803 7.08336 7.14803 7.39472V8.01418C7.14803 8.32553 7.40424 8.58174 7.71559 8.58174H8.82154C9.13289 8.58174 9.38911 8.32553 9.38911 8.01418V7.39472C9.38911 7.08012 9.13614 6.82715 8.82154 6.82715ZM8.90262 8.01418C8.90262 8.05958 8.86695 8.09526 8.82154 8.09526H7.71559C7.67019 8.09526 7.63451 8.05958 7.63451 8.01418V7.39472C7.63451 7.34931 7.67019 7.31363 7.71559 7.31363H8.82154C8.86695 7.31363 8.90262 7.34931 8.90262 7.39472V8.01418ZM13.5859 8.01418V7.39472C13.5859 7.08336 13.3296 6.82715 13.0183 6.82715H10.7383C10.4269 6.82715 10.1707 7.08336 10.1707 7.39472V8.01418C10.1707 8.32553 10.4269 8.58174 10.7383 8.58174H13.0183C13.3329 8.58174 13.5859 8.32553 13.5859 8.01418ZM10.6572 8.01418V7.39472C10.6572 7.34931 10.6929 7.31363 10.7383 7.31363H13.0183C13.0637 7.31363 13.0994 7.34931 13.0994 7.39472V8.01418C13.0994 8.05958 13.0637 8.09526 13.0183 8.09526H10.7383C10.6929 8.09526 10.6572 8.05958 10.6572 8.01418Z" fill="black"/>
</svg>
