<svg width="24" height="24" viewBox="0 0 24 24" fill="none" xmlns="http://www.w3.org/2000/svg">
<g clip-path="url(#clip0_607_8507)">
<path d="M13.2001 12.799C13.2001 12.6929 13.158 12.5912 13.083 12.5162C13.008 12.4411 12.9062 12.399 12.8001 12.399H11.2C10.9791 12.399 10.8 12.5781 10.8 12.799C10.8 13.0199 10.9791 13.199 11.2 13.199H12.8001C12.8527 13.199 12.9047 13.1887 12.9532 13.1686C13.0017 13.1485 13.0458 13.119 13.083 13.0819C13.1201 13.0447 13.1496 13.0006 13.1697 12.9521C13.1898 12.9036 13.2001 12.8515 13.2001 12.799ZM10.3999 8.79869H9.59984C9.49375 8.79869 9.392 8.84083 9.31699 8.91585C9.24197 8.99087 9.19982 9.09261 9.19982 9.1987C9.19982 9.3048 9.24197 9.40654 9.31699 9.48156C9.392 9.55658 9.49375 9.59872 9.59984 9.59872C9.59984 9.70481 9.64198 9.80656 9.717 9.88158C9.79202 9.9566 9.89377 9.99874 9.99986 9.99874C10.1059 9.99874 10.2077 9.9566 10.2827 9.88158C10.3577 9.80656 10.3999 9.70481 10.3999 9.59872C10.506 9.59872 10.6077 9.55658 10.6827 9.48156C10.7578 9.40654 10.7999 9.3048 10.7999 9.1987C10.7999 9.14617 10.7896 9.09416 10.7695 9.04562C10.7494 8.99709 10.7199 8.95299 10.6828 8.91584C10.6456 8.87869 10.6015 8.84923 10.553 8.82912C10.5045 8.80902 10.4525 8.79868 10.3999 8.79869ZM14.4002 8.79869H13.6002C13.4941 8.79869 13.3923 8.84083 13.3173 8.91585C13.2423 8.99087 13.2001 9.09261 13.2001 9.1987C13.2001 9.3048 13.2423 9.40654 13.3173 9.48156C13.3923 9.55658 13.4941 9.59872 13.6002 9.59872C13.6002 9.70481 13.6423 9.80656 13.7173 9.88158C13.7923 9.9566 13.8941 9.99874 14.0002 9.99874C14.1063 9.99874 14.208 9.9566 14.283 9.88158C14.3581 9.80656 14.4002 9.70481 14.4002 9.59872C14.5063 9.59872 14.608 9.55658 14.6831 9.48156C14.7581 9.40654 14.8002 9.3048 14.8002 9.1987C14.8002 9.14617 14.7899 9.09415 14.7698 9.04561C14.7497 8.99708 14.7203 8.95297 14.6831 8.91582C14.646 8.87868 14.6019 8.84921 14.5533 8.82911C14.5048 8.80901 14.4528 8.79867 14.4002 8.79869ZM11.6 11.5989H12.4001C12.5062 11.5989 12.6079 11.5568 12.683 11.4817C12.758 11.4067 12.8001 11.305 12.8001 11.1989C12.8001 11.0928 12.758 10.9911 12.683 10.916C12.6079 10.841 12.5062 10.7989 12.4001 10.7989H11.6C11.4939 10.7989 11.3922 10.841 11.3172 10.916C11.2422 10.9911 11.2 11.0928 11.2 11.1989C11.2 11.305 11.2422 11.4067 11.3172 11.4817C11.3922 11.5568 11.4939 11.5989 11.6 11.5989ZM10.7999 8.39867C10.906 8.39867 11.0078 8.35652 11.0828 8.28151C11.1578 8.20649 11.2 8.10474 11.2 7.99865C11.2 7.89256 11.1578 7.79081 11.0828 7.7158C11.0078 7.64078 10.906 7.59863 10.7999 7.59863H9.19982C9.09373 7.59863 8.99198 7.64078 8.91697 7.7158C8.84195 7.79081 8.7998 7.89256 8.7998 7.99865C8.7998 8.10474 8.84195 8.20649 8.91697 8.28151C8.99198 8.35652 9.09373 8.39867 9.19982 8.39867H10.7999ZM13.2001 8.39867H14.8003C15.0212 8.39867 15.2003 8.21959 15.2003 7.99865C15.2003 7.77771 15.0212 7.59863 14.8003 7.59863H13.2001C13.0941 7.59863 12.9923 7.64078 12.9173 7.7158C12.8423 7.79081 12.8001 7.89256 12.8001 7.99865C12.8001 8.10474 12.8423 8.20649 12.9173 8.28151C12.9923 8.35652 13.0941 8.39867 13.2001 8.39867Z" fill="black"/>
<path d="M4.39941 24H19.6007C20.4844 24 21.2008 23.2836 21.2008 22.3999V21.1998C21.2005 20.9517 21.1235 20.7097 20.9802 20.5071C20.837 20.3045 20.6346 20.1511 20.4007 20.0681V18.7024C20.4029 18.3079 20.2549 17.9275 19.9867 17.6383C19.9048 16.6779 19.2159 15.8783 18.2782 15.6553L16.324 15.1669C15.9691 14.8734 15.5857 14.6163 15.1795 14.3992L16.1156 13.5819C16.331 13.3936 16.5036 13.1613 16.6217 12.9007C16.7399 12.6401 16.8008 12.3572 16.8004 12.071V11.559C17.8805 11.3411 18.5794 10.2889 18.3615 9.20887C18.2954 8.88121 18.148 8.57542 17.9329 8.31956C17.7178 8.06371 17.4419 7.86601 17.1305 7.74461C17.4882 6.94967 17.6494 6.08034 17.6005 5.21C17.6005 3.18103 15.6268 2.18336 14.6691 1.81929C14.7264 1.77672 14.7879 1.74012 14.8527 1.71007C15.1536 1.57384 15.2871 1.21948 15.1509 0.918609C15.0887 0.781254 14.9769 0.672456 14.8379 0.61399C10.6139 -1.19652 8.51735 1.51533 8.11972 2.11177C7.72613 2.30344 7.37663 2.57475 7.09334 2.90851C6.81005 3.24228 6.59915 3.63123 6.47399 4.05073C6.07397 5.42363 6.62799 6.93097 6.98961 7.70105C5.93929 8.03455 5.35813 9.15636 5.69163 10.2067C5.79941 10.5462 5.99611 10.8506 6.26128 11.0884C6.52646 11.3262 6.85045 11.4887 7.19963 11.559V12.071C7.19948 12.3569 7.26053 12.6395 7.37865 12.8998C7.49678 13.1601 7.66925 13.3922 7.88448 13.5803L8.82014 14.3992C8.41391 14.6168 8.03049 14.8745 7.67563 15.1685L5.72186 15.6553C4.78372 15.8785 4.09474 16.6786 4.01331 17.6395C3.74539 17.9284 3.59737 18.3084 3.59928 18.7024V20.0681C3.36546 20.1511 3.16305 20.3045 3.01981 20.5071C2.87657 20.7097 2.79951 20.9517 2.79919 21.1998V22.3999C2.79929 23.2836 3.51569 24 4.39941 24ZM10.7999 17.5063C10.2546 17.427 9.72884 17.2466 9.24978 16.9742C9.66538 16.6357 10.1401 16.3772 10.6499 16.2117C10.6656 16.2069 10.6823 16.2059 10.6985 16.209C10.7147 16.2121 10.7299 16.219 10.7427 16.2293C10.7599 16.2413 10.774 16.2571 10.7839 16.2755C10.7939 16.2939 10.7993 16.3144 10.7999 16.3353V17.5063ZM8.65977 17.5462C9.30738 17.9574 10.0385 18.2191 10.7999 18.3123V18.7995C10.5842 18.9617 10.4034 19.1658 10.2684 19.3995C10.1334 19.6332 10.047 19.8917 10.0143 20.1596L7.99971 21.3261V21.1997C7.99934 21.0327 7.96389 20.8676 7.89567 20.7152C7.82745 20.5628 7.72797 20.4264 7.60368 20.3148C7.62592 19.2978 7.99901 18.3197 8.65977 17.5462ZM7.99971 22.7999V22.1871C8.09943 22.1694 8.19553 22.1353 8.28412 22.0863L10.6003 20.7462C10.6611 20.711 10.7115 20.6605 10.7465 20.5997C10.7816 20.5389 10.8 20.4699 10.7999 20.3997C10.8003 20.1894 10.8559 19.9829 10.9612 19.8008C11.0665 19.6188 11.2178 19.4676 11.4 19.3624C11.4608 19.3273 11.5114 19.2767 11.5465 19.2158C11.5816 19.155 11.6001 19.0859 11.6 19.0156V16.3354C11.5996 16.1884 11.5645 16.0435 11.4974 15.9126C11.4304 15.7817 11.3334 15.6685 11.2144 15.5822C11.0998 15.4973 10.9666 15.4411 10.8259 15.4182C10.6852 15.3953 10.5411 15.4064 10.4055 15.4506C8.40207 16.1056 6.98731 17.8989 6.81644 19.9997H6.01401C6.04232 19.5521 6.12179 19.1092 6.25084 18.6796C7.2 15.5045 10.5434 13.7 13.7186 14.6491C14.6723 14.9342 15.5401 15.4521 16.2438 16.1561C16.9476 16.8601 17.4651 17.7282 17.7498 18.682C17.8788 19.1107 17.9582 19.5529 17.9862 19.9997H17.1846C17.0284 17.9076 15.6258 16.1162 13.6323 15.4626C13.491 15.415 13.3405 15.4016 13.193 15.4235C13.0456 15.4454 12.9055 15.502 12.7842 15.5886C12.6645 15.6736 12.5671 15.7863 12.5002 15.917C12.4334 16.0477 12.3991 16.1926 12.4001 16.3394V19.0157C12.4001 19.0859 12.4185 19.155 12.4536 19.2159C12.4888 19.2768 12.5393 19.3273 12.6002 19.3625C12.7823 19.4676 12.9336 19.6188 13.0389 19.8009C13.1443 19.9829 13.1999 20.1894 13.2002 20.3998C13.2002 20.47 13.2187 20.539 13.2538 20.5998C13.2889 20.6606 13.3394 20.7111 13.4003 20.7462L15.7204 22.0863C15.8077 22.1346 15.9023 22.1681 16.0004 22.1855V22.8C16.0017 22.9365 16.0266 23.0719 16.074 23.2H15.6924C15.6149 23.023 15.4832 22.8751 15.3164 22.7776L12.9962 21.4374C12.9347 21.4019 12.8649 21.3834 12.7939 21.3839C12.7229 21.3843 12.6532 21.4036 12.5922 21.4398C12.4118 21.5429 12.2078 21.5971 12.0001 21.5971C11.7924 21.5971 11.5884 21.5429 11.408 21.4398C11.347 21.4036 11.2773 21.3843 11.2063 21.3839C11.1353 21.3834 11.0655 21.4019 11.004 21.4374L8.67659 22.7795C8.51309 22.8783 8.38402 23.0252 8.30695 23.2H7.92611C7.97347 23.0719 7.99837 22.9365 7.99971 22.7999ZM13.2001 18.3123C13.9645 18.219 14.6983 17.9556 15.3475 17.5415C16.0085 18.316 16.3796 19.2964 16.3972 20.3145C16.2727 20.426 16.1731 20.5625 16.1047 20.715C16.0363 20.8675 16.0008 21.0326 16.0004 21.1998V21.3242L13.9858 20.1596C13.9532 19.8917 13.8668 19.6331 13.7318 19.3994C13.5968 19.1657 13.4159 18.9617 13.2001 18.7995V18.3123ZM13.2001 17.5063V16.3393C13.1997 16.3199 13.2042 16.3006 13.213 16.2833C13.2219 16.266 13.2349 16.2512 13.2509 16.2401C13.2695 16.2274 13.2908 16.2192 13.3131 16.2163C13.3355 16.2134 13.3581 16.2158 13.3793 16.2234C13.8791 16.3882 14.3451 16.6416 14.7551 16.9714C14.2748 17.2456 13.7474 17.427 13.2001 17.5063ZM14.4479 23.1999H9.54864L11.2164 22.2399C11.4642 22.345 11.7306 22.3992 11.9998 22.3992C12.269 22.3992 12.5355 22.345 12.7833 22.2399L14.4479 23.1999ZM20.4007 21.1998V22.3999C20.4007 22.8417 20.0425 23.1999 19.6007 23.1999H17.2005C17.1479 23.1999 17.0959 23.1896 17.0474 23.1695C16.9988 23.1494 16.9547 23.1199 16.9176 23.0828C16.8805 23.0456 16.851 23.0015 16.8309 22.953C16.8108 22.9045 16.8004 22.8524 16.8004 22.7999V21.1998C16.8004 21.1473 16.8108 21.0952 16.8309 21.0467C16.851 20.9982 16.8805 20.9541 16.9176 20.9169C16.9547 20.8798 16.9988 20.8503 17.0474 20.8302C17.0959 20.8101 17.1479 20.7998 17.2005 20.7998H18.4006C18.5066 20.7998 18.6084 20.7576 18.6834 20.6826C18.7584 20.6076 18.8006 20.5059 18.8006 20.3998C18.8019 19.7407 18.7061 19.0851 18.5162 18.454C18.5029 18.4092 18.4854 18.3664 18.471 18.322C18.5452 18.1837 18.6696 18.0791 18.8186 18.0296C18.9057 17.9998 18.9988 17.9921 19.0896 18.0073C19.1803 18.0224 19.2659 18.0599 19.3386 18.1164C19.4245 18.1873 19.4928 18.2771 19.5382 18.3787C19.5837 18.4804 19.605 18.5912 19.6006 18.7024V20.3998C19.6006 20.6207 19.7797 20.7998 20.0006 20.7998C20.2215 20.7998 20.4007 20.9788 20.4007 21.1998ZM19.0591 17.2106C18.8931 17.1999 18.7265 17.2198 18.5678 17.2694C18.4163 17.3226 18.2748 17.4011 18.1494 17.5014C17.9391 17.0596 17.6815 16.6419 17.3809 16.2557L18.0842 16.4313C18.2937 16.4822 18.4896 16.5783 18.658 16.7129C18.8264 16.8475 18.9633 17.0174 19.0591 17.2106ZM7.24322 4.27233C7.34434 3.94122 7.51605 3.63597 7.7465 3.37762C7.97696 3.11926 8.26069 2.91395 8.57815 2.77581C8.65016 2.73961 8.70976 2.68279 8.74935 2.61258C8.81578 2.49257 10.3751 -0.211267 14.1586 1.20288C14.0354 1.2987 13.9257 1.41079 13.8326 1.5361C13.7746 1.61134 13.7353 1.69927 13.7179 1.79267C13.7005 1.88607 13.7055 1.98226 13.7326 2.07333C13.7607 2.1661 13.8106 2.2508 13.8781 2.32038C13.9456 2.38996 14.0287 2.4424 14.1206 2.47335C14.7494 2.67816 16.8004 3.47825 16.8004 5.21C16.8163 5.79877 16.745 6.38665 16.5888 6.95455C16.4239 6.57095 16.1401 6.25051 15.7792 6.04046C15.7088 6.00439 15.6292 5.99045 15.5507 6.00047C13.4101 6.26768 12.8085 5.98369 11.812 5.51284C11.2658 5.24463 10.7027 5.01239 10.1263 4.81758C9.83651 4.69737 9.52139 4.65114 9.20931 4.68305C8.89722 4.71497 8.59798 4.82403 8.33855 5.00041C7.85884 5.39649 7.52701 5.94302 7.39689 6.55135C7.12407 5.82301 7.07065 5.0307 7.24322 4.27233ZM8.41093 12.9775C8.28167 12.8645 8.17809 12.7251 8.10716 12.5687C8.03623 12.4124 7.99959 12.2427 7.99971 12.071V11.1989C7.99971 11.0928 7.95756 10.9911 7.88255 10.9161C7.80753 10.8411 7.70578 10.7989 7.59969 10.7989C6.9409 10.8044 6.40236 10.2748 6.39682 9.61606C6.39473 9.3663 6.47109 9.12218 6.61513 8.91813C6.75917 8.71408 6.96363 8.56039 7.19967 8.47873V9.19879C7.19967 9.30488 7.24182 9.40663 7.31684 9.48164C7.39185 9.55666 7.4936 9.59881 7.59969 9.59881C7.70578 9.59881 7.80753 9.55666 7.88255 9.48164C7.95756 9.40663 7.99971 9.30488 7.99971 9.19879V7.99869C7.99971 7.50707 8.14452 6.12775 8.80617 5.6509C8.96407 5.55118 9.1443 5.49232 9.33061 5.47961C9.51693 5.4669 9.70348 5.50074 9.87346 5.57809C10.4194 5.76346 10.9527 5.98408 11.47 6.23857C12.4981 6.72419 13.2462 7.07864 15.5036 6.81462C15.6726 6.95988 15.8055 7.1425 15.8918 7.34803C15.978 7.55356 16.0152 7.77634 16.0004 7.99874V9.19884C16.0004 9.30493 16.0425 9.40667 16.1176 9.48169C16.1926 9.55671 16.2943 9.59885 16.4004 9.59885C16.5065 9.59885 16.6083 9.55671 16.6833 9.48169C16.7583 9.40667 16.8004 9.30493 16.8004 9.19884V8.47878C17.423 8.69419 17.7532 9.37355 17.5377 9.99615C17.4561 10.2322 17.3024 10.4366 17.0983 10.5807C16.8943 10.7247 16.6502 10.8011 16.4004 10.799C16.2943 10.799 16.1926 10.8411 16.1176 10.9162C16.0425 10.9912 16.0004 11.0929 16.0004 11.199V12.0711C16.0005 12.2428 15.9639 12.4125 15.893 12.5689C15.822 12.7252 15.7184 12.8646 15.5892 12.9776L14.3751 14.0393C12.8458 13.4541 11.1543 13.4541 9.62505 14.0393L8.41093 12.9775ZM5.91594 16.4314L6.6188 16.2558C6.3181 16.6417 6.06055 17.0595 5.85073 17.5015C5.72543 17.4009 5.58393 17.3225 5.43229 17.2695C5.27356 17.2198 5.10702 17.1999 4.94105 17.2107C5.03676 17.0175 5.17364 16.8475 5.34207 16.7129C5.5105 16.5783 5.70638 16.4822 5.91594 16.4314ZM3.59932 21.1998C3.59932 20.9788 3.7784 20.7997 3.99934 20.7997C4.22028 20.7997 4.39936 20.6207 4.39936 20.3997V18.7024C4.39491 18.5912 4.41617 18.4805 4.46147 18.3788C4.50678 18.2772 4.57491 18.1874 4.66057 18.1163C4.73328 18.0599 4.81886 18.0225 4.90963 18.0073C5.0004 17.9922 5.09351 17.9998 5.1806 18.0295C5.32957 18.079 5.45394 18.1836 5.5282 18.3219C5.51419 18.3655 5.49661 18.4072 5.48381 18.4511C5.29368 19.0831 5.19784 19.7397 5.1994 20.3997C5.1994 20.5058 5.24154 20.6076 5.31656 20.6826C5.39158 20.7576 5.49332 20.7997 5.59941 20.7997H6.79951C6.85205 20.7997 6.90406 20.8101 6.9526 20.8302C7.00113 20.8503 7.04522 20.8798 7.08237 20.9169C7.11951 20.954 7.14898 20.9981 7.16908 21.0467C7.18919 21.0952 7.19953 21.1472 7.19953 21.1998V22.7999C7.19953 22.8524 7.18919 22.9044 7.16908 22.9529C7.14898 23.0015 7.11951 23.0456 7.08237 23.0827C7.04522 23.1199 7.00113 23.1493 6.9526 23.1694C6.90406 23.1895 6.85205 23.1999 6.79951 23.1999H4.39931C3.95743 23.1999 3.59923 22.8417 3.59923 22.3998V21.1998H3.59932Z" fill="black"/>
<path d="M12 20.7998C12.2209 20.7998 12.4 20.6207 12.4 20.3998C12.4 20.1789 12.2209 19.9998 12 19.9998C11.7791 19.9998 11.6 20.1789 11.6 20.3998C11.6 20.6207 11.7791 20.7998 12 20.7998Z" fill="black"/>
</g>
<defs>
<clipPath id="clip0_607_8507">
<rect width="24" height="24" fill="white"/>
</clipPath>
</defs>
</svg>
