<svg width="24" height="24" viewBox="0 0 24 24" fill="none" xmlns="http://www.w3.org/2000/svg">
<g clip-path="url(#clip0_802_5639)">
<path d="M17.2218 10.8698C17.2218 11.2582 16.9071 11.573 16.5187 11.573C16.1305 11.573 15.8155 11.2582 15.8155 10.8698C15.8155 10.4817 16.1305 10.1667 16.5187 10.1667C16.9071 10.1667 17.2218 10.4817 17.2218 10.8698ZM16.518 3.38867C15.0906 3.38867 13.9328 4.54372 13.9328 5.97383V5.97472C13.9328 6.36289 14.2476 6.67747 14.636 6.67747C15.0243 6.67747 15.3391 6.36214 15.3391 5.97378C15.3391 5.32377 15.8648 4.79497 16.5188 4.79497C17.1692 4.79497 17.6984 5.32414 17.6984 5.97472C17.6984 6.62511 17.1692 7.15428 16.5188 7.15428C16.1305 7.15428 15.8157 7.46923 15.8157 7.85741V8.6105C15.8157 8.99886 16.1305 9.31363 16.5188 9.31363C16.9071 9.31363 17.222 8.99886 17.222 8.6105V8.46345C18.3073 8.15642 19.1047 7.15681 19.1047 5.97472C19.1047 4.54869 17.9447 3.38867 16.518 3.38867ZM6.74709 17.944C7.62084 17.2635 8.18447 16.2026 8.18447 15.0121C8.18447 12.9633 6.51745 11.2965 4.46869 11.2965C2.41992 11.2965 0.753094 12.9633 0.753094 15.0121C0.753094 16.2026 1.31672 17.2635 2.19028 17.9439C0.957328 18.6775 0 20.0629 0 21.7903V23.2965C0 23.6848 0.314766 23.9996 0.703125 23.9996H8.23444C8.62261 23.9996 8.93756 23.6848 8.93756 23.2965V21.7903C8.93756 20.0632 7.98047 18.6777 6.74709 17.944ZM2.15934 15.0121C2.15934 13.7388 3.19537 12.7027 4.46887 12.7027C5.74219 12.7027 6.77822 13.7388 6.77822 15.0121C6.77822 16.2856 5.74219 17.3216 4.46887 17.3216C3.19537 17.3216 2.15934 16.2856 2.15934 15.0121ZM7.53131 22.5934H1.40625V21.7903C1.40625 20.0987 2.77477 18.7278 4.46869 18.7278C6.16022 18.7278 7.53113 20.0963 7.53113 21.7903V22.5934H7.53131Z" fill="black"/>
<path d="M21.0375 0H12C10.3638 0 9.03748 1.32384 9.03748 2.9625V16.5187C9.03748 17.0938 9.69705 17.4302 10.1625 17.0812L12.9874 14.9625H21.0375C22.6737 14.9625 24 13.6386 24 12V2.9625C24 1.32619 22.6761 0 21.0375 0ZM22.5937 12C22.5937 12.8602 21.8981 13.5563 21.0375 13.5563H12.7531C12.601 13.5563 12.453 13.6056 12.3312 13.6969L10.4438 15.1124V2.9625C10.4437 2.10225 11.1394 1.40625 12 1.40625H21.0375C21.8977 1.40625 22.5937 2.10188 22.5937 2.9625V12Z" fill="black"/>
</g>
<defs>
<clipPath id="clip0_802_5639">
<rect width="24" height="24" fill="white"/>
</clipPath>
</defs>
</svg>
