<svg width="24" height="25" viewBox="0 0 24 25" fill="none" xmlns="http://www.w3.org/2000/svg">
<path d="M5.625 18.9961H3C2.5526 18.9956 2.12367 18.8176 1.80731 18.5013C1.49095 18.1849 1.313 17.756 1.3125 17.3086V5.30859C1.3125 4.37822 2.06963 3.62109 3 3.62109H5.625C5.77418 3.62109 5.91726 3.68036 6.02275 3.78585C6.12824 3.89134 6.1875 4.03441 6.1875 4.18359C6.1875 4.33278 6.12824 4.47585 6.02275 4.58134C5.91726 4.68683 5.77418 4.74609 5.625 4.74609H3C2.68988 4.74609 2.4375 4.99847 2.4375 5.30859V17.3086C2.4375 17.6187 2.68988 17.8711 3 17.8711H5.625C5.77418 17.8711 5.91726 17.9304 6.02275 18.0358C6.12824 18.1413 6.1875 18.2844 6.1875 18.4336C6.1875 18.5828 6.12824 18.7259 6.02275 18.8313C5.91726 18.9368 5.77418 18.9961 5.625 18.9961ZM19.875 14.7211C19.7258 14.7211 19.5827 14.6618 19.4773 14.5563C19.3718 14.4509 19.3125 14.3078 19.3125 14.1586V5.30859C19.3125 4.99847 19.0601 4.74609 18.75 4.74609H16.125C15.9758 4.74609 15.8327 4.68683 15.7273 4.58134C15.6218 4.47585 15.5625 4.33278 15.5625 4.18359C15.5625 4.03441 15.6218 3.89134 15.7273 3.78585C15.8327 3.68036 15.9758 3.62109 16.125 3.62109H18.75C19.6804 3.62109 20.4375 4.37822 20.4375 5.30859V14.1586C20.4375 14.3078 20.3782 14.4509 20.2727 14.5563C20.1673 14.6618 20.0242 14.7211 19.875 14.7211Z" fill="black"/>
<path d="M11.25 20.8711H6.75C6.3026 20.8706 5.87367 20.6926 5.55731 20.3763C5.24095 20.0599 5.063 19.631 5.0625 19.1836V3.43359C5.0625 2.50322 5.81963 1.74609 6.75 1.74609H15C15.9304 1.74609 16.6875 2.50322 16.6875 3.43359V13.8173C16.6875 13.9665 16.6282 14.1096 16.5227 14.2151C16.4173 14.3206 16.2742 14.3798 16.125 14.3798C15.9758 14.3798 15.8327 14.3206 15.7273 14.2151C15.6218 14.1096 15.5625 13.9665 15.5625 13.8173V3.43359C15.5625 3.12347 15.3101 2.87109 15 2.87109H6.75C6.43988 2.87109 6.1875 3.12347 6.1875 3.43359V19.1836C6.1875 19.4937 6.43988 19.7461 6.75 19.7461H11.25C11.3992 19.7461 11.5423 19.8054 11.6477 19.9108C11.7532 20.0163 11.8125 20.1594 11.8125 20.3086C11.8125 20.4578 11.7532 20.6009 11.6477 20.7063C11.5423 20.8118 11.3992 20.8711 11.25 20.8711Z" fill="black"/>
<path d="M13.5 9.24598H8.25C8.10082 9.24598 7.95774 9.18672 7.85225 9.08123C7.74676 8.97574 7.6875 8.83266 7.6875 8.68348V4.93348C7.6875 4.82902 7.71659 4.72662 7.77151 4.63776C7.82643 4.5489 7.90501 4.47708 7.99844 4.43037C8.09188 4.38365 8.19647 4.36387 8.30052 4.37325C8.40456 4.38263 8.50393 4.4208 8.5875 4.48348L9.69712 5.31598L10.4767 4.53598C10.529 4.48368 10.591 4.44219 10.6592 4.41387C10.7275 4.38554 10.8006 4.37095 10.8745 4.37091C10.9484 4.37088 11.0216 4.38541 11.0899 4.41366C11.1582 4.44192 11.2202 4.48336 11.2725 4.53561L12.0525 5.31561L13.1625 4.48311C13.2461 4.42043 13.3454 4.38226 13.4495 4.37288C13.5535 4.3635 13.6581 4.38327 13.7516 4.42999C13.845 4.47671 13.9236 4.54852 13.9785 4.63738C14.0334 4.72624 14.0625 4.82864 14.0625 4.93311V8.68348C14.0625 8.83266 14.0032 8.97574 13.8977 9.08123C13.7923 9.18672 13.6492 9.24598 13.5 9.24598ZM8.8125 8.12098H12.9375V6.05848L12.3375 6.50848C12.2292 6.58962 12.0952 6.62898 11.9602 6.61934C11.8252 6.6097 11.6982 6.5517 11.6025 6.45598L10.875 5.72923L10.1479 6.45673C10.0522 6.55245 9.92517 6.61045 9.79017 6.62009C9.65516 6.62973 9.52121 6.59037 9.41287 6.50923L8.8125 6.05848V8.12098ZM10.875 17.4352C10.2926 17.4352 9.762 17.0925 9.55463 16.5817C9.52537 16.513 9.51008 16.4392 9.50966 16.3646C9.50923 16.2899 9.52367 16.2159 9.55213 16.1469C9.58059 16.0779 9.62251 16.0152 9.67544 15.9625C9.72838 15.9099 9.79126 15.8683 9.86043 15.8402C9.9296 15.8121 10.0037 15.798 10.0783 15.7989C10.153 15.7997 10.2267 15.8154 10.2953 15.845C10.3638 15.8746 10.4258 15.9175 10.4775 15.9714C10.5293 16.0252 10.5698 16.0887 10.5967 16.1584C10.6327 16.2465 10.7497 16.3102 10.875 16.3102C11.1037 16.3102 11.2969 16.1625 11.2969 15.9877V15.9439C11.2969 15.765 10.9117 15.6367 10.779 15.6127C10.2424 15.5235 9.32812 15.1185 9.32812 14.1727V14.1296C9.32812 13.3312 10.0219 12.6817 10.875 12.6817C11.4574 12.6817 11.988 13.0245 12.1954 13.5352C12.2246 13.6039 12.2399 13.6777 12.2403 13.7524C12.2408 13.8271 12.2263 13.9011 12.1979 13.9701C12.1694 14.0391 12.1275 14.1018 12.0746 14.1544C12.0216 14.2071 11.9587 14.2487 11.8896 14.2768C11.8204 14.3049 11.7463 14.3189 11.6717 14.3181C11.597 14.3173 11.5233 14.3016 11.4547 14.272C11.3862 14.2424 11.3242 14.1994 11.2725 14.1456C11.2207 14.0918 11.1802 14.0282 11.1533 13.9586C11.1173 13.8705 11.0003 13.8067 10.875 13.8067C10.6463 13.8067 10.4531 13.9545 10.4531 14.1292V14.1731C10.4531 14.352 10.8383 14.4802 10.971 14.5042C11.5076 14.5935 12.4219 14.9985 12.4219 15.9442V15.9874C12.4219 16.7857 11.7281 17.4352 10.875 17.4352Z" fill="black"/>
<path d="M10.875 13.8068C10.7258 13.8068 10.5827 13.7476 10.4773 13.6421C10.3718 13.5366 10.3125 13.3935 10.3125 13.2443V12.4336C10.3125 12.2844 10.3718 12.1413 10.4773 12.0358C10.5827 11.9304 10.7258 11.8711 10.875 11.8711C11.0242 11.8711 11.1673 11.9304 11.2727 12.0358C11.3782 12.1413 11.4375 12.2844 11.4375 12.4336V13.2443C11.4375 13.3935 11.3782 13.5366 11.2727 13.6421C11.1673 13.7476 11.0242 13.8068 10.875 13.8068ZM10.875 18.2461C10.7258 18.2461 10.5827 18.1868 10.4773 18.0813C10.3718 17.9759 10.3125 17.8328 10.3125 17.6836V16.8728C10.3125 16.7237 10.3718 16.5806 10.4773 16.4751C10.5827 16.3696 10.7258 16.3103 10.875 16.3103C11.0242 16.3103 11.1673 16.3696 11.2727 16.4751C11.3782 16.5806 11.4375 16.7237 11.4375 16.8728V17.6836C11.4375 17.8328 11.3782 17.9759 11.2727 18.0813C11.1673 18.1868 11.0242 18.2461 10.875 18.2461ZM17.625 23.1211C14.8335 23.1211 12.5625 20.8501 12.5625 18.0586C12.5625 15.2671 14.8335 12.9961 17.625 12.9961C20.4165 12.9961 22.6875 15.2671 22.6875 18.0586C22.6875 20.8501 20.4165 23.1211 17.625 23.1211ZM17.625 14.1211C15.4538 14.1211 13.6875 15.8873 13.6875 18.0586C13.6875 20.2298 15.4538 21.9961 17.625 21.9961C19.7963 21.9961 21.5625 20.2298 21.5625 18.0586C21.5625 15.8873 19.7963 14.1211 17.625 14.1211Z" fill="black"/>
<path d="M16.9687 20.1211C16.8196 20.1211 16.6767 20.0619 16.5712 19.9565L14.8837 18.269C14.8291 18.2173 14.7853 18.1553 14.7551 18.0864C14.7249 18.0176 14.7088 17.9434 14.7077 17.8682C14.7066 17.793 14.7207 17.7184 14.7489 17.6487C14.7772 17.5791 14.8191 17.5158 14.8723 17.4626C14.9255 17.4094 14.9887 17.3674 15.0584 17.3391C15.128 17.3108 15.2027 17.2968 15.2778 17.2978C15.353 17.2988 15.4272 17.3149 15.4961 17.3451C15.5649 17.3753 15.627 17.419 15.6787 17.4736L16.9687 18.7632L19.5712 16.1607C19.6229 16.1061 19.685 16.0624 19.7538 16.0322C19.8227 16.002 19.8969 15.9859 19.9721 15.9849C20.0473 15.9839 20.1219 15.9979 20.1915 16.0262C20.2612 16.0546 20.3245 16.0965 20.3776 16.1497C20.4308 16.2029 20.4727 16.2662 20.501 16.3358C20.5293 16.4055 20.5433 16.4801 20.5422 16.5553C20.5411 16.6305 20.525 16.7047 20.4948 16.7735C20.4646 16.8424 20.4208 16.9045 20.3662 16.9561L17.3662 19.9565C17.2608 20.062 17.1178 20.121 16.9687 20.1211Z" fill="black"/>
</svg>
