<svg width="24" height="25" viewBox="0 0 24 25" fill="none" xmlns="http://www.w3.org/2000/svg">
<path d="M17 9.43359V7.43359C17 6.32902 16.1046 5.43359 15 5.43359H5C3.89543 5.43359 3 6.32902 3 7.43359V13.4336C3 14.5382 3.89543 15.4336 5 15.4336H7M9 19.4336H19C20.1046 19.4336 21 18.5382 21 17.4336V11.4336C21 10.329 20.1046 9.43359 19 9.43359H9C7.89543 9.43359 7 10.329 7 11.4336V17.4336C7 18.5382 7.89543 19.4336 9 19.4336ZM16 14.4336C16 15.5382 15.1046 16.4336 14 16.4336C12.8954 16.4336 12 15.5382 12 14.4336C12 13.329 12.8954 12.4336 14 12.4336C15.1046 12.4336 16 13.329 16 14.4336Z" stroke="black" stroke-linecap="round" stroke-linejoin="round"/>
</svg>
