<svg width="24" height="25" viewBox="0 0 24 25" fill="none" xmlns="http://www.w3.org/2000/svg">
<path d="M15.9768 8.44434C15.8698 8.34053 15.726 8.28345 15.5769 8.28563C15.4279 8.28781 15.2858 8.34907 15.1818 8.45597L10.1437 13.4941C10.0915 13.5463 10.05 13.6083 10.0217 13.6766C9.99345 13.7448 9.97888 13.818 9.97886 13.8918C9.97885 13.9657 9.99338 14.0389 10.0216 14.1071C10.0499 14.1754 10.0913 14.2374 10.1435 14.2897C10.1958 14.3419 10.2578 14.3834 10.326 14.4116C10.3943 14.4399 10.4674 14.4545 10.5413 14.4545C10.6152 14.4545 10.6883 14.44 10.7566 14.4117C10.8248 14.3835 10.8868 14.3421 10.9391 14.2898L15.9772 9.25172C16.0313 9.19929 16.0742 9.13654 16.1036 9.06719C16.1329 8.99785 16.148 8.92332 16.148 8.84803C16.148 8.77274 16.1329 8.69821 16.1036 8.62887C16.0742 8.55953 16.0309 8.49678 15.9768 8.44434ZM9.6131 14.8081C9.50605 14.7043 9.36218 14.6473 9.21312 14.6496C9.06405 14.6518 8.92197 14.7131 8.8181 14.8201L8.02235 15.6155C7.9701 15.6677 7.92865 15.7297 7.90038 15.798C7.8721 15.8663 7.85754 15.9395 7.85754 16.0133C7.85754 16.0872 7.8721 16.1604 7.90038 16.2287C7.92865 16.2969 7.9701 16.359 8.02235 16.4112C8.0746 16.4635 8.13663 16.5049 8.2049 16.5332C8.27316 16.5615 8.34633 16.576 8.42022 16.576C8.49412 16.576 8.56729 16.5615 8.63555 16.5332C8.70382 16.5049 8.76585 16.4635 8.8181 16.4112L9.6131 15.6155C9.66713 15.563 9.71009 15.5003 9.73943 15.4309C9.76877 15.3616 9.78388 15.2871 9.78388 15.2118C9.78388 15.1365 9.76877 15.062 9.73943 14.9926C9.71009 14.9233 9.66713 14.8605 9.6131 14.8081ZM14.25 13.1836C13.221 13.1836 12.375 14.0296 12.375 15.0586C12.375 16.0876 13.221 16.9336 14.25 16.9336C15.279 16.9336 16.125 16.0876 16.125 15.0586C16.125 14.0296 15.279 13.1836 14.25 13.1836ZM14.25 14.3086C14.6707 14.3086 15 14.6378 15 15.0586C15 15.4793 14.6707 15.8086 14.25 15.8086C13.8292 15.8086 13.5 15.4793 13.5 15.0586C13.5 14.6378 13.8292 14.3086 14.25 14.3086ZM9.74997 7.93359C8.72097 7.93359 7.87497 8.77959 7.87497 9.80859C7.87497 10.8376 8.72097 11.6836 9.74997 11.6836C10.779 11.6836 11.625 10.8376 11.625 9.80859C11.625 8.77959 10.779 7.93359 9.74997 7.93359ZM9.74997 9.05859C10.1707 9.05859 10.5 9.38784 10.5 9.80859C10.5 10.2293 10.1707 10.5586 9.74997 10.5586C9.32922 10.5586 8.99997 10.2293 8.99997 9.80859C8.99997 9.38784 9.32922 9.05859 9.74997 9.05859Z" fill="black"/>
<path d="M12.0003 2.30859C10.884 2.43684 10.1891 3.49472 9.23847 3.98672C8.17834 4.14534 6.99372 3.69272 6.01197 4.24284C5.18847 5.00147 5.24622 6.25772 4.76997 7.21284C4.00534 7.95984 2.78247 8.28572 2.31147 9.30459C2.09284 10.403 2.88334 11.3821 3.06334 12.4332C2.88372 13.4847 2.09322 14.4638 2.31147 15.5622C2.78134 16.5818 4.00572 16.9062 4.76997 17.6536C5.24622 18.6091 5.18809 19.8661 6.01197 20.6247C6.99372 21.1748 8.17834 20.7222 9.23847 20.8808C10.1895 21.3721 10.8836 22.4311 12 22.5586C13.116 22.4303 13.8105 21.3717 14.7611 20.8808C15.8291 20.6881 16.9845 21.0316 18.0052 20.6176C18.513 20.2838 18.0791 19.4262 17.5095 19.6298C16.212 19.8878 14.6718 19.2927 13.5967 20.3011C13.0402 20.6 12.4308 21.5165 11.8518 21.3631C10.7925 20.8025 9.98659 19.523 8.63809 19.7318C8.01147 19.6482 6.97872 20.0348 6.59884 19.5717C6.07384 18.4988 6.17697 16.9925 4.96384 16.3741C4.50597 15.941 3.44284 15.6503 3.40909 15.0533C3.61684 13.8785 4.59334 12.725 3.97759 11.5115C3.86247 10.8938 3.17509 10.0351 3.50022 9.53447C4.36272 8.70534 5.83272 8.34572 6.05397 7.00134C6.32772 6.43472 6.27972 5.33559 6.83809 5.12259C8.02647 4.95759 9.43009 5.52347 10.4025 4.56534C10.959 4.26609 11.5676 3.35147 12.1473 3.50372C13.2071 4.06434 14.0126 5.34309 15.3611 5.13609C15.9873 5.21934 17.0205 4.83234 17.4003 5.29584C17.9268 6.36797 17.8211 7.87509 19.0353 8.49272C19.4928 8.92659 20.5567 9.21647 20.5901 9.81422C20.3816 10.9887 19.4058 12.1418 20.0216 13.3553C20.1371 13.973 20.8241 14.8317 20.499 15.3331C19.671 16.1435 18.2546 16.4798 17.9722 17.7432C17.7843 18.1302 17.6805 18.8056 18.2291 18.9466C18.7661 19.0977 19.0106 18.4805 19.0743 18.0646C19.3346 17.1811 20.4108 16.9685 21.0243 16.3696C21.7661 15.95 21.9041 15.0248 21.5613 14.2958C21.3172 13.4048 20.616 12.4891 21.1976 11.5786C21.4605 10.733 22.1182 9.69084 21.4451 8.87709C20.8023 8.20209 19.92 7.82934 19.2296 7.21284C18.7533 6.25772 18.8111 5.00147 17.9876 4.24284C17.0058 3.69272 15.8212 4.14534 14.7611 3.98672C13.815 3.49884 13.1122 2.43234 12.0003 2.30859Z" fill="black"/>
</svg>
