<svg width="24" height="25" viewBox="0 0 24 25" fill="none" xmlns="http://www.w3.org/2000/svg">
<g clip-path="url(#clip0_607_1964)">
<path d="M20.625 2.36719H3.375C2.87772 2.36719 2.40081 2.56473 2.04917 2.91636C1.69754 3.26799 1.5 3.74491 1.5 4.24219V7.24219C1.5 7.73947 1.69754 8.21638 2.04917 8.56801C2.40081 8.91964 2.87772 9.11719 3.375 9.11719V12.1172C3.375 12.6145 3.57254 13.0914 3.92417 13.443C4.27581 13.7946 4.75272 13.9922 5.25 13.9922H6V17.3672C5.99829 17.8715 6.12472 18.368 6.36741 18.8101C6.6101 19.2522 6.9611 19.6254 7.3875 19.8947C6.58125 20.4647 6.75 21.2484 6.75 22.6172C6.75 23.015 6.90804 23.3965 7.18934 23.6778C7.47064 23.9592 7.85218 24.1172 8.25 24.1172H15.375C15.7728 24.1172 16.1544 23.9592 16.4357 23.6778C16.717 23.3965 16.875 23.015 16.875 22.6172C16.875 21.3009 17.0437 20.4647 16.2375 19.8947C16.6624 19.6238 17.0123 19.2503 17.2548 18.8086C17.4973 18.3668 17.6246 17.8711 17.625 17.3672V13.9922H18.75C19.2473 13.9922 19.7242 13.7946 20.0758 13.443C20.4275 13.0914 20.625 12.6145 20.625 12.1172V9.11719C21.1223 9.11719 21.5992 8.91964 21.9508 8.56801C22.3025 8.21638 22.5 7.73947 22.5 7.24219V4.24219C22.5 3.74491 22.3025 3.26799 21.9508 2.91636C21.5992 2.56473 21.1223 2.36719 20.625 2.36719ZM4.125 12.1172V6.11719H6.08625C5.98098 6.23488 5.85212 6.32909 5.70804 6.3937C5.56396 6.45831 5.4079 6.49187 5.25 6.49219C5.15054 6.49219 5.05516 6.5317 4.98484 6.60202C4.91451 6.67235 4.875 6.76773 4.875 6.86719V10.6172C4.875 10.7166 4.91451 10.812 4.98484 10.8824C5.05516 10.9527 5.15054 10.9922 5.25 10.9922C5.54837 10.9922 5.83452 11.1107 6.0455 11.3217C6.25647 11.5327 6.375 11.8188 6.375 12.1172C6.375 12.2166 6.41451 12.312 6.48483 12.3824C6.55516 12.4527 6.65054 12.4922 6.75 12.4922H13.875V13.2422H5.25C4.95163 13.2422 4.66548 13.1237 4.4545 12.9127C4.24353 12.7017 4.125 12.4156 4.125 12.1172ZM13.5 8.17969C13.5 9.30469 12.8287 10.2422 12 10.2422C11.1713 10.2422 10.5 9.31594 10.5 8.17969C10.5 7.04344 11.1713 6.11719 12 6.11719C12.8287 6.11719 13.5 7.04344 13.5 8.17969ZM12 10.9922C14.0437 10.9922 15.0262 7.85344 13.5262 6.11719H17.0325C17.1527 6.39282 17.3374 6.63551 17.571 6.82478C17.8047 7.01405 18.0804 7.14435 18.375 7.20469V10.2797C18.2139 10.3157 18.0578 10.3711 17.91 10.4447C17.3625 10.7184 17.8237 10.7409 17.4525 9.90094C17.2763 9.51755 16.9759 9.2048 16.6 9.01326C16.224 8.82172 15.7945 8.76258 15.3807 8.84541C14.967 8.92824 14.5933 9.1482 14.3201 9.46972C14.0468 9.79124 13.89 10.1955 13.875 10.6172V11.7422H7.0875C7.01401 11.3819 6.83618 11.0511 6.57614 10.791C6.3161 10.531 5.98533 10.3532 5.625 10.2797V7.20469C5.91958 7.14435 6.19532 7.01405 6.42897 6.82478C6.66262 6.63551 6.84733 6.39282 6.9675 6.11719H10.4738C9 7.84219 9.94875 10.9922 12 10.9922ZM15.375 20.3672C15.5739 20.3672 15.7647 20.4462 15.9053 20.5869C16.046 20.7275 16.125 20.9183 16.125 21.1172V22.6172C16.125 22.8161 16.046 23.0069 15.9053 23.1475C15.7647 23.2882 15.5739 23.3672 15.375 23.3672H8.25C8.05109 23.3672 7.86032 23.2882 7.71967 23.1475C7.57902 23.0069 7.5 22.8161 7.5 22.6172V21.1172C7.5 20.9183 7.57902 20.7275 7.71967 20.5869C7.86032 20.4462 8.05109 20.3672 8.25 20.3672H15.375ZM16.875 17.3672C16.875 17.9639 16.6379 18.5362 16.216 18.9582C15.794 19.3801 15.2217 19.6172 14.625 19.6172H9C8.40326 19.6172 7.83097 19.3801 7.40901 18.9582C6.98705 18.5362 6.75 17.9639 6.75 17.3672V13.9922H11.8837C11.3398 14.3708 10.8956 14.8756 10.5893 15.4634C10.283 16.0512 10.1237 16.7044 10.125 17.3672C10.125 17.4666 10.1645 17.562 10.2348 17.6324C10.3052 17.7027 10.4005 17.7422 10.5 17.7422C10.5995 17.7422 10.6948 17.7027 10.7652 17.6324C10.8355 17.562 10.875 17.4666 10.875 17.3672C10.875 16.4721 11.2306 15.6136 11.8635 14.9807C12.4965 14.3478 13.3549 13.9922 14.25 13.9922C14.3495 13.9922 14.4448 13.9527 14.5152 13.8824C14.5855 13.812 14.625 13.7166 14.625 13.6172C14.625 10.5497 14.5087 10.2759 14.9513 9.82219C15.0504 9.71718 15.1696 9.63312 15.3018 9.57498C15.434 9.51684 15.5765 9.48581 15.7209 9.48371C15.8653 9.48161 16.0086 9.5085 16.1424 9.56277C16.2763 9.61704 16.3979 9.6976 16.5 9.79969C16.9913 10.2797 16.875 10.0809 16.875 17.3672ZM19.875 12.1172C19.875 12.4156 19.7565 12.7017 19.5455 12.9127C19.3345 13.1237 19.0484 13.2422 18.75 13.2422H17.625V12.1172C17.625 11.8188 17.7435 11.5327 17.9545 11.3217C18.1655 11.1107 18.4516 10.9922 18.75 10.9922C18.8495 10.9922 18.9448 10.9527 19.0152 10.8824C19.0855 10.812 19.125 10.7166 19.125 10.6172V6.86719C19.125 6.76773 19.0855 6.67235 19.0152 6.60202C18.9448 6.5317 18.8495 6.49219 18.75 6.49219C18.5931 6.48932 18.4384 6.4546 18.2953 6.39014C18.1522 6.32568 18.0236 6.23282 17.9175 6.11719C17.8837 6.07969 17.9175 6.11719 19.875 6.11719V12.1172ZM21.75 7.24219C21.75 7.54056 21.6315 7.8267 21.4205 8.03768C21.2095 8.24866 20.9234 8.36719 20.625 8.36719V6.11719C20.7245 6.11719 20.8198 6.07768 20.8902 6.00735C20.9605 5.93703 21 5.84164 21 5.74219C21 5.64273 20.9605 5.54735 20.8902 5.47702C20.8198 5.4067 20.7245 5.36719 20.625 5.36719H3.375C3.27554 5.36719 3.18016 5.4067 3.10984 5.47702C3.03951 5.54735 3 5.64273 3 5.74219C3 5.84164 3.03951 5.93703 3.10984 6.00735C3.18016 6.07768 3.27554 6.11719 3.375 6.11719V8.36719C3.07663 8.36719 2.79048 8.24866 2.5795 8.03768C2.36853 7.8267 2.25 7.54056 2.25 7.24219V4.24219C2.25 3.94382 2.36853 3.65767 2.5795 3.44669C2.79048 3.23571 3.07663 3.11719 3.375 3.11719H20.625C20.9234 3.11719 21.2095 3.23571 21.4205 3.44669C21.6315 3.65767 21.75 3.94382 21.75 4.24219V7.24219Z" fill="black"/>
</g>
<defs>
<clipPath id="clip0_607_1964">
<rect width="24" height="24" fill="white" transform="translate(0 0.867188)"/>
</clipPath>
</defs>
</svg>
