<svg width="24" height="24" viewBox="0 0 24 24" fill="none" xmlns="http://www.w3.org/2000/svg">
<g clip-path="url(#clip0_802_5660)">
<path d="M15.0225 10.5637C15.0225 10.3847 14.9514 10.213 14.8248 10.0864C14.6982 9.95979 14.5265 9.88867 14.3475 9.88867H6.92247C6.74345 9.88867 6.57176 9.95979 6.44517 10.0864C6.31859 10.213 6.24747 10.3847 6.24747 10.5637C6.24747 10.7427 6.31859 10.9144 6.44517 11.041C6.57176 11.1676 6.74345 11.2387 6.92247 11.2387H14.3475C14.4361 11.2387 14.5239 11.2212 14.6058 11.1873C14.6877 11.1534 14.7621 11.1036 14.8248 11.041C14.8874 10.9783 14.9372 10.9039 14.9711 10.822C15.005 10.7401 15.0225 10.6523 15.0225 10.5637ZM6.92097 13.2974C6.74195 13.2974 6.57026 13.3685 6.44367 13.4951C6.31709 13.6217 6.24597 13.7934 6.24597 13.9724C6.24597 14.1514 6.31709 14.3231 6.44367 14.4497C6.57026 14.5763 6.74195 14.6474 6.92097 14.6474H10.8577C11.0367 14.6474 11.2084 14.5763 11.335 14.4497C11.4616 14.3231 11.5327 14.1514 11.5327 13.9724C11.5327 13.7934 11.4616 13.6217 11.335 13.4951C11.2084 13.3685 11.0367 13.2974 10.8577 13.2974H6.92097Z" fill="black"/>
<path d="M19.4699 10.6008C19.2909 10.6008 19.1192 10.6719 18.9927 10.7985C18.8661 10.9251 18.795 11.0968 18.795 11.2758V16.7351C18.7944 17.2262 18.599 17.697 18.2517 18.0443C17.9044 18.3916 17.4336 18.587 16.9425 18.5876H12.4275C12.281 18.5874 12.1385 18.6351 12.0217 18.7233L8.1232 21.6551C8.08991 21.6818 8.04931 21.6978 8.00674 21.701C7.96417 21.7042 7.92163 21.6945 7.8847 21.6731C7.84653 21.6548 7.81459 21.6258 7.79284 21.5895C7.7711 21.5532 7.76053 21.5113 7.76245 21.4691L7.83745 19.2866C7.84036 19.1961 7.82509 19.106 7.79254 19.0215C7.75999 18.9371 7.71082 18.86 7.64795 18.7949C7.58508 18.7298 7.50978 18.6779 7.42651 18.6425C7.34325 18.607 7.25371 18.5886 7.1632 18.5883H4.02745C3.53626 18.5879 3.0653 18.3926 2.71797 18.0453C2.37065 17.698 2.17535 17.227 2.17495 16.7358V7.81081C2.17455 7.31875 2.36938 6.84664 2.71669 6.49807C3.06399 6.1495 3.5354 5.95295 4.02745 5.95156H12.3449C12.524 5.95156 12.6957 5.88045 12.8222 5.75386C12.9488 5.62727 13.02 5.45558 13.02 5.27656C13.02 5.09754 12.9488 4.92585 12.8222 4.79927C12.6957 4.67268 12.524 4.60156 12.3449 4.60156H4.02745C3.17741 4.60355 2.36286 4.94262 1.76249 5.5444C1.16211 6.14617 0.824949 6.96152 0.824951 7.81156V16.7358C0.825943 17.5849 1.16364 18.399 1.76399 18.9995C2.36434 19.6 3.17833 19.9379 4.02745 19.9391H6.4642L6.4132 21.4256C6.40286 21.7224 6.4772 22.0161 6.62753 22.2723C6.77787 22.5285 6.998 22.7366 7.2622 22.8723C7.48713 22.9902 7.73724 23.052 7.9912 23.0523C8.32345 23.0523 8.6527 22.9451 8.9332 22.7358L12.6525 19.9391H16.9417C17.7908 19.9379 18.6048 19.6 19.2052 18.9995C19.8055 18.399 20.1432 17.5849 20.1442 16.7358V11.2766C20.1444 11.1879 20.1271 11.1001 20.0933 11.0181C20.0595 10.9361 20.0099 10.8616 19.9472 10.7988C19.8846 10.7361 19.8102 10.6863 19.7283 10.6523C19.6464 10.6183 19.5586 10.6008 19.4699 10.6008Z" fill="black"/>
<path d="M23.1187 4.17101C23.0598 3.98767 22.9549 3.82247 22.814 3.69118C22.6731 3.55988 22.501 3.46687 22.3139 3.42101L20.5889 2.99126L19.6469 1.48376C19.2292 0.813258 18.1387 0.814758 17.7217 1.48376L16.7797 2.99126L15.0547 3.42101C14.6729 3.51551 14.3714 3.79601 14.2499 4.17101C14.1284 4.54601 14.2064 4.95026 14.4599 5.25251L15.6029 6.61301L15.4784 8.38601C15.4643 8.57815 15.4996 8.7707 15.581 8.94532C15.6624 9.11993 15.7872 9.27079 15.9434 9.38351C16.099 9.49718 16.2811 9.56918 16.4723 9.59268C16.6636 9.61618 16.8577 9.59039 17.0362 9.51776L18.6847 8.85176L20.3324 9.51776C20.6977 9.66626 21.1057 9.61526 21.4252 9.38426C21.7439 9.15251 21.9179 8.77976 21.8909 8.38601L21.7664 6.61301L22.9094 5.25176C23.1622 4.95026 23.2409 4.54601 23.1187 4.17101ZM20.5567 5.95376C20.4439 6.0881 20.388 6.26109 20.4007 6.43601L20.5207 8.13851L18.9382 7.49876C18.7761 7.43289 18.5947 7.43289 18.4327 7.49876L16.8509 8.13851L16.9702 6.43601C16.982 6.26119 16.9261 6.08852 16.8142 5.95376L15.7169 4.64726L17.3729 4.23401C17.5425 4.19166 17.689 4.08519 17.7817 3.93701L18.6862 2.49026L19.5907 3.93701C19.6837 4.08551 19.8299 4.19201 19.9994 4.23401L21.6554 4.64726L20.5567 5.95376Z" fill="black"/>
</g>
<defs>
<clipPath id="clip0_802_5660">
<rect width="24" height="24" fill="white"/>
</clipPath>
</defs>
</svg>
