<svg width="24" height="25" viewBox="0 0 24 25" fill="none" xmlns="http://www.w3.org/2000/svg">
<path d="M10.3246 4.7509C10.751 2.99449 13.249 2.99449 13.6754 4.7509C13.9508 5.88552 15.2507 6.42397 16.2478 5.81644C17.7913 4.87598 19.5576 6.6423 18.6172 8.18578C18.0096 9.18285 18.5481 10.4828 19.6827 10.7582C21.4391 11.1846 21.4391 13.6826 19.6827 14.109C18.5481 14.3844 18.0096 15.6843 18.6172 16.6814C19.5576 18.2249 17.7913 19.9912 16.2478 19.0507C15.2507 18.4432 13.9508 18.9817 13.6754 20.1163C13.249 21.8727 10.751 21.8727 10.3246 20.1163C10.0492 18.9817 8.74926 18.4432 7.75219 19.0507C6.2087 19.9912 4.44239 18.2249 5.38285 16.6814C5.99038 15.6843 5.45193 14.3844 4.31731 14.109C2.5609 13.6826 2.5609 11.1846 4.31731 10.7582C5.45193 10.4828 5.99037 9.18285 5.38285 8.18578C4.44239 6.6423 6.2087 4.87598 7.75219 5.81644C8.74926 6.42397 10.0492 5.88552 10.3246 4.7509Z" stroke="black" stroke-linecap="round" stroke-linejoin="round"/>
<path d="M15 12.4336C15 14.0904 13.6569 15.4336 12 15.4336C10.3431 15.4336 9 14.0904 9 12.4336C9 10.7767 10.3431 9.43359 12 9.43359C13.6569 9.43359 15 10.7767 15 12.4336Z" stroke="black" stroke-linecap="round" stroke-linejoin="round"/>
</svg>
