<svg width="25" height="25" viewBox="0 0 25 25" fill="none" xmlns="http://www.w3.org/2000/svg">
<path d="M10.1339 2.73828H4.88391C4.38681 2.73888 3.91025 2.93661 3.55874 3.28811C3.20724 3.63962 3.00951 4.11618 3.00891 4.61328V9.86328C3.00951 10.3604 3.20724 10.8369 3.55874 11.1884C3.91025 11.54 4.38681 11.7377 4.88391 11.7383H10.1339C10.631 11.7377 11.1076 11.54 11.4591 11.1884C11.8106 10.8369 12.0083 10.3604 12.0089 9.86328V4.61328C12.0083 4.11618 11.8106 3.63962 11.4591 3.28811C11.1076 2.93661 10.631 2.73888 10.1339 2.73828ZM11.2589 9.86328C11.2589 10.1617 11.1404 10.4478 10.9294 10.6588C10.7184 10.8698 10.4323 10.9883 10.1339 10.9883H4.88391C4.58554 10.9883 4.29939 10.8698 4.08842 10.6588C3.87744 10.4478 3.75891 10.1617 3.75891 9.86328V4.61328C3.75891 4.31491 3.87744 4.02876 4.08842 3.81779C4.29939 3.60681 4.58554 3.48828 4.88391 3.48828H10.1339C10.4323 3.48828 10.7184 3.60681 10.9294 3.81779C11.1404 4.02876 11.2589 4.31491 11.2589 4.61328V9.86328ZM20.6339 2.73828H15.3839C14.8868 2.73888 14.4102 2.93661 14.0587 3.28811C13.7072 3.63962 13.5095 4.11618 13.5089 4.61328V9.86328C13.5095 10.3604 13.7072 10.8369 14.0587 11.1884C14.4102 11.54 14.8868 11.7377 15.3839 11.7383H20.6339C21.131 11.7377 21.6076 11.54 21.9591 11.1884C22.3106 10.8369 22.5083 10.3604 22.5089 9.86328V4.61328C22.5083 4.11618 22.3106 3.63962 21.9591 3.28811C21.6076 2.93661 21.131 2.73888 20.6339 2.73828ZM21.7589 9.86328C21.7589 10.1617 21.6404 10.4478 21.4294 10.6588C21.2184 10.8698 20.9323 10.9883 20.6339 10.9883H15.3839C15.0855 10.9883 14.7994 10.8698 14.5884 10.6588C14.3774 10.4478 14.2589 10.1617 14.2589 9.86328V4.61328C14.2589 4.31491 14.3774 4.02876 14.5884 3.81779C14.7994 3.60681 15.0855 3.48828 15.3839 3.48828H20.6339C20.9323 3.48828 21.2184 3.60681 21.4294 3.81779C21.6404 4.02876 21.7589 4.31491 21.7589 4.61328V9.86328ZM10.1339 13.2383H4.88391C4.38681 13.2389 3.91025 13.4366 3.55874 13.7881C3.20724 14.1396 3.00951 14.6162 3.00891 15.1133V20.3633C3.00951 20.8604 3.20724 21.3369 3.55874 21.6884C3.91025 22.04 4.38681 22.2377 4.88391 22.2383H10.1339C10.631 22.2377 11.1076 22.04 11.4591 21.6884C11.8106 21.3369 12.0083 20.8604 12.0089 20.3633V15.1133C12.0083 14.6162 11.8106 14.1396 11.4591 13.7881C11.1076 13.4366 10.631 13.2389 10.1339 13.2383ZM11.2589 20.3633C11.2589 20.6617 11.1404 20.9478 10.9294 21.1588C10.7184 21.3698 10.4323 21.4883 10.1339 21.4883H4.88391C4.58554 21.4883 4.29939 21.3698 4.08842 21.1588C3.87744 20.9478 3.75891 20.6617 3.75891 20.3633V15.1133C3.75891 14.8149 3.87744 14.5288 4.08842 14.3178C4.29939 14.1068 4.58554 13.9883 4.88391 13.9883H10.1339C10.4323 13.9883 10.7184 14.1068 10.9294 14.3178C11.1404 14.5288 11.2589 14.8149 11.2589 15.1133V20.3633ZM18.0089 13.2383C17.1189 13.2383 16.2489 13.5022 15.5088 13.9967C14.7688 14.4911 14.192 15.1939 13.8515 16.0162C13.5109 16.8385 13.4217 17.7433 13.5954 18.6162C13.769 19.4891 14.1976 20.2909 14.8269 20.9203C15.4563 21.5496 16.2581 21.9782 17.131 22.1518C18.0039 22.3255 18.9087 22.2363 19.731 21.8957C20.5533 21.5551 21.2561 20.9784 21.7505 20.2383C22.245 19.4983 22.5089 18.6283 22.5089 17.7383C22.5076 16.5452 22.0331 15.4014 21.1895 14.5577C20.3458 13.7141 19.202 13.2396 18.0089 13.2383ZM18.0089 21.4883C17.2672 21.4883 16.5422 21.2683 15.9255 20.8563C15.3088 20.4442 14.8282 19.8586 14.5444 19.1733C14.2605 18.4881 14.1863 17.7341 14.331 17.0067C14.4757 16.2793 14.8328 15.6111 15.3573 15.0866C15.8817 14.5622 16.5499 14.205 17.2773 14.0603C18.0048 13.9156 18.7588 13.9899 19.444 14.2737C20.1292 14.5576 20.7149 15.0382 21.1269 15.6549C21.539 16.2716 21.7589 16.9966 21.7589 17.7383C21.7578 18.7325 21.3624 19.6857 20.6594 20.3887C19.9563 21.0918 19.0031 21.4872 18.0089 21.4883Z" fill="black"/>
</svg>
