<svg xmlns="http://www.w3.org/2000/svg" width="18" height="18" viewBox="0 0 18 18" fill="none">
  <path d="M15.1425 10.545L14.295 9.13498C14.1075 8.82748 13.9425 8.23498 13.9425 7.87498V6.47248C13.9425 3.74998 11.73 1.53748 9.01503 1.53748C6.29253 1.54498 4.08003 3.74998 4.08003 6.47248V7.86748C4.08003 8.22748 3.91503 8.81998 3.73503 9.12748L2.88753 10.5375C2.56503 11.085 2.49003 11.7075 2.69253 12.2475C2.89503 12.795 3.35253 13.23 3.95253 13.425C4.76253 13.695 5.58003 13.89 6.41253 14.0325C6.49503 14.0475 6.57753 14.055 6.66003 14.07C6.76503 14.085 6.87753 14.1 6.99003 14.115C7.18503 14.145 7.38003 14.1675 7.58253 14.1825C8.05503 14.2275 8.53503 14.25 9.01503 14.25C9.48753 14.25 9.96003 14.2275 10.425 14.1825C10.5975 14.1675 10.77 14.1525 10.935 14.13C11.07 14.115 11.205 14.1 11.34 14.0775C11.4225 14.07 11.505 14.055 11.5875 14.04C12.4275 13.905 13.26 13.695 14.07 13.425C14.6475 13.23 15.09 12.795 15.3 12.24C15.51 11.6775 15.45 11.0625 15.1425 10.545ZM9.56253 7.49998C9.56253 7.81498 9.30753 8.06998 8.99253 8.06998C8.67753 8.06998 8.42253 7.81498 8.42253 7.49998V5.17498C8.42253 4.85998 8.67753 4.60498 8.99253 4.60498C9.30753 4.60498 9.56253 4.85998 9.56253 5.17498V7.49998Z" fill="#53DD6C"/>
  <path d="M11.1225 15.0075C10.8075 15.8775 9.97501 16.5 9.00001 16.5C8.40751 16.5 7.82251 16.26 7.41001 15.8325C7.17001 15.6075 6.99001 15.3075 6.88501 15C6.98251 15.015 7.08001 15.0225 7.18501 15.0375C7.35751 15.06 7.53751 15.0825 7.71751 15.0975C8.14501 15.135 8.58001 15.1575 9.01501 15.1575C9.44251 15.1575 9.87001 15.135 10.29 15.0975C10.4475 15.0825 10.605 15.075 10.755 15.0525C10.875 15.0375 10.995 15.0225 11.1225 15.0075Z" fill="#53DD6C"/>
</svg>